<svg width="529" height="513" viewBox="0 0 529 513" fill="none" xmlns="http://www.w3.org/2000/svg">
<path d="M450.838 63.2C442.338 62.6 436.538 71.4 432.838 79.1C421.638 102.5 411.538 127 409.738 152.9C408.538 169.8 406.138 214.4 407.738 231.2C413.738 295.5 404.638 329.4 409.238 393.9C415.938 393.6 430.838 396.6 437.538 396.3C439.338 396.2 441.338 396.2 442.738 397.4C443.938 398.4 444.338 400.1 444.538 401.7C450.338 433.2 453.138 465.2 452.738 497.2C464.938 497.6 477.038 498 489.238 498.4C479.538 465.3 483.138 430 486.838 395.7C495.538 395 504.238 394.2 512.938 393.5C514.938 393.3 517.138 393.1 518.838 392C522.238 389.7 522.438 384.9 522.338 380.8C519.838 301.3 517.238 221.7 514.738 142.2C513.938 118.2 512.238 91.8 495.238 74.9" fill="white"/>
<path d="M465.738 57.5C450.138 57.9 435.738 67.5 426.538 80.2C422.538 85.7 419.338 91.8 416.638 98.1C402.038 132.4 402.938 171 404.438 208.2C407.238 207.3 410.038 206.4 412.938 205.5C415.038 214.6 416.838 223.7 418.238 232.9C421.938 224.4 425.638 215.9 429.238 207.3C429.638 206.4 430.038 205.5 430.738 205C431.538 204.4 432.738 204.3 433.738 204.3C443.338 203.8 452.838 200.9 461.038 195.9C461.538 195.6 462.138 195.2 462.238 194.6C462.338 194.1 462.138 193.7 461.838 193.2C460.138 189.8 458.438 186.5 456.738 183.1C456.138 181.9 455.438 180.6 454.438 179.8C452.738 178.4 450.338 178.1 448.238 177.6C442.438 176 437.838 171.3 435.038 166C432.238 160.7 430.938 154.7 429.738 148.8C424.738 150.2 419.138 149.2 414.938 146.3C411.838 144.1 409.438 139.8 411.638 136.7C413.838 133.7 418.838 134.4 421.538 131.8C422.338 131 422.838 130 423.738 129.2C424.738 128.4 425.938 128.1 427.238 127.7C446.438 122.5 463.938 111.4 476.938 96.3C480.638 111.5 492.138 124.5 506.738 130C506.838 131.3 506.838 132.6 506.938 133.9C511.438 131.8 517.338 136.7 516.038 141.5C514.738 146.6 508.338 148.1 504.538 151.7C499.738 156.2 499.338 163.6 496.338 169.5C493.338 175.5 487.238 179.9 480.638 181.1C480.138 181.2 479.638 181.3 479.238 181.6C478.738 182 478.638 182.7 478.538 183.3C478.138 187.2 478.438 191.3 479.438 195.1C479.738 196 480.038 197 480.638 197.7C481.538 198.8 483.038 199.4 484.438 199.9C497.638 205.1 508.438 216.3 513.038 229.8C515.438 236.8 516.538 244.7 521.838 249.9C522.138 212.2 534.338 174 525.238 137.4C523.638 131 521.438 124.9 520.138 118.4C517.138 103.9 518.538 88 510.738 75.4C509.538 73.5 508.138 71.7 506.338 70.4C503.938 68.6 500.938 67.9 498.038 67.2C492.438 65.8 486.838 64.4 481.238 63C478.838 62.4 475.738 60.7 476.538 58.3" fill="#F55848"/>
<path d="M272.738 89.3C263.838 88.8 255.638 94.9 251.138 102.6C246.638 110.3 245.238 119.3 243.938 128.1C242.538 137.7 241.338 147.4 242.738 157C244.138 166.6 248.438 176.1 256.138 181.8C259.938 184.6 264.438 186.4 268.138 189.2C271.838 192 275.038 196.4 274.438 201.1C263.138 201 252.938 208.7 246.838 218.2C240.738 227.7 238.038 239 235.438 250C232.438 262.7 229.338 275.6 229.338 288.7C234.738 289 240.038 289.3 245.438 289.6C246.938 320.3 246.238 351.1 243.338 381.7C245.338 381.7 247.338 381.6 249.438 381.6C248.038 409.1 247.338 436.6 247.338 464.1C260.238 464.3 273.138 465.3 285.938 466.8C288.238 467.1 290.638 467.5 292.338 469.1C293.838 470.6 294.238 472.9 294.538 475C295.138 481.1 294.538 487.3 292.838 493.2C307.438 493.6 322.038 494.1 336.538 494.5C331.038 487.7 328.738 478.4 330.438 469.8C344.338 467.5 358.238 465.3 372.138 463C368.238 437.7 366.738 412 367.838 386.4C368.238 377.3 368.938 368.3 369.638 359.2C370.338 349.9 371.138 340.6 371.538 331.2C372.238 315.8 372.138 300.4 371.338 285C370.538 270.3 368.938 255.4 363.938 241.6C358.938 227.7 350.138 214.8 337.538 207.2C335.938 206.2 334.238 205.3 332.938 203.9C330.538 201.3 330.038 197.4 330.238 193.9C330.938 182.5 337.738 172.5 340.838 161.6C342.838 154.4 343.238 146.8 342.838 139.4C341.938 122.3 336.538 105.2 326.138 91.6C315.738 78 299.838 68.3 282.838 66.8" fill="white"/>
<path d="M215.935 445.722C217.001 443.85 216.349 441.469 214.477 440.402C212.606 439.336 210.225 439.988 209.158 441.86C208.092 443.731 208.744 446.113 210.616 447.179C212.487 448.245 214.868 447.593 215.935 445.722Z" fill="#E8E7EC"/>
<path d="M223.718 431.978C224.785 430.106 224.132 427.725 222.261 426.658C220.39 425.592 218.008 426.244 216.942 428.116C215.875 429.987 216.528 432.369 218.399 433.435C220.27 434.501 222.652 433.849 223.718 431.978Z" fill="#E8E7EC"/>
<path d="M231.638 418.196C232.705 416.325 232.052 413.943 230.181 412.877C228.31 411.811 225.928 412.463 224.862 414.334C223.795 416.206 224.448 418.587 226.319 419.654C228.19 420.72 230.572 420.068 231.638 418.196Z" fill="#E8E7EC"/>
<path d="M239.422 404.452C240.488 402.581 239.836 400.199 237.964 399.133C236.093 398.067 233.712 398.719 232.645 400.59C231.579 402.462 232.231 404.843 234.103 405.91C235.974 406.976 238.355 406.323 239.422 404.452Z" fill="#E8E7EC"/>
<path d="M247.255 390.621C248.321 388.75 247.669 386.368 245.797 385.302C243.926 384.236 241.545 384.888 240.478 386.759C239.412 388.631 240.064 391.012 241.936 392.079C243.807 393.145 246.188 392.493 247.255 390.621Z" fill="#E8E7EC"/>
<path d="M255.125 376.927C256.192 375.055 255.539 372.674 253.668 371.608C251.796 370.541 249.415 371.194 248.349 373.065C247.282 374.936 247.935 377.318 249.806 378.384C251.677 379.451 254.059 378.798 255.125 376.927Z" fill="#E8E7EC"/>
<path d="M262.909 363.183C263.975 361.311 263.323 358.93 261.451 357.864C259.58 356.797 257.198 357.45 256.132 359.321C255.066 361.192 255.718 363.574 257.59 364.64C259.461 365.707 261.842 365.054 262.909 363.183Z" fill="#E8E7EC"/>
<path d="M270.829 349.401C271.895 347.53 271.243 345.149 269.371 344.082C267.5 343.016 265.118 343.668 264.052 345.54C262.986 347.411 263.638 349.792 265.509 350.859C267.381 351.925 269.762 351.273 270.829 349.401Z" fill="#E8E7EC"/>
<path d="M278.612 335.657C279.679 333.786 279.026 331.405 277.155 330.338C275.283 329.272 272.902 329.924 271.836 331.796C270.769 333.667 271.422 336.048 273.293 337.115C275.164 338.181 277.546 337.529 278.612 335.657Z" fill="#E8E7EC"/>
<path d="M228.426 443.707C229.492 441.836 228.839 439.454 226.968 438.388C225.097 437.322 222.715 437.974 221.649 439.845C220.583 441.717 221.235 444.098 223.106 445.165C224.978 446.231 227.359 445.578 228.426 443.707Z" fill="#E8E7EC"/>
<path d="M236.209 429.963C237.276 428.092 236.623 425.71 234.752 424.644C232.88 423.578 230.499 424.23 229.432 426.101C228.366 427.973 229.019 430.354 230.89 431.421C232.761 432.487 235.143 431.835 236.209 429.963Z" fill="#E8E7EC"/>
<path d="M244.129 416.182C245.195 414.311 244.543 411.929 242.672 410.863C240.8 409.796 238.419 410.449 237.352 412.32C236.286 414.191 236.939 416.573 238.81 417.639C240.681 418.706 243.063 418.053 244.129 416.182Z" fill="#E8E7EC"/>
<path d="M251.913 402.438C252.979 400.567 252.326 398.185 250.455 397.119C248.584 396.052 246.202 396.705 245.136 398.576C244.07 400.447 244.722 402.829 246.593 403.895C248.465 404.962 250.846 404.309 251.913 402.438Z" fill="#E8E7EC"/>
<path d="M259.696 388.694C260.762 386.823 260.11 384.441 258.239 383.375C256.367 382.308 253.986 382.961 252.919 384.832C251.853 386.703 252.506 389.085 254.377 390.151C256.248 391.218 258.63 390.565 259.696 388.694Z" fill="#E8E7EC"/>
<path d="M267.616 374.912C268.682 373.041 268.03 370.66 266.159 369.593C264.287 368.527 261.906 369.179 260.839 371.051C259.773 372.922 260.425 375.303 262.297 376.37C264.168 377.436 266.55 376.784 267.616 374.912Z" fill="#E8E7EC"/>
<path d="M275.399 361.168C276.466 359.297 275.813 356.916 273.942 355.849C272.071 354.783 269.689 355.435 268.623 357.307C267.556 359.178 268.209 361.559 270.08 362.626C271.952 363.692 274.333 363.04 275.399 361.168Z" fill="#E8E7EC"/>
<path d="M283.319 347.387C284.386 345.516 283.733 343.134 281.862 342.068C279.991 341.001 277.609 341.654 276.543 343.525C275.476 345.397 276.129 347.778 278 348.844C279.872 349.911 282.253 349.258 283.319 347.387Z" fill="#E8E7EC"/>
<path d="M232.158 454.954C233.224 453.083 232.572 450.701 230.7 449.635C228.829 448.568 226.447 449.221 225.381 451.092C224.315 452.963 224.967 455.345 226.839 456.411C228.71 457.478 231.091 456.825 232.158 454.954Z" fill="#E8E7EC"/>
<path d="M240.028 441.259C241.095 439.388 240.442 437.007 238.571 435.94C236.699 434.874 234.318 435.526 233.251 437.398C232.185 439.269 232.838 441.65 234.709 442.717C236.58 443.783 238.962 443.131 240.028 441.259Z" fill="#E8E7EC"/>
<path d="M247.861 427.428C248.928 425.557 248.275 423.176 246.404 422.109C244.532 421.043 242.151 421.695 241.085 423.567C240.018 425.438 240.671 427.82 242.542 428.886C244.413 429.952 246.795 429.3 247.861 427.428Z" fill="#E8E7EC"/>
<path d="M255.732 413.734C256.798 411.863 256.145 409.481 254.274 408.415C252.403 407.348 250.021 408.001 248.955 409.872C247.889 411.744 248.541 414.125 250.412 415.191C252.284 416.258 254.665 415.605 255.732 413.734Z" fill="#E8E7EC"/>
<path d="M263.515 399.99C264.582 398.119 263.929 395.737 262.058 394.671C260.186 393.604 257.805 394.257 256.739 396.128C255.672 397.999 256.325 400.381 258.196 401.447C260.067 402.514 262.449 401.861 263.515 399.99Z" fill="#E8E7EC"/>
<path d="M271.435 386.209C272.501 384.337 271.849 381.956 269.978 380.889C268.106 379.823 265.725 380.475 264.658 382.347C263.592 384.218 264.245 386.6 266.116 387.666C267.987 388.732 270.369 388.08 271.435 386.209Z" fill="#E8E7EC"/>
<path d="M279.219 372.464C280.285 370.593 279.632 368.212 277.761 367.145C275.89 366.079 273.508 366.731 272.442 368.603C271.375 370.474 272.028 372.856 273.899 373.922C275.771 374.988 278.152 374.336 279.219 372.464Z" fill="#E8E7EC"/>
<path d="M287.052 358.634C288.118 356.762 287.465 354.381 285.594 353.314C283.723 352.248 281.341 352.901 280.275 354.772C279.208 356.643 279.861 359.025 281.732 360.091C283.604 361.158 285.985 360.505 287.052 358.634Z" fill="#E8E7EC"/>
<path d="M294.922 344.939C295.988 343.068 295.336 340.686 293.465 339.62C291.593 338.554 289.212 339.206 288.145 341.077C287.079 342.949 287.731 345.33 289.603 346.397C291.474 347.463 293.856 346.811 294.922 344.939Z" fill="#E8E7EC"/>
<path d="M244.735 452.989C245.802 451.118 245.149 448.736 243.278 447.67C241.407 446.603 239.025 447.256 237.959 449.127C236.892 450.999 237.545 453.38 239.416 454.447C241.287 455.513 243.669 454.86 244.735 452.989Z" fill="#E8E7EC"/>
<path d="M252.519 439.245C253.585 437.374 252.933 434.992 251.061 433.926C249.19 432.859 246.809 433.512 245.742 435.383C244.676 437.255 245.328 439.636 247.2 440.702C249.071 441.769 251.453 441.116 252.519 439.245Z" fill="#E8E7EC"/>
<path d="M260.303 425.501C261.369 423.63 260.716 421.248 258.845 420.182C256.974 419.115 254.592 419.768 253.526 421.639C252.459 423.511 253.112 425.892 254.983 426.958C256.855 428.025 259.236 427.372 260.303 425.501Z" fill="#E8E7EC"/>
<path d="M268.222 411.72C269.289 409.848 268.636 407.467 266.765 406.4C264.894 405.334 262.512 405.987 261.446 407.858C260.379 409.729 261.032 412.111 262.903 413.177C264.775 414.243 267.156 413.591 268.222 411.72Z" fill="#E8E7EC"/>
<path d="M276.006 397.976C277.072 396.104 276.42 393.723 274.548 392.656C272.677 391.59 270.296 392.243 269.229 394.114C268.163 395.985 268.815 398.367 270.687 399.433C272.558 400.499 274.939 399.847 276.006 397.976Z" fill="#E8E7EC"/>
<path d="M283.926 384.194C284.992 382.323 284.34 379.941 282.468 378.875C280.597 377.809 278.216 378.461 277.149 380.332C276.083 382.204 276.735 384.585 278.607 385.652C280.478 386.718 282.859 386.066 283.926 384.194Z" fill="#E8E7EC"/>
<path d="M291.709 370.45C292.776 368.579 292.123 366.197 290.252 365.131C288.381 364.065 285.999 364.717 284.933 366.588C283.866 368.46 284.519 370.841 286.39 371.908C288.261 372.974 290.643 372.322 291.709 370.45Z" fill="#E8E7EC"/>
<path d="M299.493 356.706C300.559 354.835 299.907 352.453 298.035 351.387C296.164 350.321 293.783 350.973 292.716 352.844C291.65 354.716 292.302 357.097 294.174 358.164C296.045 359.23 298.426 358.578 299.493 356.706Z" fill="#E8E7EC"/>
<path d="M248.468 464.236C249.534 462.364 248.881 459.983 247.01 458.916C245.139 457.85 242.757 458.503 241.691 460.374C240.624 462.245 241.277 464.627 243.148 465.693C245.02 466.759 247.401 466.107 248.468 464.236Z" fill="#E8E7EC"/>
<path d="M256.338 450.541C257.404 448.67 256.752 446.288 254.88 445.222C253.009 444.156 250.628 444.808 249.561 446.679C248.495 448.551 249.147 450.932 251.019 451.999C252.89 453.065 255.272 452.412 256.338 450.541Z" fill="#E8E7EC"/>
<path d="M264.171 436.71C265.237 434.839 264.585 432.458 262.713 431.391C260.842 430.325 258.461 430.977 257.394 432.849C256.328 434.72 256.98 437.101 258.852 438.168C260.723 439.234 263.105 438.582 264.171 436.71Z" fill="#E8E7EC"/>
<path d="M272.041 423.016C273.108 421.144 272.455 418.763 270.584 417.697C268.713 416.63 266.331 417.283 265.265 419.154C264.198 421.025 264.851 423.407 266.722 424.473C268.593 425.54 270.975 424.887 272.041 423.016Z" fill="#E8E7EC"/>
<path d="M279.825 409.272C280.891 407.4 280.239 405.019 278.368 403.953C276.496 402.886 274.115 403.539 273.048 405.41C271.982 407.281 272.634 409.663 274.506 410.729C276.377 411.796 278.759 411.143 279.825 409.272Z" fill="#E8E7EC"/>
<path d="M287.658 395.441C288.724 393.57 288.072 391.188 286.201 390.122C284.329 389.055 281.948 389.708 280.881 391.579C279.815 393.45 280.467 395.832 282.339 396.898C284.21 397.965 286.592 397.312 287.658 395.441Z" fill="#E8E7EC"/>
<path d="M295.528 381.746C296.595 379.875 295.942 377.494 294.071 376.427C292.2 375.361 289.818 376.013 288.752 377.885C287.685 379.756 288.338 382.137 290.209 383.204C292.08 384.27 294.462 383.618 295.528 381.746Z" fill="#E8E7EC"/>
<path d="M303.312 368.002C304.378 366.131 303.726 363.75 301.854 362.683C299.983 361.617 297.602 362.269 296.535 364.141C295.469 366.012 296.121 368.393 297.993 369.46C299.864 370.526 302.246 369.874 303.312 368.002Z" fill="#E8E7EC"/>
<path d="M311.232 354.221C312.298 352.35 311.646 349.968 309.774 348.902C307.903 347.835 305.521 348.488 304.455 350.359C303.389 352.231 304.041 354.612 305.912 355.678C307.784 356.745 310.165 356.092 311.232 354.221Z" fill="#E8E7EC"/>
<path d="M260.958 462.221C262.025 460.35 261.372 457.969 259.501 456.902C257.63 455.836 255.248 456.488 254.182 458.36C253.115 460.231 253.768 462.612 255.639 463.679C257.51 464.745 259.892 464.093 260.958 462.221Z" fill="#E8E7EC"/>
<path d="M268.829 448.527C269.895 446.656 269.243 444.274 267.371 443.208C265.5 442.141 263.118 442.794 262.052 444.665C260.986 446.536 261.638 448.918 263.509 449.984C265.381 451.051 267.762 450.398 268.829 448.527Z" fill="#E8E7EC"/>
<path d="M276.612 434.783C277.679 432.911 277.026 430.53 275.155 429.464C273.283 428.397 270.902 429.05 269.836 430.921C268.769 432.792 269.422 435.174 271.293 436.24C273.164 437.307 275.546 436.654 276.612 434.783Z" fill="#E8E7EC"/>
<path d="M284.532 421.001C285.599 419.13 284.946 416.749 283.075 415.682C281.203 414.616 278.822 415.268 277.755 417.14C276.689 419.011 277.342 421.392 279.213 422.459C281.084 423.525 283.466 422.873 284.532 421.001Z" fill="#E8E7EC"/>
<path d="M292.316 407.257C293.382 405.386 292.73 403.005 290.858 401.938C288.987 400.872 286.605 401.524 285.539 403.396C284.473 405.267 285.125 407.648 286.996 408.715C288.868 409.781 291.249 409.129 292.316 407.257Z" fill="#E8E7EC"/>
<path d="M300.149 393.427C301.215 391.555 300.563 389.174 298.691 388.107C296.82 387.041 294.438 387.693 293.372 389.565C292.306 391.436 292.958 393.818 294.829 394.884C296.701 395.95 299.082 395.298 300.149 393.427Z" fill="#E8E7EC"/>
<path d="M308.019 379.732C309.086 377.861 308.433 375.479 306.562 374.413C304.69 373.347 302.309 373.999 301.243 375.87C300.176 377.742 300.829 380.123 302.7 381.19C304.571 382.256 306.953 381.603 308.019 379.732Z" fill="#E8E7EC"/>
<path d="M315.803 365.988C316.869 364.117 316.217 361.735 314.345 360.669C312.474 359.602 310.093 360.255 309.026 362.126C307.96 363.998 308.612 366.379 310.484 367.446C312.355 368.512 314.736 367.859 315.803 365.988Z" fill="#E8E7EC"/>
<path d="M264.777 473.517C265.844 471.646 265.191 469.265 263.32 468.198C261.449 467.132 259.067 467.784 258.001 469.656C256.934 471.527 257.587 473.908 259.458 474.975C261.329 476.041 263.711 475.389 264.777 473.517Z" fill="#E8E7EC"/>
<path d="M272.648 459.823C273.714 457.952 273.062 455.57 271.19 454.504C269.319 453.437 266.937 454.09 265.871 455.961C264.805 457.833 265.457 460.214 267.329 461.28C269.2 462.347 271.581 461.694 272.648 459.823Z" fill="#E8E7EC"/>
<path d="M280.431 446.079C281.498 444.208 280.845 441.826 278.974 440.76C277.102 439.693 274.721 440.346 273.655 442.217C272.588 444.089 273.241 446.47 275.112 447.536C276.983 448.603 279.365 447.95 280.431 446.079Z" fill="#E8E7EC"/>
<path d="M288.264 432.248C289.331 430.377 288.678 427.995 286.807 426.929C284.936 425.862 282.554 426.515 281.488 428.386C280.421 430.258 281.074 432.639 282.945 433.706C284.816 434.772 287.198 434.119 288.264 432.248Z" fill="#E8E7EC"/>
<path d="M296.135 418.554C297.201 416.682 296.549 414.301 294.677 413.234C292.806 412.168 290.425 412.821 289.358 414.692C288.292 416.563 288.944 418.945 290.816 420.011C292.687 421.077 295.068 420.425 296.135 418.554Z" fill="#E8E7EC"/>
<path d="M303.968 404.723C305.034 402.851 304.382 400.47 302.51 399.404C300.639 398.337 298.258 398.99 297.191 400.861C296.125 402.732 296.777 405.114 298.649 406.18C300.52 407.247 302.901 406.594 303.968 404.723Z" fill="#E8E7EC"/>
<path d="M311.838 391.028C312.905 389.157 312.252 386.775 310.381 385.709C308.509 384.643 306.128 385.295 305.062 387.166C303.995 389.038 304.648 391.419 306.519 392.486C308.39 393.552 310.772 392.9 311.838 391.028Z" fill="#E8E7EC"/>
<path d="M319.622 377.284C320.688 375.413 320.036 373.031 318.164 371.965C316.293 370.899 313.911 371.551 312.845 373.422C311.779 375.294 312.431 377.675 314.302 378.742C316.174 379.808 318.555 379.156 319.622 377.284Z" fill="#E8E7EC"/>
<path d="M327.542 363.503C328.608 361.631 327.956 359.25 326.084 358.184C324.213 357.117 321.831 357.77 320.765 359.641C319.699 361.512 320.351 363.894 322.222 364.96C324.094 366.027 326.475 365.374 327.542 363.503Z" fill="#E8E7EC"/>
<path d="M277.219 471.59C278.285 469.719 277.633 467.337 275.761 466.271C273.89 465.204 271.508 465.857 270.442 467.728C269.376 469.6 270.028 471.981 271.899 473.047C273.771 474.114 276.152 473.461 277.219 471.59Z" fill="#E8E7EC"/>
<path d="M285.139 457.809C286.205 455.937 285.552 453.556 283.681 452.489C281.81 451.423 279.428 452.076 278.362 453.947C277.296 455.818 277.948 458.2 279.819 459.266C281.691 460.332 284.072 459.68 285.139 457.809Z" fill="#E8E7EC"/>
<path d="M292.922 444.065C293.989 442.193 293.336 439.812 291.465 438.745C289.593 437.679 287.212 438.332 286.145 440.203C285.079 442.074 285.732 444.456 287.603 445.522C289.474 446.589 291.856 445.936 292.922 444.065Z" fill="#E8E7EC"/>
<path d="M300.755 430.234C301.821 428.363 301.169 425.981 299.298 424.915C297.426 423.848 295.045 424.501 293.978 426.372C292.912 428.243 293.564 430.625 295.436 431.691C297.307 432.758 299.689 432.105 300.755 430.234Z" fill="#E8E7EC"/>
<path d="M308.625 416.539C309.692 414.668 309.039 412.287 307.168 411.22C305.297 410.154 302.915 410.806 301.849 412.678C300.782 414.549 301.435 416.93 303.306 417.997C305.178 419.063 307.559 418.411 308.625 416.539Z" fill="#E8E7EC"/>
<path d="M316.409 402.795C317.475 400.924 316.823 398.542 314.952 397.476C313.08 396.41 310.699 397.062 309.632 398.934C308.566 400.805 309.218 403.186 311.09 404.253C312.961 405.319 315.343 404.667 316.409 402.795Z" fill="#E8E7EC"/>
<path d="M324.329 389.014C325.395 387.143 324.743 384.761 322.871 383.695C321 382.628 318.619 383.281 317.552 385.152C316.486 387.023 317.138 389.405 319.01 390.471C320.881 391.538 323.262 390.885 324.329 389.014Z" fill="#E8E7EC"/>
<path d="M332.112 375.27C333.179 373.399 332.526 371.017 330.655 369.951C328.784 368.884 326.402 369.537 325.336 371.408C324.269 373.279 324.922 375.661 326.793 376.727C328.665 377.794 331.046 377.141 332.112 375.27Z" fill="#E8E7EC"/>
<path d="M281.038 482.886C282.104 481.015 281.451 478.633 279.58 477.567C277.709 476.501 275.327 477.153 274.261 479.024C273.195 480.896 273.847 483.277 275.718 484.344C277.59 485.41 279.971 484.758 281.038 482.886Z" fill="#E8E7EC"/>
<path d="M288.871 469.055C289.937 467.184 289.285 464.802 287.413 463.736C285.542 462.67 283.16 463.322 282.094 465.194C281.028 467.065 281.68 469.446 283.551 470.513C285.423 471.579 287.804 470.927 288.871 469.055Z" fill="#E8E7EC"/>
<path d="M296.741 455.361C297.807 453.489 297.155 451.108 295.284 450.042C293.412 448.975 291.031 449.628 289.964 451.499C288.898 453.37 289.551 455.752 291.422 456.818C293.293 457.885 295.675 457.232 296.741 455.361Z" fill="#E8E7EC"/>
<path d="M304.574 441.53C305.641 439.659 304.988 437.277 303.117 436.211C301.245 435.144 298.864 435.797 297.798 437.668C296.731 439.539 297.384 441.921 299.255 442.987C301.126 444.054 303.508 443.401 304.574 441.53Z" fill="#E8E7EC"/>
<path d="M312.445 427.835C313.511 425.964 312.858 423.583 310.987 422.516C309.116 421.45 306.734 422.102 305.668 423.974C304.602 425.845 305.254 428.226 307.125 429.293C308.997 430.359 311.378 429.707 312.445 427.835Z" fill="#E8E7EC"/>
<path d="M320.228 414.091C321.294 412.22 320.642 409.839 318.771 408.772C316.899 407.706 314.518 408.358 313.451 410.23C312.385 412.101 313.038 414.482 314.909 415.549C316.78 416.615 319.162 415.963 320.228 414.091Z" fill="#E8E7EC"/>
<path d="M328.148 400.31C329.214 398.439 328.562 396.057 326.691 394.991C324.819 393.924 322.438 394.577 321.371 396.448C320.305 398.32 320.957 400.701 322.829 401.767C324.7 402.834 327.082 402.181 328.148 400.31Z" fill="#E8E7EC"/>
<path d="M335.931 386.566C336.998 384.695 336.345 382.313 334.474 381.247C332.603 380.18 330.221 380.833 329.155 382.704C328.088 384.576 328.741 386.957 330.612 388.023C332.484 389.09 334.865 388.437 335.931 386.566Z" fill="#E8E7EC"/>
<path d="M343.765 372.735C344.831 370.864 344.178 368.482 342.307 367.416C340.436 366.35 338.054 367.002 336.988 368.873C335.922 370.745 336.574 373.126 338.445 374.193C340.317 375.259 342.698 374.606 343.765 372.735Z" fill="#E8E7EC"/>
<path d="M293.528 480.872C294.595 479.001 293.942 476.619 292.071 475.553C290.2 474.486 287.818 475.139 286.752 477.01C285.685 478.881 286.338 481.263 288.209 482.329C290.08 483.396 292.462 482.743 293.528 480.872Z" fill="#E8E7EC"/>
<path d="M301.361 467.041C302.428 465.17 301.775 462.788 299.904 461.722C298.033 460.655 295.651 461.308 294.585 463.179C293.518 465.051 294.171 467.432 296.042 468.498C297.914 469.565 300.295 468.912 301.361 467.041Z" fill="#E8E7EC"/>
<path d="M309.232 453.347C310.298 451.475 309.646 449.094 307.774 448.027C305.903 446.961 303.522 447.613 302.455 449.485C301.389 451.356 302.041 453.738 303.913 454.804C305.784 455.87 308.165 455.218 309.232 453.347Z" fill="#E8E7EC"/>
<path d="M317.015 439.602C318.082 437.731 317.429 435.35 315.558 434.283C313.687 433.217 311.305 433.869 310.239 435.741C309.172 437.612 309.825 439.994 311.696 441.06C313.567 442.126 315.949 441.474 317.015 439.602Z" fill="#E8E7EC"/>
<path d="M324.935 425.821C326.002 423.95 325.349 421.568 323.478 420.502C321.607 419.435 319.225 420.088 318.159 421.959C317.092 423.831 317.745 426.212 319.616 427.279C321.487 428.345 323.869 427.692 324.935 425.821Z" fill="#E8E7EC"/>
<path d="M332.719 412.077C333.785 410.206 333.133 407.824 331.261 406.758C329.39 405.691 327.009 406.344 325.942 408.215C324.876 410.087 325.528 412.468 327.4 413.535C329.271 414.601 331.652 413.948 332.719 412.077Z" fill="#E8E7EC"/>
<path d="M340.639 398.296C341.705 396.424 341.053 394.043 339.181 392.977C337.31 391.91 334.928 392.563 333.862 394.434C332.796 396.305 333.448 398.687 335.319 399.753C337.191 400.82 339.572 400.167 340.639 398.296Z" fill="#E8E7EC"/>
<path d="M348.422 384.552C349.489 382.68 348.836 380.299 346.965 379.232C345.094 378.166 342.712 378.819 341.646 380.69C340.579 382.561 341.232 384.943 343.103 386.009C344.974 387.075 347.356 386.423 348.422 384.552Z" fill="#E8E7EC"/>
<path d="M297.347 492.168C298.414 490.297 297.761 487.915 295.89 486.849C294.019 485.782 291.637 486.435 290.571 488.306C289.504 490.177 290.157 492.559 292.028 493.625C293.9 494.692 296.281 494.039 297.347 492.168Z" fill="#E8E7EC"/>
<path d="M305.18 478.337C306.247 476.466 305.594 474.084 303.723 473.018C301.852 471.952 299.47 472.604 298.404 474.475C297.337 476.347 297.99 478.728 299.861 479.795C301.733 480.861 304.114 480.208 305.18 478.337Z" fill="#E8E7EC"/>
<path d="M313.051 464.643C314.117 462.771 313.465 460.39 311.593 459.324C309.722 458.257 307.341 458.91 306.274 460.781C305.208 462.652 305.86 465.034 307.732 466.1C309.603 467.167 311.984 466.514 313.051 464.643Z" fill="#E8E7EC"/>
<path d="M320.884 450.812C321.95 448.94 321.298 446.559 319.426 445.493C317.555 444.426 315.174 445.079 314.107 446.95C313.041 448.821 313.693 451.203 315.565 452.269C317.436 453.336 319.818 452.683 320.884 450.812Z" fill="#E8E7EC"/>
<path d="M328.667 437.068C329.734 435.196 329.081 432.815 327.21 431.748C325.339 430.682 322.957 431.335 321.891 433.206C320.824 435.077 321.477 437.459 323.348 438.525C325.22 439.592 327.601 438.939 328.667 437.068Z" fill="#E8E7EC"/>
<path d="M336.538 423.373C337.604 421.502 336.952 419.12 335.08 418.054C333.209 416.988 330.828 417.64 329.761 419.511C328.695 421.383 329.347 423.764 331.219 424.831C333.09 425.897 335.471 425.244 336.538 423.373Z" fill="#E8E7EC"/>
<path d="M344.371 409.542C345.437 407.671 344.785 405.29 342.913 404.223C341.042 403.157 338.661 403.809 337.594 405.681C336.528 407.552 337.18 409.933 339.052 411C340.923 412.066 343.304 411.414 344.371 409.542Z" fill="#E8E7EC"/>
<path d="M352.241 395.848C353.308 393.977 352.655 391.595 350.784 390.529C348.912 389.462 346.531 390.115 345.465 391.986C344.398 393.857 345.051 396.239 346.922 397.305C348.793 398.372 351.175 397.719 352.241 395.848Z" fill="#E8E7EC"/>
<path d="M360.074 382.017C361.141 380.146 360.488 377.764 358.617 376.698C356.746 375.631 354.364 376.284 353.298 378.155C352.231 380.027 352.884 382.408 354.755 383.474C356.626 384.541 359.008 383.888 360.074 382.017Z" fill="#E8E7EC"/>
<path d="M309.838 490.154C310.905 488.282 310.252 485.901 308.381 484.834C306.509 483.768 304.128 484.421 303.062 486.292C301.995 488.163 302.648 490.545 304.519 491.611C306.39 492.678 308.772 492.025 309.838 490.154Z" fill="#E8E7EC"/>
<path d="M317.671 476.323C318.738 474.451 318.085 472.07 316.214 471.004C314.342 469.937 311.961 470.59 310.895 472.461C309.828 474.332 310.481 476.714 312.352 477.78C314.223 478.847 316.605 478.194 317.671 476.323Z" fill="#E8E7EC"/>
<path d="M325.542 462.628C326.608 460.757 325.956 458.376 324.084 457.309C322.213 456.243 319.831 456.895 318.765 458.767C317.699 460.638 318.351 463.019 320.222 464.086C322.094 465.152 324.475 464.5 325.542 462.628Z" fill="#E8E7EC"/>
<path d="M333.325 448.884C334.392 447.013 333.739 444.631 331.868 443.565C329.996 442.499 327.615 443.151 326.549 445.022C325.482 446.894 326.135 449.275 328.006 450.342C329.877 451.408 332.259 450.756 333.325 448.884Z" fill="#E8E7EC"/>
<path d="M341.158 435.053C342.225 433.182 341.572 430.801 339.701 429.734C337.829 428.668 335.448 429.32 334.382 431.192C333.315 433.063 333.968 435.444 335.839 436.511C337.71 437.577 340.092 436.925 341.158 435.053Z" fill="#E8E7EC"/>
<path d="M349.029 421.359C350.095 419.488 349.442 417.106 347.571 416.04C345.7 414.973 343.318 415.626 342.252 417.497C341.186 419.369 341.838 421.75 343.709 422.816C345.581 423.883 347.962 423.23 349.029 421.359Z" fill="#E8E7EC"/>
<path d="M356.862 407.528C357.928 405.657 357.276 403.275 355.404 402.209C353.533 401.142 351.151 401.795 350.085 403.666C349.019 405.538 349.671 407.919 351.542 408.986C353.414 410.052 355.795 409.399 356.862 407.528Z" fill="#E8E7EC"/>
<path d="M364.732 393.833C365.798 391.962 365.146 389.581 363.275 388.514C361.403 387.448 359.022 388.1 357.955 389.972C356.889 391.843 357.542 394.224 359.413 395.291C361.284 396.357 363.666 395.705 364.732 393.833Z" fill="#E8E7EC"/>
<path d="M313.657 501.45C314.724 499.578 314.071 497.197 312.2 496.131C310.328 495.064 307.947 495.717 306.881 497.588C305.814 499.459 306.467 501.841 308.338 502.907C310.209 503.974 312.591 503.321 313.657 501.45Z" fill="#E8E7EC"/>
<path d="M321.49 487.619C322.557 485.748 321.904 483.366 320.033 482.3C318.162 481.233 315.78 481.886 314.714 483.757C313.647 485.629 314.3 488.01 316.171 489.076C318.042 490.143 320.424 489.49 321.49 487.619Z" fill="#E8E7EC"/>
<path d="M329.274 473.875C330.34 472.004 329.688 469.622 327.816 468.556C325.945 467.489 323.563 468.142 322.497 470.013C321.431 471.885 322.083 474.266 323.954 475.332C325.826 476.399 328.207 475.746 329.274 473.875Z" fill="#E8E7EC"/>
<path d="M337.144 460.18C338.211 458.309 337.558 455.928 335.687 454.861C333.815 453.795 331.434 454.447 330.368 456.319C329.301 458.19 329.954 460.571 331.825 461.638C333.696 462.704 336.078 462.052 337.144 460.18Z" fill="#E8E7EC"/>
<path d="M344.977 446.35C346.044 444.478 345.391 442.097 343.52 441.03C341.648 439.964 339.267 440.616 338.201 442.488C337.134 444.359 337.787 446.741 339.658 447.807C341.529 448.873 343.911 448.221 344.977 446.35Z" fill="#E8E7EC"/>
<path d="M352.848 432.655C353.914 430.784 353.262 428.402 351.39 427.336C349.519 426.269 347.137 426.922 346.071 428.793C345.005 430.665 345.657 433.046 347.528 434.112C349.4 435.179 351.781 434.526 352.848 432.655Z" fill="#E8E7EC"/>
<path d="M360.681 418.824C361.747 416.953 361.095 414.571 359.223 413.505C357.352 412.439 354.97 413.091 353.904 414.962C352.838 416.834 353.49 419.215 355.361 420.282C357.233 421.348 359.614 420.695 360.681 418.824Z" fill="#E8E7EC"/>
<path d="M368.551 405.13C369.617 403.258 368.965 400.877 367.094 399.81C365.222 398.744 362.841 399.397 361.774 401.268C360.708 403.139 361.361 405.521 363.232 406.587C365.103 407.653 367.485 407.001 368.551 405.13Z" fill="#E8E7EC"/>
<path d="M376.335 391.386C377.401 389.514 376.748 387.133 374.877 386.066C373.006 385 370.624 385.653 369.558 387.524C368.492 389.395 369.144 391.777 371.015 392.843C372.887 393.909 375.268 393.257 376.335 391.386Z" fill="#E8E7EC"/>
<path d="M326.148 499.436C327.214 497.564 326.562 495.183 324.691 494.116C322.819 493.05 320.438 493.702 319.371 495.574C318.305 497.445 318.957 499.827 320.829 500.893C322.7 501.959 325.082 501.307 326.148 499.436Z" fill="#E8E7EC"/>
<path d="M333.932 485.692C334.998 483.82 334.345 481.439 332.474 480.372C330.603 479.306 328.221 479.959 327.155 481.83C326.088 483.701 326.741 486.083 328.612 487.149C330.484 488.215 332.865 487.563 333.932 485.692Z" fill="#E8E7EC"/>
<path d="M341.765 471.861C342.831 469.989 342.178 467.608 340.307 466.541C338.436 465.475 336.054 466.127 334.988 467.999C333.922 469.87 334.574 472.252 336.445 473.318C338.317 474.384 340.698 473.732 341.765 471.861Z" fill="#E8E7EC"/>
<path d="M349.635 458.166C350.701 456.295 350.049 453.913 348.177 452.847C346.306 451.78 343.925 452.433 342.858 454.304C341.792 456.176 342.444 458.557 344.316 459.623C346.187 460.69 348.569 460.037 349.635 458.166Z" fill="#E8E7EC"/>
<path d="M357.468 444.335C358.534 442.464 357.882 440.082 356.011 439.016C354.139 437.95 351.758 438.602 350.691 440.474C349.625 442.345 350.277 444.726 352.149 445.793C354.02 446.859 356.402 446.207 357.468 444.335Z" fill="#E8E7EC"/>
<path d="M365.338 430.641C366.405 428.769 365.752 426.388 363.881 425.322C362.01 424.255 359.628 424.908 358.562 426.779C357.495 428.65 358.148 431.032 360.019 432.098C361.891 433.165 364.272 432.512 365.338 430.641Z" fill="#E8E7EC"/>
<path d="M373.122 416.897C374.188 415.025 373.536 412.644 371.665 411.578C369.793 410.511 367.412 411.164 366.345 413.035C365.279 414.906 365.931 417.288 367.803 418.354C369.674 419.421 372.056 418.768 373.122 416.897Z" fill="#E8E7EC"/>
<path d="M381.042 403.115C382.108 401.244 381.456 398.863 379.584 397.796C377.713 396.73 375.332 397.382 374.265 399.254C373.199 401.125 373.851 403.506 375.723 404.573C377.594 405.639 379.975 404.987 381.042 403.115Z" fill="#E8E7EC"/>
<path d="M329.88 510.682C330.947 508.811 330.294 506.429 328.423 505.363C326.551 504.297 324.17 504.949 323.103 506.82C322.037 508.692 322.69 511.073 324.561 512.14C326.432 513.206 328.814 512.553 329.88 510.682Z" fill="#E8E7EC"/>
<path d="M337.8 496.901C338.866 495.029 338.214 492.648 336.343 491.582C334.471 490.515 332.09 491.168 331.023 493.039C329.957 494.91 330.61 497.292 332.481 498.358C334.352 499.425 336.734 498.772 337.8 496.901Z" fill="#E8E7EC"/>
<path d="M345.584 483.157C346.65 481.285 345.998 478.904 344.126 477.838C342.255 476.771 339.873 477.424 338.807 479.295C337.741 481.166 338.393 483.548 340.264 484.614C342.136 485.681 344.517 485.028 345.584 483.157Z" fill="#E8E7EC"/>
<path d="M353.454 469.462C354.52 467.591 353.868 465.209 351.997 464.143C350.125 463.077 347.744 463.729 346.677 465.601C345.611 467.472 346.263 469.853 348.135 470.92C350.006 471.986 352.388 471.334 353.454 469.462Z" fill="#E8E7EC"/>
<path d="M361.287 455.631C362.353 453.76 361.701 451.379 359.83 450.312C357.958 449.246 355.577 449.898 354.51 451.77C353.444 453.641 354.096 456.022 355.968 457.089C357.839 458.155 360.221 457.503 361.287 455.631Z" fill="#E8E7EC"/>
<path d="M369.157 441.937C370.224 440.066 369.571 437.684 367.7 436.618C365.829 435.551 363.447 436.204 362.381 438.075C361.314 439.946 361.967 442.328 363.838 443.394C365.71 444.461 368.091 443.808 369.157 441.937Z" fill="#E8E7EC"/>
<path d="M376.991 428.106C378.057 426.235 377.404 423.853 375.533 422.787C373.662 421.72 371.28 422.373 370.214 424.244C369.147 426.116 369.8 428.497 371.671 429.563C373.543 430.63 375.924 429.977 376.991 428.106Z" fill="#E8E7EC"/>
<path d="M384.774 414.362C385.84 412.491 385.188 410.109 383.317 409.043C381.445 407.976 379.064 408.629 377.997 410.5C376.931 412.371 377.583 414.753 379.455 415.819C381.326 416.886 383.708 416.233 384.774 414.362Z" fill="#E8E7EC"/>
<path d="M392.644 400.667C393.711 398.796 393.058 396.415 391.187 395.348C389.316 394.282 386.934 394.934 385.868 396.806C384.801 398.677 385.454 401.058 387.325 402.125C389.197 403.191 391.578 402.539 392.644 400.667Z" fill="#E8E7EC"/>
<path d="M342.371 508.668C343.437 506.797 342.785 504.415 340.913 503.349C339.042 502.282 336.661 502.935 335.594 504.806C334.528 506.677 335.18 509.059 337.052 510.125C338.923 511.192 341.304 510.539 342.371 508.668Z" fill="#E8E7EC"/>
<path d="M350.241 494.973C351.308 493.102 350.655 490.721 348.784 489.654C346.913 488.588 344.531 489.24 343.465 491.112C342.398 492.983 343.051 495.364 344.922 496.431C346.793 497.497 349.175 496.845 350.241 494.973Z" fill="#E8E7EC"/>
<path d="M358.074 481.142C359.141 479.271 358.488 476.89 356.617 475.823C354.746 474.757 352.364 475.409 351.298 477.281C350.231 479.152 350.884 481.534 352.755 482.6C354.626 483.666 357.008 483.014 358.074 481.142Z" fill="#E8E7EC"/>
<path d="M365.945 467.448C367.011 465.577 366.359 463.195 364.487 462.129C362.616 461.062 360.235 461.715 359.168 463.586C358.102 465.457 358.754 467.839 360.626 468.905C362.497 469.972 364.878 469.319 365.945 467.448Z" fill="#E8E7EC"/>
<path d="M373.778 453.617C374.844 451.746 374.192 449.364 372.32 448.298C370.449 447.231 368.067 447.884 367.001 449.755C365.935 451.627 366.587 454.008 368.459 455.075C370.33 456.141 372.711 455.488 373.778 453.617Z" fill="#E8E7EC"/>
<path d="M381.648 439.923C382.715 438.051 382.062 435.67 380.191 434.603C378.319 433.537 375.938 434.189 374.872 436.061C373.805 437.932 374.458 440.314 376.329 441.38C378.2 442.446 380.582 441.794 381.648 439.923Z" fill="#E8E7EC"/>
<path d="M389.432 426.179C390.498 424.307 389.846 421.926 387.974 420.859C386.103 419.793 383.721 420.445 382.655 422.317C381.589 424.188 382.241 426.57 384.112 427.636C385.984 428.702 388.365 428.05 389.432 426.179Z" fill="#E8E7EC"/>
<path d="M397.265 412.348C398.331 410.476 397.679 408.095 395.807 407.028C393.936 405.962 391.555 406.614 390.488 408.486C389.422 410.357 390.074 412.739 391.946 413.805C393.817 414.871 396.198 414.219 397.265 412.348Z" fill="#E8E7EC"/>
<path d="M109.738 32.2C94.3384 37.9 78.9384 43.7 63.4384 49.4C61.3384 50.2 59.2384 51 57.6384 52.4C48.8384 60.3 61.6384 76.6 55.0384 86.5C53.4384 88.9 50.9384 90.5 49.7384 93.1C47.9384 97 49.9384 101.6 51.8384 105.4C54.2384 110.3 56.7384 115.2 59.1384 120C64.4384 130.5 71.6384 142.5 83.3384 143.6C83.4384 151.8 83.6384 160.1 83.7384 168.3C83.7384 170.5 83.8384 172.9 82.8384 174.9C81.4384 177.7 78.5384 179.3 75.7384 180.7C59.7384 189 44.0384 199.2 33.9384 214.1C15.0384 241.8 19.2384 279.1 7.43836 310.5C4.93836 317.1 1.73836 323.6 1.23836 330.7C0.73836 337.8 3.93836 345.7 10.6384 348C13.1384 343.9 16.5384 340 21.1384 338.4C25.7384 336.8 31.5384 338.1 33.9384 342.3C35.4384 344.9 35.4384 348.1 35.3384 351.1C34.3384 396.9 33.3384 442.7 32.3384 488.5C27.9384 490.5 24.6384 494.6 23.4384 499.2C33.6384 501.6 44.8384 499 52.9384 492.4C47.2384 488.5 48.6384 479.7 51.1384 473.2C65.3384 436 92.0384 403.7 125.838 382.8C128.138 381.4 130.638 380 133.338 380.3C135.838 380.6 137.838 382.2 139.738 383.8C172.638 412.5 192.238 455.9 192.038 499.5C199.938 501.8 208.738 500.6 215.738 496.2C209.738 493.6 208.238 486 207.538 479.6C199.838 407.6 196.938 335 199.038 262.6C209.338 261.6 213.838 248.8 213.738 238.5C213.638 224.4 209.338 210.5 201.538 198.7C199.138 195 196.338 191.6 194.338 187.7C188.638 176.9 188.638 164.2 188.938 152C184.538 152.6 181.638 158.2 183.738 162.1C179.038 161.9 174.238 162.5 169.738 163.8C169.638 170.4 169.638 177.1 169.538 183.7C160.738 185.1 152.038 181 143.938 177.1C131.738 171.1 117.538 161.5 119.738 148.1C125.938 147.5 129.638 140.8 130.438 134.6C131.338 128.5 130.538 122 132.838 116.2C135.238 110.2 140.638 106 144.138 100.6C147.638 95.2 148.438 86.7 142.838 83.3C143.938 69.9 143.038 56.3 140.138 43.2C138.438 35.6 133.338 26.4 125.738 28.1" fill="white"/>
<path d="M384.938 274.4C385.038 292.3 385.138 310.2 383.038 327.9C381.738 339.1 379.438 350.2 376.838 361.2C368.038 358.8 358.638 356 352.938 348.9C349.238 344.3 347.538 338.4 346.538 332.6C345.638 327.4 345.238 322 344.738 316.7C343.938 306.6 343.138 296.6 342.338 286.5C344.938 286.3 347.438 286.1 350.038 286C355.838 285.6 362.138 284.9 365.838 279.7C366.938 278.1 367.538 276.1 368.738 274.6C370.138 272.8 372.138 272.9 374.238 273C375.138 273.2 384.938 273.9 384.938 274.4Z" fill="#F55848"/>
<path d="M337.838 205.5C334.938 205.9 332.138 206.9 329.738 208.4C335.538 219.6 337.038 232.4 340.338 244.6C342.338 251.9 345.038 259.2 344.838 266.8C346.538 266.5 348.238 266.2 349.838 265.9C348.538 258 347.238 250 345.938 242.1" fill="#F55848"/>
<path d="M481.538 217.7C475.938 216.9 470.138 217.4 464.738 219.1C465.038 275.2 465.238 331.4 465.538 387.5C474.338 387.2 483.138 386.9 491.938 386.6C489.638 342 487.238 297.5 484.938 252.9" fill="#E8E7EC"/>
<path d="M40.7383 184.2C37.7383 185.3 34.5383 186.4 32.3383 188.6C29.8383 191 28.7383 194.5 27.6383 197.8C22.5383 214 17.6383 230.3 13.2383 246.7C6.23833 272 0.038331 298.3 3.03833 324.5C9.33833 324.8 15.7383 325 22.0383 325.3C22.1383 328.8 22.1383 332.2 22.2383 335.7C77.0383 334.9 131.738 334.1 186.538 333.3C187.538 333.3 188.638 333.2 189.338 332.4C189.838 331.8 189.838 330.9 189.838 330.2C189.838 306.9 189.838 283.7 189.938 260.4C194.538 262.1 200.038 260.9 203.938 257.9C207.938 254.9 210.638 250.5 212.238 245.8C216.238 234.6 214.638 221.6 208.038 211.8C202.938 204.2 194.938 198 192.938 189.1C187.038 191.1 180.738 192.1 174.438 192.1C173.238 192.1 171.838 192 170.938 191.2C169.838 190.3 169.738 188.7 169.338 187.3C167.238 178 156.038 174.2 146.538 173.5C128.538 172.1 110.538 175.8 92.5383 174.5C83.2383 173.8 77.5383 171.3 68.5383 174.4C59.3383 177.7 49.9383 180.9 40.7383 184.2Z" fill="#E8E7EC"/>
<path d="M313.738 82.7C313.738 82.7 331.138 98.3 332.538 130.8C333.938 139.9 332.538 138.6 332.538 138.6C332.538 138.6 340.538 134.5 340.838 140C341.138 145.4 337.838 150 333.538 151.7C330.938 153.6 330.938 153.6 330.938 153.6C330.938 153.6 329.038 161.4 325.638 168.3C322.238 175.2 309.838 186.4 309.838 186.4L313.838 199.3C313.838 199.3 329.138 200.5 335.038 202.1C340.938 203.6 367.038 189.9 363.638 184C360.238 178.1 357.738 171.1 357.738 171.1C357.738 171.1 349.038 132.7 347.638 116.5C346.138 100.3 333.938 61.4 307.238 63.5C285.738 45.5 263.138 61.4 255.538 70.4C247.938 79.4 234.138 97.9 229.738 112.7C225.338 127.5 225.238 150.7 224.938 162.2C224.538 173.6 228.338 184.8 222.738 188.4C217.138 192 219.438 196.7 221.338 197.8C224.238 199.4 242.638 204.9 248.238 204.5C256.638 203.9 276.838 203.1 276.838 203.1L275.638 184.5C275.638 184.5 260.238 167.8 258.538 159.5C256.838 151.2 253.238 153.7 253.238 153.7C253.238 153.7 244.538 151.3 244.538 143C244.538 134.7 251.538 140.2 251.538 140.2V135C251.538 135 248.538 107.4 262.738 106.1C276.638 104.9 305.038 95.1 313.738 82.7Z" fill="#F55848"/>
<path d="M152.638 65.4L151.738 87.6C151.738 87.6 163.638 76.3 166.138 56.1C168.638 36 158.938 23.4 158.938 23.4L148.738 18.6V5.3C148.738 5.3 138.038 8.3 117.838 6.8C97.6383 5.3 88.9383 -3 76.1383 18.3C54.2383 29.2 56.5383 62.9 59.6383 71.3C62.7383 79.6 69.1383 87.6 69.1383 87.6L70.3383 63.3L78.5383 52.9L87.8383 32L102.538 43.1L106.138 45.7L98.3383 31.1L119.238 39.3C119.238 39.3 131.438 40.6 138.538 45.6C145.438 50.8 152.638 65.4 152.638 65.4Z" fill="#F55848"/>
<path d="M101.738 74.5C102.638 74.5 103.238 75.2 103.238 76V79.1C103.238 79.9 102.538 80.6 101.738 80.6C100.838 80.6 100.238 79.9 100.238 79.1V76C100.138 75.2 100.838 74.5 101.738 74.5Z" fill="black"/>
<path d="M135.138 75.2C136.038 75.2 136.638 75.9 136.638 76.7V81.2C136.638 82 135.938 82.7 135.138 82.7C134.238 82.7 133.638 82 133.638 81.2V76.7C133.638 75.8 134.238 75.2 135.138 75.2Z" fill="black"/>
<path d="M274.538 130.8C273.538 130.8 272.738 131.6 272.738 132.6V137.9C272.738 138.9 273.538 139.7 274.538 139.7C275.538 139.7 276.338 138.9 276.338 137.9V132.6C276.338 131.6 275.538 130.8 274.538 130.8Z" fill="black"/>
<path d="M314.138 129C313.138 129 312.338 129.8 312.338 130.8V136.1C312.338 137.1 313.138 137.9 314.138 137.9C315.138 137.9 315.938 137.1 315.938 136.1V130.8C315.938 129.8 315.138 129 314.138 129Z" fill="black"/>
<path d="M476.238 139.7C477.338 139.7 478.238 140.5 478.238 141.5L478.338 147.1C478.338 148.1 477.438 149 476.438 149C475.338 149 474.438 148.2 474.438 147.2L474.338 141.6C474.338 140.5 475.138 139.7 476.238 139.7Z" fill="black"/>
<path d="M443.738 138.4C444.838 138.4 445.738 139.2 445.738 140.2L445.838 145.8C445.838 146.8 444.938 147.7 443.938 147.7C442.838 147.7 441.938 146.9 441.938 145.9L441.838 140.3C441.738 139.2 442.638 138.4 443.738 138.4Z" fill="black"/>
<path d="M156.238 248.6C156.238 253.2 149.438 264 140.138 264C132.538 264 123.738 257.3 123.738 248.6C123.738 242.1 123.938 228.3 124.038 224.5H156.238V248.6Z" stroke="#262424" stroke-width="2" stroke-miterlimit="10" stroke-linecap="round" stroke-linejoin="round"/>
<path d="M152.538 67.9C153.038 83.3 152.438 98.7 150.738 114.1C149.938 121.3 148.738 128.7 144.838 134.8C139.638 143 130.038 147.8 120.338 149.3C110.638 150.8 100.638 149.4 91.0383 147.4C86.4383 146.4 81.6383 145.1 78.6383 141.7C76.0383 138.7 75.3383 134.7 74.7383 130.9C71.3383 109.5 69.5383 87.9 69.3383 66.3" stroke="#262424" stroke-width="2" stroke-miterlimit="10" stroke-linecap="round" stroke-linejoin="round"/>
<path d="M150.538 55.8C145.738 46.6 134.338 43.2 124.338 39.9C114.538 36.7 105.038 32.9 95.8383 28.4C97.9383 33.2 101.238 37.6 105.338 41C98.7383 39 92.5383 35.6 87.3383 31.1C88.9383 39.6 85.3383 48.8 78.3383 54.1" stroke="#262424" stroke-width="2" stroke-miterlimit="10" stroke-linecap="round" stroke-linejoin="round"/>
<path d="M78.4383 18.6C77.3383 14.4 80.3383 9.99998 84.3383 7.99998C88.3383 5.99998 92.9383 5.89997 97.4383 5.79997C110.538 5.49997 123.638 5.29998 136.738 4.99998C141.738 4.89998 147.238 4.59998 150.738 1.09998C150.338 5.49998 149.838 9.99997 149.438 14.4C149.338 15.4 149.238 16.4 149.738 17.3C150.338 18.4 151.738 18.9 152.938 19.4C164.538 24.1 169.938 38 168.338 50.1C166.738 62.2 159.538 73 151.838 82.7" stroke="#262424" stroke-width="2" stroke-miterlimit="10" stroke-linecap="round" stroke-linejoin="round"/>
<path d="M77.1383 17.2C72.4383 17.1 68.0383 19.4 64.4383 22.4C53.7383 31.3 49.7383 47.1 54.8383 59.8C56.6383 64.3 59.4383 68.4 62.2383 72.4C65.0383 76.5 67.9383 80.6 70.7383 84.7" stroke="#262424" stroke-width="2" stroke-miterlimit="10" stroke-linecap="round" stroke-linejoin="round"/>
<path d="M153.538 87.2C156.938 87.9 160.338 89.5 162.238 92.4C162.838 93.4 163.238 94.5 163.438 95.6C163.938 98.5 162.838 101.5 161.138 103.9C159.438 106.3 157.138 108.2 154.838 110.1C153.538 111.2 151.338 112.1 150.438 110.7" stroke="#262424" stroke-width="2" stroke-miterlimit="10" stroke-linecap="round" stroke-linejoin="round"/>
<path d="M68.8384 86.9999C65.4384 86.5999 61.1383 86.5999 59.4383 89.4999C58.7383 90.6999 58.7384 92.1999 58.8384 93.4999C59.5384 100.2 63.8383 106.5 69.9383 109.7" stroke="#262424" stroke-width="2" stroke-miterlimit="10" stroke-linecap="round" stroke-linejoin="round"/>
<path d="M85.0383 145.8C84.7383 153.5 84.5383 161.3 84.2383 169C69.9383 173.9 55.6383 179.7 42.9383 187.8C36.8383 191.7 30.8383 196.1 26.7383 202.1C23.0383 207.6 21.1383 214.1 19.3383 220.4C14.8383 236.2 10.3383 252.1 7.8383 268.4C6.9383 274.6 6.23831 280.8 5.63831 287C4.13831 301.6 2.63831 316.1 1.13831 330.7C8.33831 330.6 15.5383 330.5 22.7383 330.4C30.1383 308.1 29.9383 284 35.8383 261.2C36.3383 259.3 37.2383 257.1 39.2383 256.7" stroke="#262424" stroke-width="2" stroke-miterlimit="10" stroke-linecap="round" stroke-linejoin="round"/>
<path d="M121.338 146.8C122.138 151.8 122.838 156.7 123.638 161.7C128.338 163.9 133.138 166.2 137.838 168.4C150.038 174.1 162.138 179.8 174.338 185.6" stroke="#262424" stroke-width="2" stroke-miterlimit="10" stroke-linecap="round" stroke-linejoin="round"/>
<path d="M191.238 261.5C193.538 289 194.838 311 195.938 338.6C137.638 336.6 79.2383 338.3 20.8383 340C20.3383 336.1 20.9383 332.1 22.6383 328.5" stroke="#262424" stroke-width="2" stroke-miterlimit="10" stroke-linecap="round" stroke-linejoin="round"/>
<path d="M170.638 188C168.838 209.8 175.438 231.4 181.938 252.3C182.638 254.5 183.338 256.9 185.038 258.5C187.038 260.5 190.038 261.3 192.838 261.9C197.738 263 203.238 264 207.338 261.3C210.538 259.2 212.038 255.5 213.138 251.9C215.938 242.1 216.138 231.7 213.638 221.8C212.738 217.9 211.338 214.1 208.938 210.9C206.938 208.2 204.338 206.1 202.038 203.7C197.038 198.4 193.738 191.5 192.738 184.2" stroke="#262424" stroke-width="2" stroke-miterlimit="10" stroke-linecap="round" stroke-linejoin="round"/>
<path d="M173.838 190.2C175.338 192.5 178.538 192.9 181.238 193C182.638 193 184.138 193 185.438 192.5C186.738 192 188.038 191 188.438 189.7" stroke="#262424" stroke-width="2" stroke-miterlimit="10" stroke-linecap="round" stroke-linejoin="round"/>
<path d="M112.138 84.4C113.038 88.5 113.738 92.7 114.138 96.9C112.238 96.9 110.338 97 108.438 97" stroke="#262424" stroke-width="2" stroke-miterlimit="10" stroke-linecap="round" stroke-linejoin="round"/>
<path d="M98.4383 115.4C97.0383 118.2 97.9383 121.7 100.038 124.1C102.138 126.5 105.238 127.8 108.338 128.5C110.038 128.9 111.838 129.2 113.538 128.8C115.238 128.4 116.938 127.3 117.438 125.7C118.938 121.6 118.738 116.7 115.338 115.3C114.038 114.8 98.6383 114.9 98.4383 115.4Z" stroke="#262424" stroke-width="2" stroke-miterlimit="10" stroke-linecap="round" stroke-linejoin="round"/>
<path d="M136.638 66.6C132.238 65.7 127.738 65.4 123.238 65.9" stroke="#262424" stroke-width="2" stroke-miterlimit="10" stroke-linecap="round" stroke-linejoin="round"/>
<path d="M103.238 65.3C98.1383 65.1 92.9383 64.9 87.8383 64.8" stroke="#262424" stroke-width="2" stroke-miterlimit="10" stroke-linecap="round" stroke-linejoin="round"/>
<path d="M77.2383 170.2C85.0383 173 93.4383 173.4 101.738 173.7C107.738 174 113.738 174.2 119.638 173.3C125.538 172.4 131.438 170.4 135.938 166.5" stroke="#262424" stroke-width="2" stroke-miterlimit="10" stroke-linecap="round" stroke-linejoin="round"/>
<path d="M182.138 161.6C182.038 159.1 182.138 156.6 183.038 154.2C183.338 153.5 183.638 152.7 184.338 152.3C185.438 151.5 186.938 151.8 188.138 152.3C188.338 152.4 188.538 152.5 188.738 152.7C188.838 152.9 188.838 153.1 188.838 153.3C189.038 156.8 189.038 160.2 188.838 163.7C188.838 163.9 188.838 164.2 188.638 164.4C188.538 164.5 188.438 164.6 188.438 164.7C188.338 164.9 188.438 165.1 188.538 165.2C189.138 166.6 189.638 168 190.238 169.5C190.638 170.5 191.038 171.5 191.238 172.6C191.538 173.9 191.538 175.3 191.438 176.7C191.338 181 191.238 185.6 188.738 189.2" stroke="#262424" stroke-width="2" stroke-miterlimit="10" stroke-linecap="round" stroke-linejoin="round"/>
<path d="M181.238 161.8C177.738 162 174.138 162.1 170.638 162.9C169.538 163.2 168.438 163.5 167.638 164.3C166.838 165.1 166.438 166.4 167.038 167.3C167.638 168.2 168.738 168.4 169.838 168.6C171.138 168.8 172.738 168.9 173.738 168C173.038 168.2 172.338 168.4 171.738 168.6C170.538 169 169.338 169.7 168.638 170.7C167.938 171.7 167.938 173.4 168.938 174.2C169.538 174.7 170.438 174.7 171.238 174.7C169.738 174.9 168.338 175.8 167.838 177.1C167.338 178.4 167.838 180.3 169.138 180.9C169.838 181.2 170.638 181.3 171.338 181.3C172.138 181.3 173.038 181.3 173.538 180.8C172.738 181.2 171.838 181.6 171.238 182.3C170.638 183 170.238 184 170.538 184.9C170.838 185.8 171.938 186.4 172.738 185.9C172.938 186.6 172.738 187.3 172.638 188C172.638 188.7 172.738 189.5 173.438 189.9C173.538 190 173.738 190 173.838 189.9C173.938 189.8 174.038 189.6 173.938 189.5" stroke="#262424" stroke-width="2" stroke-miterlimit="10" stroke-linecap="round" stroke-linejoin="round"/>
<path d="M250.738 122.1C251.538 137.2 254.738 147.2 259.738 161.4C264.738 175.5 275.938 186.3 291.038 187C302.538 187.5 314.038 181.6 320.538 171.8C331.338 155.6 327.038 139.7 327.838 121.3" stroke="#262424" stroke-width="2" stroke-miterlimit="10" stroke-linecap="round" stroke-linejoin="round"/>
<path d="M248.038 114.1C263.638 113 278.538 107.2 293.138 101.4C297.238 99.8 301.538 98.1 304.738 95.1C308.438 91.7 310.638 86.8 310.638 81.8C318.338 88.6 325.038 96.6 330.338 105.4" stroke="#262424" stroke-width="2" stroke-miterlimit="10" stroke-linecap="round" stroke-linejoin="round"/>
<path d="M315.638 119.2C312.438 119.7 309.038 118.2 307.238 115.6" stroke="#262424" stroke-width="2" stroke-miterlimit="10" stroke-linecap="round" stroke-linejoin="round"/>
<path d="M278.338 116C276.738 118.8 273.338 120.4 270.138 120.1" stroke="#262424" stroke-width="2" stroke-miterlimit="10" stroke-linecap="round" stroke-linejoin="round"/>
<path d="M287.438 150.4C289.638 150.9 292.038 150.6 294.038 149.6" stroke="#262424" stroke-width="2" stroke-miterlimit="10" stroke-linecap="round" stroke-linejoin="round"/>
<path d="M463.438 160.2C462.538 160.6 461.538 160.4 460.638 159.6" stroke="#262424" stroke-width="2" stroke-miterlimit="10" stroke-linecap="round" stroke-linejoin="round"/>
<path d="M252.238 134.9C250.538 134.1 248.438 135.2 247.438 136.8C246.438 138.4 246.238 140.4 246.038 142.2C245.938 143.2 245.838 144.3 246.338 145.3C246.638 146 247.238 146.5 247.738 146.9C250.138 148.8 253.238 149.8 256.238 149.6" stroke="#262424" stroke-width="2" stroke-miterlimit="10" stroke-linecap="round" stroke-linejoin="round"/>
<path d="M333.938 150.9C338.138 152 342.938 148.4 343.038 144C343.138 139.6 338.538 135.8 334.238 136.7" stroke="#262424" stroke-width="2" stroke-miterlimit="10" stroke-linecap="round" stroke-linejoin="round"/>
<path d="M307.538 64.9C300.538 60.5 292.538 57.6 284.338 56.4C280.038 55.8 275.638 55.6 271.538 56.8C268.538 57.7 265.738 59.3 263.038 61C254.538 66.5 246.738 73.4 241.038 81.9C230.938 97 228.138 115.8 227.738 133.9C227.338 152 229.338 165.3 227.138 183.3C226.738 186.4 226.238 189.5 224.638 192.2C223.038 194.8 220.038 196.9 216.938 196.5C225.138 203.6 236.838 204.3 247.638 204.5C254.938 204.6 262.338 204.5 269.538 203.4" stroke="#262424" stroke-width="2" stroke-miterlimit="10" stroke-linecap="round" stroke-linejoin="round"/>
<path d="M320.238 198C332.338 200.9 345.338 199.3 356.338 193.6C353.338 159.6 357.338 129 344.638 97.3C341.638 89.8 337.638 82.6 331.938 77C326.238 71.3 318.638 67.3 310.638 67" stroke="#262424" stroke-width="2" stroke-miterlimit="10" stroke-linecap="round" stroke-linejoin="round"/>
<path d="M34.6383 339.2C34.6383 389.7 34.7383 440.3 34.7383 490.8C38.8383 491.5 43.0383 491.7 47.2383 491.2C45.9383 485.6 48.8383 479.9 51.5383 474.9C58.4383 462.1 65.4383 449.3 72.3383 436.5C83.6383 415.7 97.0383 393.1 119.638 386.2C124.538 384.7 129.838 384.1 134.738 385.6C139.538 387.1 143.438 390.6 146.938 394.2C172.038 419.5 187.838 453.7 190.938 489.2C196.138 489.2 201.338 489.2 206.638 489.2C205.138 436 201.238 382.8 195.238 329.9" stroke="#262424" stroke-width="2" stroke-miterlimit="10" stroke-linecap="round" stroke-linejoin="round"/>
<path d="M31.4383 491.9C30.4383 494 27.7383 494.4 25.4383 494.9C23.1383 495.4 20.5383 496.8 20.7383 499.1C27.0383 500.6 33.5383 501.1 39.9383 500.5C44.0383 500.1 48.4383 499.1 50.8383 495.9C51.8383 494.6 52.4383 492.6 51.4383 491.2C49.6383 488.7 45.5383 491 42.5383 490.1" stroke="#262424" stroke-width="2" stroke-miterlimit="10" stroke-linecap="round" stroke-linejoin="round"/>
<path d="M191.838 489.1C189.738 489.4 189.138 492.4 190.438 494.1C191.738 495.8 193.938 496.3 196.038 496.6C201.438 497.4 207.038 497.4 212.438 496.7C213.338 495.6 214.338 494.4 214.338 493C214.438 491 212.738 489.4 210.838 488.8C208.938 488.2 206.938 488.5 205.038 488.8" stroke="#262424" stroke-width="2" stroke-miterlimit="10" stroke-linecap="round" stroke-linejoin="round"/>
<path d="M356.338 266.1C347.838 266 347.838 266.8 339.538 268.2C337.938 268.5 335.938 269.4 336.238 271C336.638 273 338.038 274.9 338.538 276.9C339.138 279 339.538 281.2 339.938 283.4C340.138 284.3 340.238 285.1 340.438 286" stroke="#262424" stroke-width="2" stroke-miterlimit="10" stroke-linecap="round" stroke-linejoin="round"/>
<path d="M248.038 290.3C246.938 309.2 242.738 360.8 239.338 379.4C264.338 382.2 289.638 384.9 314.638 381.9C332.038 379.8 349.338 379.1 366.938 377.1L363.838 358.9" stroke="#262424" stroke-width="2" stroke-miterlimit="10" stroke-linecap="round" stroke-linejoin="round"/>
<path d="M252.238 382.5C249.238 408.6 246.638 439.6 244.538 465.8C266.838 469.5 289.438 467.1 312.038 468C312.438 445.7 312.738 423.4 313.138 401.1" stroke="#262424" stroke-width="2" stroke-miterlimit="10" stroke-linecap="round" stroke-linejoin="round"/>
<path d="M359.338 376.6C365.738 403.5 371.238 435 375.938 462.3C353.238 466.1 334.938 469 312.038 468" stroke="#262424" stroke-width="2" stroke-miterlimit="10" stroke-linecap="round" stroke-linejoin="round"/>
<path d="M281.938 184.3C281.838 188.2 281.938 199.8 281.138 200.3C271.738 205.6 262.438 210.9 253.038 216.2C251.638 217 250.338 217.8 249.138 218.9C247.738 220.3 246.738 222.2 245.938 224C243.238 229.7 240.838 235.6 238.738 241.6C236.238 248.9 234.538 256.4 233.138 264C232.238 269.1 231.838 274.4 233.338 279.3C234.438 282.8 236.438 286 239.438 288.2C242.838 290.7 247.138 290.6 251.238 290.8C257.938 291.1 264.638 291.2 271.338 291.1C275.338 291 279.738 290.7 282.538 287.9C285.938 284.4 285.438 278.8 284.738 274C276.438 274 268.038 274 259.738 274C258.838 274 257.838 274 257.038 273.5C255.338 272.5 255.338 270 255.738 268.1C257.838 258.8 265.338 251 265.938 241.5" stroke="#262424" stroke-width="2" stroke-miterlimit="10" stroke-linecap="round" stroke-linejoin="round"/>
<path d="M305.538 184.3C304.238 190.5 303.338 195.9 303.638 201.8C311.238 202.7 326.238 204.1 333.438 206.7C340.638 209.2 347.538 213.4 351.838 219.8C353.638 222.5 354.938 225.4 356.338 228.4C359.438 235.3 362.538 242.3 363.438 249.8C365.738 260.6 366.338 269 366.338 277.3C366.338 278.6 365.438 280.6 364.338 281.3C363.638 281.7 362.238 283.2 361.438 283.4C356.338 284.7 345.438 286.1 339.938 286.1" stroke="#262424" stroke-width="2" stroke-miterlimit="10" stroke-linecap="round" stroke-linejoin="round"/>
<path d="M277.438 201.9C278.638 206 281.838 209.4 285.538 211.5C289.338 213.6 293.638 214.5 297.938 214.9C301.838 215.3 305.938 215.4 309.538 213.7C313.038 212 315.838 208 314.938 204.2" stroke="#262424" stroke-width="2" stroke-miterlimit="10" stroke-linecap="round" stroke-linejoin="round"/>
<path d="M350.138 266.3C348.138 262 342.938 203.1 336.038 205C328.938 206.9 336.938 226.1 337.738 230.4C340.038 241.8 342.638 255.9 343.438 267.5" stroke="#262424" stroke-width="2" stroke-miterlimit="10" stroke-linecap="round" stroke-linejoin="round"/>
<path d="M341.838 286.2C341.838 302 342.838 322.9 348.438 337.7C350.738 343.6 353.438 349.4 357.738 354.1C362.038 358.7 368.038 362.1 374.338 362C375.838 362 377.338 361.7 378.538 360.9C381.138 359.3 381.638 355.8 381.938 352.8C384.338 330 386.638 297.6 385.038 274.8C385.038 274.1 384.938 273.4 384.538 272.9C383.938 272 382.638 271.9 381.538 271.9C376.538 271.7 371.538 271.6 366.538 271.4" stroke="#262424" stroke-width="2" stroke-miterlimit="10" stroke-linecap="round" stroke-linejoin="round"/>
<path d="M504.238 124.4C505.838 137.6 505.038 141.1 500.438 153.6C496.538 164 490.638 177.3 479.738 182.7C471.138 186.9 460.338 185.4 452.238 180.4C444.138 175.4 438.538 167.4 434.738 159C429.238 146.7 424.538 142.5 422.538 129.2" stroke="#262424" stroke-width="2" stroke-miterlimit="10" stroke-linecap="round" stroke-linejoin="round"/>
<path d="M505.038 122.4C492.038 118.6 481.638 107.5 479.138 94.8C466.838 117.2 439.438 131.3 413.038 128.7" stroke="#262424" stroke-width="2" stroke-miterlimit="10" stroke-linecap="round" stroke-linejoin="round"/>
<path d="M504.938 133.6C507.238 133.4 509.738 133.2 511.638 134.4C513.438 135.5 514.238 137.7 514.138 139.7C513.938 144.7 508.438 148.8 503.338 147.8" stroke="#262424" stroke-width="2" stroke-miterlimit="10" stroke-linecap="round" stroke-linejoin="round"/>
<path d="M422.338 134.1C418.538 132.8 414.338 135.4 412.538 138.8C411.638 140.5 411.238 142.7 412.338 144.4C413.038 145.6 414.438 146.3 415.738 146.9C419.738 148.7 424.138 149.6 428.538 149.7" stroke="#262424" stroke-width="2" stroke-miterlimit="10" stroke-linecap="round" stroke-linejoin="round"/>
<path d="M522.838 260.3C519.738 230.6 522.838 200.7 524.038 170.8C525.338 141 523.738 120.4 513.638 92.2C508.638 78.4 500.338 64.2 485.938 58.9C479.338 56.5 472.138 56.1 465.038 56.3C458.638 56.4 452.138 57 446.038 59C431.438 63.8 421.338 76.6 413.938 89.5C410.938 94.7 408.238 100 406.738 105.8C404.938 112.7 404.938 119.9 405.038 127.1C405.338 163.1 405.738 169.7 406.038 205.7" stroke="#262424" stroke-width="2" stroke-miterlimit="10" stroke-linecap="round" stroke-linejoin="round"/>
<path d="M492.738 129.5C486.738 128.2 480.638 127.9 474.538 128.6" stroke="#262424" stroke-width="2" stroke-miterlimit="10" stroke-linecap="round" stroke-linejoin="round"/>
<path d="M455.738 130.1C450.438 129.7 445.038 129.6 439.638 129.9" stroke="#262424" stroke-width="2" stroke-miterlimit="10" stroke-linecap="round" stroke-linejoin="round"/>
<path d="M470.538 165.3C468.438 168 464.238 169.1 461.038 167.8" stroke="#262424" stroke-width="2" stroke-miterlimit="10" stroke-linecap="round" stroke-linejoin="round"/>
<path d="M456.638 192.6C443.338 204.4 442.038 203.9 424.338 211.2" stroke="#262424" stroke-width="2" stroke-miterlimit="10" stroke-linecap="round" stroke-linejoin="round"/>
<path d="M444.238 202C442.138 207.4 441.238 211.5 437.838 216.3C443.438 219.3 448.838 222.6 453.638 226.3C449.538 229.8 445.638 233.5 442.038 237.3C447.638 239.5 450.938 243.9 453.638 247.9C456.338 251.8 458.938 255.8 461.638 259.7" stroke="#262424" stroke-width="2" stroke-miterlimit="10" stroke-linecap="round" stroke-linejoin="round"/>
<path d="M423.138 289C421.738 307.5 415.938 374.9 414.538 393.5C429.238 393.9 443.938 394.2 458.638 394.6" stroke="#262424" stroke-width="2" stroke-miterlimit="10" stroke-linecap="round" stroke-linejoin="round"/>
<path d="M482.338 197.2C483.538 211.1 489.738 381.5 490.938 395.4C504.438 393.9 513.038 392.4 526.538 391.6" stroke="#262424" stroke-width="2" stroke-miterlimit="10" stroke-linecap="round" stroke-linejoin="round"/>
<path d="M459.738 382.6C470.738 383.1 481.738 383 492.638 382.4" stroke="#262424" stroke-width="2" stroke-miterlimit="10" stroke-linecap="round" stroke-linejoin="round"/>
<path d="M452.038 396.3C454.338 420 456.738 464.2 459.038 487.9C459.138 488.9 459.238 489.9 458.938 490.8C458.638 491.8 457.838 492.6 457.138 493.4C455.438 495.2 453.738 497.1 451.938 498.9C459.338 498.7 466.738 497.4 473.738 494.8C470.738 483.9 470.138 459.9 469.738 448.7C468.938 428.2 469.038 400 468.138 379.8" stroke="#262424" stroke-width="2" stroke-miterlimit="10" stroke-linecap="round" stroke-linejoin="round"/>
<path d="M472.638 381.5C473.838 411.4 473.938 461.8 473.138 491.8C473.138 492.5 473.138 493.3 473.538 493.9C474.138 494.8 475.338 495.1 476.438 495.3C481.438 496.1 486.438 496.8 491.338 497.6C492.138 497.7 493.138 497.8 493.538 497.1C493.738 496.8 493.738 496.5 493.738 496.1C493.238 491.7 485.438 491.9 484.338 487.6C484.138 486.9 484.238 486.2 484.238 485.5C486.038 461.5 487.938 417.1 489.738 393.1" stroke="#262424" stroke-width="2" stroke-miterlimit="10" stroke-linecap="round" stroke-linejoin="round"/>
<path d="M459.638 183.9C464.838 197 462.638 226.5 462.638 240.6C462.538 286.1 464.038 348.5 460.338 393.9" stroke="#262424" stroke-width="2" stroke-miterlimit="10" stroke-linecap="round" stroke-linejoin="round"/>
<path d="M518.138 313.5C518.738 334.3 517.638 372.7 526.538 391.5" stroke="#262424" stroke-width="2" stroke-miterlimit="10" stroke-linecap="round" stroke-linejoin="round"/>
<path d="M479.438 181.4C479.338 184.4 480.938 190 480.938 193C480.938 193.9 480.938 194.9 481.238 195.7C481.738 196.9 482.938 197.7 484.138 198.4C493.138 204 505.038 208.2 512.938 215.3C512.938 215.3 511.938 222.6 512.838 225.7C513.238 227 512.338 229.8 512.338 231.1C512.538 237.6 512.938 243.9 513.338 250.2" stroke="#262424" stroke-width="2" stroke-miterlimit="10" stroke-linecap="round" stroke-linejoin="round"/>
<path d="M463.238 217.6C470.738 218.9 476.338 218.4 483.538 215.9" stroke="#262424" stroke-width="2" stroke-miterlimit="10" stroke-linecap="round" stroke-linejoin="round"/>
<path d="M488.538 200.3C491.738 205.5 494.938 210.8 498.138 216C495.438 217.5 492.638 219.1 489.938 220.6C493.338 222.2 496.538 224.4 499.238 227.1C494.738 241.4 490.438 255.8 486.638 270.3" stroke="#262424" stroke-width="2" stroke-miterlimit="10" stroke-linecap="round" stroke-linejoin="round"/>
<path d="M513.238 249C513.238 254.5 507.738 311.8 507.938 312.5C508.138 313.2 513.538 314.2 518.238 317.8C518.138 317.2 519.138 289.3 519.538 281.3C520.838 259.9 513.238 231.2 512.438 225.5" stroke="#262424" stroke-width="2" stroke-miterlimit="10" stroke-linecap="round" stroke-linejoin="round"/>
<path d="M2.23833 329.4C1.93833 332 1.73833 334.6 1.63833 337.2C1.53833 340.2 1.63833 343.2 2.63833 346C2.93833 346.9 3.33833 347.7 4.13833 348.3C4.23833 348.4 4.43833 348.5 4.63833 348.5C4.83833 348.5 4.93833 348.3 4.93833 348.2C5.63833 347 5.53833 345.6 5.43833 344.3C5.63833 344.1 5.83833 344.4 5.93833 344.7C6.03833 345.7 6.13833 346.6 6.53833 347.5C6.93833 348.4 7.73833 349.2 8.73833 349.2C8.83833 347.9 8.93833 346.5 9.03833 345.2C9.03833 345.1 9.03833 344.9 9.13833 344.8C9.33833 344.6 9.73833 344.9 9.83833 345.2C10.2383 346.1 10.4383 347 10.7383 348C11.0383 348.9 11.4383 349.9 12.1383 350.5C12.3383 350.7 12.6383 350.8 12.8383 350.7C12.9383 350.7 13.0383 350.6 13.0383 350.5C14.1383 348.9 12.7383 346.4 14.0383 344.9C14.1383 344.8 14.3383 344.7 14.4383 344.8C14.8383 345.9 15.2383 347 15.5383 348.1C15.7383 348.8 16.1383 349.6 16.9383 349.7C17.7383 348.7 17.8383 347.4 17.8383 346.2C17.8383 345.1 17.7383 343.9 17.6383 342.8C17.5383 342 17.4383 341.1 17.9383 340.4C18.1383 340.1 18.4383 339.9 18.7383 339.7C19.3383 339.4 19.8383 339 20.4383 338.7C20.8383 338.4 21.3383 338.1 21.5383 337.7C21.7383 337.3 21.7383 336.6 21.2383 336.3C21.0383 336.2 20.7383 336.2 20.5383 336.2C19.8383 336.2 19.0383 336.3 18.5383 335.8C18.2383 335.5 18.1383 335.1 18.0383 334.6C17.8383 333.5 17.8383 332.3 17.9383 331.2" stroke="#262424" stroke-width="2" stroke-miterlimit="10" stroke-linecap="round" stroke-linejoin="round"/>
<path d="M283.038 289.7C285.638 290 288.238 290.2 290.838 290.3C293.838 290.4 296.838 290.3 299.638 289.3C300.538 289 301.338 288.6 301.938 287.8C302.038 287.7 302.138 287.5 302.138 287.3C302.138 287.1 301.938 287 301.838 287C300.638 286.3 299.238 286.4 297.938 286.5C297.738 286.3 298.038 286.1 298.338 286C299.338 285.9 300.238 285.8 301.138 285.4C302.038 285 302.838 284.2 302.838 283.2C301.538 283.1 300.138 283 298.838 282.9C298.738 282.9 298.538 282.9 298.438 282.8C298.238 282.6 298.538 282.2 298.838 282.1C299.738 281.7 300.638 281.5 301.638 281.2C302.538 280.9 303.538 280.5 304.138 279.8C304.338 279.6 304.438 279.3 304.338 279.1C304.338 279 304.238 278.9 304.138 278.9C302.538 277.8 300.038 279.2 298.538 277.9C298.438 277.8 298.338 277.6 298.438 277.5C299.538 277.1 300.638 276.7 301.738 276.4C302.438 276.2 303.238 275.8 303.338 275C302.338 274.2 301.038 274.1 299.838 274.1C298.738 274.1 297.538 274.2 296.438 274.3C295.638 274.4 294.738 274.5 294.038 274C293.738 273.8 293.538 273.5 293.338 273.2C293.038 272.6 292.638 272.1 292.338 271.5C292.038 271.1 291.738 270.6 291.338 270.4C290.938 270.2 290.238 270.2 289.938 270.7C289.838 270.9 289.838 271.2 289.838 271.4C289.838 272.1 289.938 272.9 289.438 273.4C289.138 273.7 288.738 273.8 288.238 273.9C287.138 274.1 285.938 274.1 284.838 274" stroke="#262424" stroke-width="2" stroke-miterlimit="10" stroke-linecap="round" stroke-linejoin="round"/>
<path d="M338.038 286.3C335.438 286.6 332.838 286.8 330.238 286.9C327.238 287 324.238 286.9 321.438 285.9C320.538 285.6 319.738 285.2 319.138 284.4C319.038 284.3 318.938 284.1 318.938 283.9C318.938 283.7 319.138 283.6 319.238 283.6C320.438 282.9 321.838 283 323.138 283.1C323.338 282.9 323.038 282.7 322.738 282.6C321.738 282.5 320.838 282.4 319.938 282C319.038 281.6 318.238 280.8 318.238 279.8C319.538 279.7 320.938 279.6 322.238 279.5C322.338 279.5 322.538 279.5 322.638 279.4C322.838 279.2 322.538 278.8 322.238 278.7C321.338 278.3 320.438 278.1 319.438 277.8C318.538 277.5 317.538 277.1 316.938 276.4C316.738 276.2 316.638 275.9 316.738 275.7C316.738 275.6 316.838 275.5 316.938 275.5C318.538 274.4 321.038 275.8 322.538 274.5C322.638 274.4 322.738 274.2 322.638 274.1C321.538 273.7 320.438 273.3 319.338 273C318.638 272.8 317.838 272.4 317.738 271.6C318.738 270.8 320.038 270.7 321.238 270.7C322.338 270.7 323.538 270.8 324.638 270.9C325.438 271 326.338 271.1 327.038 270.6C327.338 270.4 327.538 270.1 327.738 269.8C328.038 269.2 328.438 268.7 328.738 268.1C329.038 267.7 329.338 267.2 329.738 267C330.138 266.8 330.838 266.8 331.138 267.3C331.238 267.5 331.238 267.8 331.238 268C331.238 268.7 331.138 269.5 331.638 270C331.938 270.3 332.338 270.4 332.838 270.5C333.938 270.7 335.138 270.7 336.238 270.6" stroke="#262424" stroke-width="2" stroke-miterlimit="10" stroke-linecap="round" stroke-linejoin="round"/>
<path d="M296.238 468C296.338 469 299.538 487.8 299.238 488.7C298.938 489.7 298.138 490.5 297.438 491.3C295.738 493.1 294.038 495 292.238 496.8C299.638 496.6 307.038 495.3 314.038 492.7C311.038 481.8 311.438 479.4 310.938 468.1" stroke="#262424" stroke-width="2" stroke-miterlimit="10" stroke-linecap="round" stroke-linejoin="round"/>
<path d="M313.438 489.7C313.438 490.4 313.438 491.2 313.838 491.8C314.438 492.7 315.638 493 316.738 493.2C321.738 494 326.738 494.7 331.638 495.5C332.438 495.6 333.438 495.7 333.838 495C334.038 494.7 334.038 494.4 334.038 494C333.538 489.6 325.738 489.8 324.638 485.5C324.438 484.8 326.638 469.7 326.638 469" stroke="#262424" stroke-width="2" stroke-miterlimit="10" stroke-linecap="round" stroke-linejoin="round"/>
<path d="M285.838 167.8C283.738 165.7 282.638 162.6 283.038 159.6C283.138 158.9 283.338 158.1 283.838 157.6C284.538 156.8 285.638 156.6 286.638 156.4C289.838 155.9 293.038 155.7 296.238 156C297.038 156.1 297.938 156.1 298.638 156.5C299.438 157 300.038 157.8 300.338 158.7C302.038 162.8 299.338 168.1 295.138 169.1" stroke="#262424" stroke-width="2" stroke-miterlimit="10" stroke-linecap="round" stroke-linejoin="round"/>
<path d="M398.838 236.1C400.338 234 402.738 231.5 405.138 232.6C404.738 233.7 404.438 234.7 404.038 235.8C405.738 236.1 407.538 236 409.138 235.5C409.138 236.6 407.438 236.7 406.838 237.5C406.238 238.3 406.838 239.5 407.638 240C408.538 240.5 409.538 240.4 410.538 240.3C410.538 242.3 410.538 244.4 410.538 246.4C407.938 246.2 405.738 248.7 403.138 248.9C400.238 249.1 397.938 246.4 396.838 243.8C395.338 240.3 394.938 236.3 395.838 232.5C396.738 232.5 397.638 232.5 398.538 232.5C399.138 233.7 399.338 235.1 399.138 236.4" stroke="#262424" stroke-width="2" stroke-miterlimit="10" stroke-linecap="round" stroke-linejoin="round"/>
<path d="M400.538 233.2C398.138 226.2 395.738 219.1 393.538 212C393.338 211.5 393.238 210.9 393.438 210.4C393.638 209.9 394.138 209.7 394.638 209.5C400.038 207.1 405.738 205.5 411.538 204.5C415.138 219.3 418.538 229.3 422.538 245.7C418.338 246.5 410.238 249.8 406.638 250.5" stroke="#262424" stroke-width="2" stroke-miterlimit="10" stroke-linecap="round" stroke-linejoin="round"/>
<path d="M399.838 248C407.038 261.4 410.238 276.9 418.938 289.4C419.138 289.7 419.438 290.1 419.838 290.2C420.138 290.3 420.438 290.2 420.638 290.1C427.738 288 432.938 280.7 432.838 273.3C432.738 268.8 430.938 264.6 428.838 260.7C426.238 255.5 423.038 250.4 418.338 247.1" stroke="#262424" stroke-width="2" stroke-miterlimit="10" stroke-linecap="round" stroke-linejoin="round"/>
<path d="M424.738 210.3C422.138 220.7 423.438 231.7 421.438 242.2" stroke="#262424" stroke-width="2" stroke-miterlimit="10" stroke-linecap="round" stroke-linejoin="round"/>
</svg>
