<svg width="573" height="573" viewBox="0 0 573 573" fill="none" xmlns="http://www.w3.org/2000/svg">
<circle cx="286.516" cy="286.704" r="195.272" transform="rotate(-54.4497 286.516 286.704)" fill="#BCC2CA"/>
<path d="M241.675 344.138L265.677 361.29L269.921 355.35L245.92 338.199L241.675 344.138ZM239.092 357.471L244.421 361.279L263.026 335.244L257.697 331.436L239.092 357.471ZM232.51 340.538L239.778 330.368L244.09 333.449L236.822 343.62L232.51 340.538ZM223.361 342.419L238.006 352.885L253.501 331.202L238.856 320.737L223.361 342.419ZM217.46 347.236C221.621 353.282 224.705 360.833 225.657 366.983C227.82 367.053 232.208 367.792 233.98 368.322C232.558 360.422 228.172 350.651 223.175 343.024L217.46 347.236ZM226.229 359.648L252.996 378.776L257.008 373.162L224.667 350.051L224.626 350.022L226.229 359.648ZM247.892 358.228C250.047 361.49 251.877 365.809 252.626 369.232C254.289 368.454 257.404 367.362 259.055 366.944C258.01 363.247 255.709 358.038 253.286 354.033L247.892 358.228ZM259.67 346.734C263.75 346.7 269.01 347.079 272.039 347.83L272.575 341.145C269.471 340.587 264.525 340.371 260.41 340.626L259.67 346.734ZM266.119 308.385L290.852 326.061L295.242 319.918L270.508 302.243L266.119 308.385ZM269.569 319.209L282.156 301.594L283.58 302.612L270.993 320.226L269.569 319.209ZM263.996 315.226L276.583 297.612L278.007 298.629L265.419 316.244L263.996 315.226ZM255.393 317.805L271.339 329.201L292.416 299.708L276.469 288.312L255.393 317.805ZM270.24 334.007L275.284 337.612L301.477 300.959L296.433 297.354L270.24 334.007ZM251.657 309.789L254.913 305.233L256.418 306.308L253.162 310.865L251.657 309.789ZM244.519 312.554L252.858 318.514L263.789 303.218L255.449 297.258L244.519 312.554ZM263.983 292.54L267.326 287.862L268.831 288.938L265.488 293.616L263.983 292.54ZM256.845 295.306L265.184 301.265L276.202 285.847L267.863 279.888L256.845 295.306ZM284.089 263.46L289.092 267.035L307.029 241.936L302.025 238.36L284.089 263.46ZM291.225 270.587L296.513 274.366L316.02 247.07L310.731 243.291L291.225 270.587ZM283.056 255.962L298.27 266.834L302.369 261.098L287.155 250.226L283.056 255.962ZM290.236 245.913L305.451 256.786L309.637 250.928L294.422 240.056L290.236 245.913ZM300.832 272.106L319.952 285.77L323.993 280.115L309.633 269.853L316.348 260.456L330.505 270.573L334.749 264.633L315.833 251.115L300.832 272.106ZM309.452 274.148L313.804 277.259L324.677 262.045L320.324 258.934L309.452 274.148ZM315.798 278.684L320.557 282.085L331.43 266.87L326.67 263.469L315.798 278.684ZM276.265 265.12C280.483 271.085 283.684 278.473 284.723 284.501C286.886 284.571 291.315 285.339 293.157 285.857C291.607 278.05 287.093 268.372 281.997 260.797L276.265 265.12ZM285.266 277.206L312.033 296.335L316.045 290.721L283.704 267.61L283.664 267.581L285.266 277.206ZM333.225 217.146L335.137 218.512C339.856 221.884 346.876 227.884 347.746 238.277C349.658 237.493 353.012 236.755 355.011 236.709C353.631 224.538 344.937 217.096 339.283 213.055L337.208 211.573L333.225 217.146ZM341.828 215.427L339.269 220.728C348.266 224.821 356.426 226.904 363.71 223.936C362.734 221.948 361.694 218.501 361.485 216.385C355.614 219.441 348.628 218.381 341.828 215.427ZM303.363 233.048L308.123 236.449L321.874 217.207L317.114 213.806L303.363 233.048ZM320.867 246.478L325.668 249.909L340.203 229.568L335.403 226.138L320.867 246.478ZM310.111 236.333L314.83 239.705L327.156 222.457L322.437 219.085L310.111 236.333ZM316.178 240.485L320.897 243.857L333.078 226.812L328.359 223.44L316.178 240.485ZM305.702 224.272L317.418 232.644L321.372 227.111L309.656 218.739L305.702 224.272ZM327.545 248.055C329.864 250.572 332.258 253.758 333.507 256.31C334.786 255.38 337.21 253.794 338.646 253.161C337.217 250.603 334.631 246.911 332.115 244.069L327.545 248.055ZM337.301 237.757C339.986 238.386 343.38 239.398 345.281 240.264L346.683 234.26C344.724 233.475 341.365 232.673 338.744 232.213L337.301 237.757ZM324.281 213.151L329.61 216.959L337.488 205.935L332.159 202.126L324.281 213.151ZM316.04 209.29C322.083 214.592 327.505 220.679 329.381 226.137C331.154 225.376 334.7 224.284 336.403 223.964C333.888 217.681 327.891 210.507 320.981 204.094L316.04 209.29ZM331.054 203.672L331.868 204.254C335.157 207.219 339.021 211.271 341.293 213.939L346.119 210.197C343.701 206.872 339.756 202.332 336.037 198.506L332.072 201.818L331.636 202.859L331.054 203.672ZM328.297 240.295L344.04 251.546L347.994 246.013L332.251 234.763L328.297 240.295Z" fill="white"/>
</svg>
