<svg width="310" height="309" viewBox="0 0 310 309" fill="none" xmlns="http://www.w3.org/2000/svg">
<circle cx="155.09" cy="154.278" r="127.119" transform="rotate(14.1115 155.09 154.278)" fill="#FFB84D"/>
<path d="M105.204 128.913L104.086 133.36L117.086 136.628L118.204 132.181L105.204 128.913ZM100.953 140.512L99.7749 145.196L118.139 149.812L119.316 145.128L100.953 140.512ZM108.484 139.41L104.447 155.465C104.319 155.974 104.081 156.059 103.504 155.914C102.961 155.777 100.891 155.257 99.3803 154.805C99.7349 156.265 99.9358 158.481 99.8235 159.932C102.505 160.607 104.601 161.025 106.376 160.714C108.159 160.368 108.941 159.265 109.547 156.855L113.609 140.698L108.484 139.41ZM116.303 131.704L116.039 132.756C114.534 134.723 111.321 137.885 108.484 139.41C109.068 140.242 110.11 141.839 110.516 142.808C114.517 141.251 118.545 138.005 121.536 135.293L118.841 132.089L117.627 132.036L116.303 131.704ZM86.3247 141.851C89.1454 146.421 93.305 152.844 94.9553 156.615L99.2465 153.327C97.4262 149.658 92.9014 143.396 90.1396 139.165L86.3247 141.851ZM86.3247 141.851L90.4127 144.538C93.0169 139.491 96.2694 132.008 98.4255 125.585L93.5974 124.119C91.7813 130.194 88.7413 137.406 86.3247 141.851ZM98.0798 130.262L97.0473 134.369C95.6649 139.868 92.6316 148.489 83.1364 152.092C84.0264 153.146 85.2715 155.228 85.7197 156.459C96.4213 152.076 99.9828 142.072 101.613 135.589L102.662 131.414L98.0798 130.262ZM88.6317 130.377L87.9039 135.138C92.0454 135.891 97.6297 136.934 102.849 137.849L103.992 133.445C98.5185 132.393 92.6373 131.24 88.6317 130.377ZM130.011 145.94L129.166 149.301L148.276 154.105L149.121 150.744L130.011 145.94ZM132.427 141.784L131.617 145.009L147.129 148.908L145.635 154.848L129.682 150.838L128.871 154.062L149.475 159.242L152.59 146.853L132.427 141.784ZM139.888 142.252L134.47 163.806C134.342 164.316 134.087 164.468 133.476 164.314C132.924 164.212 130.82 163.683 129.386 163.214C129.723 164.454 129.942 166.313 129.847 167.552C132.732 168.278 134.743 168.747 136.458 168.529C138.148 168.268 138.904 167.411 139.476 165.137L144.912 143.515L139.888 142.252ZM127.239 155.529C128.537 156.829 130.376 158.699 131.19 159.77L134.622 157.457C133.664 156.386 131.731 154.601 130.468 153.453L127.239 155.529ZM147.66 158.136C145.953 159.042 143.116 160.134 141.146 160.649L143.281 163.784C145.31 163.464 148.019 162.738 150.558 161.968L147.66 158.136ZM124.806 159.753L125.564 164.202C128.816 163.612 132.765 162.836 136.535 162.052L136.556 158.521C132.243 159.024 127.667 159.57 124.806 159.753ZM129.558 135.685L128.482 139.962L155.23 146.686L156.305 142.409L129.558 135.685ZM127.249 135.105L124.792 144.881C123.512 149.972 121.499 157.117 117.427 161.254C118.394 162.003 120.115 163.915 120.759 164.943C125.298 160.382 128.042 151.761 129.476 146.058L131.934 136.283L127.249 135.105ZM139.548 136.428C139.902 138.033 140.29 140.224 140.322 141.531L145.815 141.36C145.672 140.061 145.276 138.049 144.828 136.529L139.548 136.428ZM149.156 150.32L148.115 154.461L153.342 155.775L154.383 151.634L149.156 150.32ZM137.341 161.858C140.538 164.358 145.083 168.099 147.186 170.215L150.313 167.392C148.033 165.267 143.309 161.662 140.222 159.442L137.341 161.858ZM154.929 162.237L153.965 166.073L185.16 173.915L186.124 170.08L154.929 162.237ZM160.744 142.984L159.822 146.65L189.014 153.989L189.936 150.323L160.744 142.984ZM174.475 165.166L172.478 173.109C172.376 173.516 172.181 173.576 171.629 173.473C171.12 173.345 169.117 172.842 167.743 172.424C168.021 173.757 168.18 175.709 168.025 177.042C170.571 177.682 172.548 178.143 174.263 177.925C175.987 177.672 176.684 176.62 177.222 174.482L179.261 166.369L174.475 165.166ZM173.416 144.113L168.808 162.442L173.662 163.663L178.27 145.333L173.416 144.113ZM159.106 168.448C160.539 170.216 162.225 172.697 162.842 174.259L167.251 172.084C166.531 170.495 164.675 168.116 163.209 166.484L159.106 168.448ZM165.345 155.689L180.213 159.427L179.999 160.275L165.132 156.538L165.345 155.689ZM166.224 152.193L181.092 155.931L180.887 156.745L166.019 153.008L166.224 152.193ZM162.333 148.147L159.79 158.263L184.128 164.381L186.671 154.266L162.333 148.147ZM176.312 162.885C178.364 164.628 180.771 167.254 181.949 169.03L185.55 167.337C184.271 165.68 181.872 163.164 179.735 161.472L176.312 162.885ZM157.438 158.574L156.704 162.07C163.306 163.658 173.091 165.937 182.29 167.961L183.202 165.05C173.782 162.755 163.701 160.22 157.438 158.574ZM207.958 163.046L212.269 164.129L211.722 166.302L207.412 165.218L207.958 163.046ZM204.16 158.771L202.036 167.223L215.817 170.687L217.941 162.235L204.16 158.771ZM201.546 171.611L203.107 172.003L202.356 174.99L200.795 174.598L201.546 171.611ZM198.419 167.396L196.047 176.833L205.721 179.265L208.093 169.828L198.419 167.396ZM212.374 174.333L214.037 174.751L213.286 177.738L211.623 177.32L212.374 174.333ZM209.179 170.101L206.807 179.538L216.719 182.029L219.091 172.593L209.179 170.101ZM195.164 150.627L194.081 154.938L223.272 162.276L224.356 157.965L195.164 150.627ZM196.488 150.96L191.138 172.242C189.38 179.235 191.872 181.954 198.355 183.584C199.985 183.994 208.606 186.161 210.881 186.733C213.698 187.441 216.965 188.227 218.561 188.195C218.614 186.981 218.905 184.672 219.068 183.45C217.464 183.372 214.629 182.876 212.287 182.287C209.809 181.664 200.984 179.445 199.083 178.967C195.689 178.114 195.122 176.78 195.873 173.793L201.308 152.171L196.488 150.96Z" fill="white"/>
</svg>
