<svg width="345" height="344" viewBox="0 0 345 344" fill="none" xmlns="http://www.w3.org/2000/svg">
<circle cx="172.66" cy="171.833" r="134.439" transform="rotate(19.6605 172.66 171.833)" fill="#F57A6D"/>
<path d="M132.007 155.793L126.052 172.462L130.177 173.935L136.132 157.267L132.007 155.793ZM123.889 156.493L122.566 160.194L140.647 166.653L141.969 162.953L123.889 156.493ZM132.579 149.913L139.642 152.436L138.572 155.431L131.509 152.908L132.579 149.913ZM129.99 144.942L126.357 155.113L141.415 160.493L145.048 150.322L129.99 144.942ZM126.241 142.329C123.436 145.723 119.585 148.743 116.193 150.303C116.507 151.562 116.802 154.216 116.787 155.326C121.112 153.207 126.031 149.071 129.611 144.934L126.241 142.329ZM120.519 149.427L113.878 168.017L117.777 169.409L125.801 146.95L125.811 146.922L120.519 149.427ZM124.897 161.695C123.369 163.475 121.177 165.241 119.325 166.235C120.047 167.067 121.189 168.685 121.702 169.569C123.663 168.359 126.291 166.176 128.204 164.119L124.897 161.695ZM133.465 166.604C134.155 168.953 134.8 172.051 134.865 173.922L138.81 173.133C138.622 171.25 137.935 168.36 137.112 166.027L133.465 166.604ZM156.654 164.026L150.518 181.202L154.783 182.727L160.92 165.55L156.654 164.026ZM150.975 167.795L163.208 172.165L162.855 173.154L150.622 168.784L150.975 167.795ZM152.358 163.924L164.591 168.295L164.237 169.284L152.005 164.913L152.358 163.924ZM149.457 159.384L145.5 170.458L165.982 177.776L169.939 166.701L149.457 159.384ZM142.546 170.613L141.294 174.116L166.748 183.21L168 179.707L142.546 170.613ZM153.469 155.911L156.633 157.041L156.259 158.087L153.095 156.956L153.469 155.911ZM150.701 152.246L148.631 158.037L159.254 161.833L161.323 156.041L150.701 152.246ZM165.447 160.191L168.696 161.351L168.323 162.397L165.074 161.236L165.447 160.191ZM162.679 156.526L160.61 162.317L171.317 166.142L173.386 160.351L162.679 156.526ZM180.612 162.773L179.26 166.559L185.503 168.79L186.856 165.004L180.612 162.773ZM178.362 169.073L177.009 172.859L183.394 175.14L184.746 171.354L178.362 169.073ZM188.096 176.693L186.773 180.393L196.463 183.855L197.786 180.155L188.096 176.693ZM176.06 175.515L174.677 179.385L180.921 181.616L182.304 177.745L176.06 175.515ZM179.03 162.208L175.326 172.576C173.842 176.729 171.69 182.396 168.623 185.632C169.434 186.304 170.768 187.832 171.262 188.678C174.659 185.144 177.353 178.493 178.999 173.888L182.703 163.52L179.03 162.208ZM184.568 164.186L176.897 185.657C176.765 186.025 176.612 186.097 176.301 185.986C175.962 185.865 174.963 185.54 174.136 185.181C174.281 186.379 174.095 188.416 173.796 189.519C175.604 190.165 176.906 190.535 178.137 190.21C179.396 189.895 180.026 188.846 180.652 187.095L188.353 165.539L184.568 164.186ZM199.145 169.395L197.217 174.791C197.096 175.13 196.896 175.154 196.444 174.992C196.01 174.869 194.202 174.223 192.99 173.694C193.127 174.826 193.159 176.431 192.955 177.537C195.102 178.304 196.825 178.919 198.278 178.865C199.788 178.831 200.498 178.002 201.114 176.278L203.072 170.798L199.145 169.395ZM196.656 179.751L196.424 180.401C193.656 185.56 189.361 189.378 184.659 190.055C185.208 191.016 185.749 192.802 185.934 193.888C191.71 192.702 196.396 188.769 200.181 181.743L198.024 180.112L197.334 179.993L196.656 179.751ZM191.754 180.899L188.297 180.587C188.06 186.779 189.299 192.318 192.979 196.373C193.897 195.586 195.542 194.549 196.652 194.117C193.137 190.759 191.592 185.81 191.754 180.899ZM189.427 165.923L180.181 191.801L184.052 193.183L191.945 171.091L198.725 173.513L200.077 169.728L189.427 165.923ZM206.908 172.455L205.687 175.873L214.727 179.103L215.948 175.685L206.908 172.455ZM213.188 191.169L211.987 194.531L223.061 198.487L224.262 195.125L213.188 191.169ZM203.347 180.995L202.075 184.554L212.528 188.289L213.8 184.729L203.347 180.995ZM207.23 184.038L203.283 195.085C203.162 195.424 203.029 195.44 202.68 195.347C202.312 195.216 201.154 194.802 200.214 194.402C200.329 195.686 200.26 197.572 199.969 198.743C201.749 199.379 203.163 199.789 204.487 199.561C205.849 199.315 206.487 198.332 207.123 196.552L211.1 185.421L207.23 184.038ZM222.963 194.661L222.781 195.17C221.075 199.052 220.095 200.549 219.481 200.84C219.098 201.021 218.851 200.997 218.456 200.856C218.004 200.694 217.166 200.363 216.293 199.956C216.551 201.195 216.409 202.928 216.052 204.107C217.341 204.599 218.51 204.985 219.285 205.134C220.211 205.306 220.98 205.294 221.93 204.773C223.073 204.162 224.35 202.102 226.44 197.592C226.678 197.103 227.087 196.135 227.087 196.135L222.963 194.661ZM217.963 190.199C216.029 194.541 214.275 198.024 207.67 198.054C208.245 199.119 208.775 200.933 208.874 202.084C216.728 201.768 219.518 197.349 222.031 191.652L217.963 190.199ZM205.018 179.171C207.022 180.874 209.623 183.492 210.719 185.062L214.527 183.141C213.205 181.49 210.497 178.994 208.528 177.462L205.018 179.171ZM212.84 184.386L212.648 184.923C211.701 187.038 210.347 189.58 209.346 191.134L211.604 193.374C213.037 191.592 214.766 188.802 216.121 186.259L213.945 184.59L213.348 184.568L212.84 184.386ZM226.078 182.999C223.547 186.428 219.196 187.103 213.647 186.14C214.155 187.213 214.821 189.363 214.978 190.438C221.191 190.97 226.303 189.77 230.15 185.155L226.078 182.999ZM222.269 176.541C220.22 178.708 217.211 180.532 214.442 181.327C215.193 182.169 216.41 183.846 216.968 184.778C219.753 183.671 223.168 181.514 225.699 178.977L222.269 176.541ZM221.275 182.175L217.473 182.028C218.419 187.049 221.177 191.188 225.968 194.365C226.878 193.511 228.612 192.315 229.78 191.808C225.195 189.215 222.128 185.761 221.275 182.175ZM206.971 183.691C205.195 185.988 202.414 188.243 199.756 189.173C199.974 190.525 200.244 192.533 200.159 193.841C203.451 192.564 206.763 189.001 209.207 185.637L206.971 183.691ZM221.485 179.447L218.674 182.234L230.737 186.543L231.938 183.182L221.485 179.447ZM214.96 175.331L214.707 176.038C213.535 177.18 211.064 178.655 208.887 179.31C209.506 180.073 210.362 181.335 210.846 182.208C213.433 181.476 216.531 179.939 218.531 178.264L216.507 175.725L215.835 175.644L214.96 175.331Z" fill="white"/>
</svg>
