<svg width="364" height="363" viewBox="0 0 364 363" fill="none" xmlns="http://www.w3.org/2000/svg">
<circle cx="182.318" cy="181.491" r="131.628" transform="rotate(57.8473 182.318 181.491)" fill="#CDBFA5"/>
<path d="M157.287 135.421L162.204 143.244L160.397 144.38L155.48 136.557L157.287 135.421ZM162.413 132.198L167.331 140.021L165.553 141.139L160.636 133.316L162.413 132.198ZM163.589 126.044L149.424 134.947L159.352 150.741L173.516 141.838L163.589 126.044ZM147.354 136.125L143.501 138.547L153.653 154.696L157.505 152.275L147.354 136.125ZM140.138 137.932L136.257 140.372L148.252 159.455L152.134 157.015L140.138 137.932ZM156.267 115.185L152.296 117.681L158.685 127.845L162.656 125.349L156.267 115.185ZM147.93 120.798L143.989 123.275L149.875 132.639L153.816 130.161L147.93 120.798ZM136.338 127.216L132.548 130.921C135.359 133.288 138.854 136.217 142.115 138.84L145.738 135.528C142.31 132.64 138.647 129.444 136.338 127.216ZM156.615 119.225L137.887 130.996L141.08 134.694L159.185 123.314L156.615 119.225ZM165.944 133.08L154.921 140.009L154.66 139.594L143.163 146.821L145.938 151.236L157.435 144.009L157.175 143.594L168.198 136.665L165.944 133.08ZM184.913 170.558C183.119 171.189 180.55 171.771 178.747 171.994L180.101 176.187C181.774 176.086 184.181 175.772 186.599 175.41L184.913 170.558ZM177.823 161.909C176.988 163.013 175.73 164.3 174.819 164.955L178.129 168.249C179.003 167.534 180.164 166.225 180.903 165.099L177.823 161.909ZM168.632 167.149L156.602 174.711L159.246 178.919L167.543 173.704L170.952 179.127L162.774 184.267L165.549 188.683L177.461 181.195L168.632 167.149ZM163.02 173.281L159.197 175.684L165.512 185.729L169.334 183.327L163.02 173.281ZM173.105 162.229L169.371 164.576L179.951 181.407L183.685 179.06L173.105 162.229ZM181.438 157.86L177.734 160.188L187.531 175.775L191.235 173.446L181.438 157.86ZM186.801 161.723C185.721 162.898 184.181 164.197 183.162 164.878L186.567 168.98C187.597 168.251 188.985 166.841 189.95 165.614L186.801 161.723ZM157.272 159.862C155.047 160.269 152.284 160.476 150.269 160.296C150.375 161.386 150.429 163.378 150.313 164.443C152.457 164.501 155.755 164.288 158.388 163.874L157.272 159.862ZM158.204 164.568C157.297 166.544 155.945 169.13 154.966 170.531L158.551 172.287C159.434 170.864 160.607 168.39 161.448 166.374L158.204 164.568ZM169.767 155.274L171.164 157.497L169 158.856L167.603 156.634L169.767 155.274ZM164.492 158.59L165.889 160.812L163.696 162.19L162.299 159.968L164.492 158.59ZM175.041 151.959L176.438 154.181L174.305 155.522L172.908 153.3L175.041 151.959ZM176.203 146.309L156.705 158.565L162.647 168.018L182.144 155.762L176.203 146.309ZM177.312 186.745L173.964 188.85L191.081 216.082L194.43 213.977L177.312 186.745ZM194.824 176.854L191.624 178.866L207.642 204.349L210.842 202.338L194.824 176.854ZM189.41 202.374L182.476 206.733C182.12 206.956 181.938 206.864 181.611 206.408C181.331 205.964 180.232 204.216 179.528 202.964C178.807 204.119 177.572 205.64 176.539 206.496C177.936 208.718 179.046 210.418 180.436 211.446C181.856 212.455 183.087 212.177 184.954 211.004L192.036 206.552L189.41 202.374ZM203.2 186.43L187.198 196.488L189.862 200.726L205.863 190.668L203.2 186.43ZM176.036 194.12C175.849 196.388 175.352 199.346 174.718 200.902L179.408 202.378C179.986 200.733 180.29 197.73 180.358 195.538L176.036 194.12ZM189.365 189.215L197.523 202.194L196.782 202.659L188.624 189.681L189.365 189.215ZM192.417 187.296L200.575 200.275L199.864 200.722L191.706 187.743L192.417 187.296ZM192.402 181.683L183.572 187.234L196.927 208.48L205.757 202.929L192.402 181.683ZM192.314 201.996C192.591 204.674 192.515 208.235 192.139 210.333L195.911 211.599C196.132 209.517 196.138 206.041 195.764 203.341L192.314 201.996ZM181.658 185.833L178.71 187.851C182.383 193.562 187.876 201.974 193.124 209.796L195.795 208.323C190.576 200.153 185.044 191.352 181.658 185.833ZM215.068 223.989L217.434 227.753L215.537 228.945L213.172 225.182L215.068 223.989ZM215.28 218.276L207.901 222.913L215.464 234.944L222.842 230.306L215.28 218.276ZM204.514 225.745L205.371 227.109L202.763 228.748L201.906 227.385L204.514 225.745ZM205.168 220.539L196.931 225.717L202.239 234.162L210.477 228.984L205.168 220.539ZM210.456 235.198L211.368 236.65L208.761 238.289L207.848 236.837L210.456 235.198ZM211.073 229.932L202.835 235.11L208.274 243.763L216.512 238.585L211.073 229.932ZM214.41 206.172L210.647 208.538L226.665 234.021L230.429 231.656L214.41 206.172ZM215.137 207.328L196.557 219.006C190.453 222.843 190.373 226.531 193.931 232.191C194.825 233.613 199.556 241.14 200.804 243.125C202.35 245.585 204.168 248.411 205.343 249.491C206.22 248.65 208.027 247.184 208.989 246.414C207.884 245.248 206.179 242.93 204.894 240.885C203.534 238.722 198.692 231.018 197.649 229.358C195.786 226.395 196.298 225.039 198.906 223.4L217.781 211.535L215.137 207.328Z" fill="white"/>
</svg>
