<svg width="265" height="265" viewBox="0 0 265 265" fill="none" xmlns="http://www.w3.org/2000/svg">
<circle cx="132.486" cy="132.659" r="98.1977" transform="rotate(26.5428 132.486 132.659)" fill="#D05A18"/>
<path d="M107.391 115.162C107.992 116.75 108.54 118.875 108.53 120.131L111.911 119.647C111.825 118.316 111.158 116.266 110.524 114.742L107.391 115.162ZM91.354 111.873L89.8847 114.814L109.423 124.574L110.892 121.633L91.354 111.873ZM87.943 117.574L87.0965 121.094C90.1665 121.984 94.2026 123.142 98.0025 124.181L99.2035 121.24C95.1459 119.964 90.7233 118.56 87.943 117.574ZM96.6664 110.69L89.7167 124.603C89.5451 124.947 89.3627 124.99 88.9762 124.797C88.579 124.625 87.3337 124.003 86.2495 123.381C86.2713 124.465 86.0788 126.139 85.7679 127.084C87.507 127.953 88.9133 128.521 90.1261 128.51C91.3389 128.499 92.0578 127.811 92.8514 126.223L99.8226 112.267L96.6664 110.69ZM102.655 110.141C100.015 109.734 96.4081 108.737 93.1984 107.59C93.1987 108.448 93.0168 109.833 92.7703 110.649C96.0766 111.925 100.016 113.222 103.43 113.854L102.655 110.141ZM104.706 111.299C100.094 120.639 96.1489 132.404 100.722 134.688C102.869 135.761 104.254 135.352 106.689 131.659C106.044 130.908 105.357 129.652 105.056 128.59C103.737 130.962 102.996 131.854 102.631 131.671C101.043 130.878 103.776 120.787 107.969 112.929L104.706 111.299ZM105.902 123.513C102.243 126.058 97.424 127.004 93.0449 126.802C93.4639 127.897 93.7972 129.378 93.862 130.376C98.7562 130.245 103.747 128.955 108.06 126.066L105.902 123.513ZM110.004 128.942L108.728 131.497L128.545 141.396L129.821 138.841L110.004 128.942ZM116.096 117.606L114.755 120.289L133.714 129.759L135.054 127.076L116.096 117.606ZM124.55 134.732C120.14 139.317 115.482 138.385 107.205 134.546C107.334 135.469 107.259 136.8 107.002 137.798C116.32 141.701 121.676 142.526 127.234 136.985L124.55 134.732ZM110.135 134.48C115.406 138.482 120.184 142.72 122.794 145.498L126.646 144.713C123.586 141.817 118.411 137.407 113.451 133.696L110.135 134.48ZM121.11 121.425L117.485 128.682L120.426 130.151L124.051 122.894L121.11 121.425ZM125.898 123.816L122.273 131.073L125.214 132.543L128.839 125.286L125.898 123.816ZM116.979 125.505L128.401 131.21L127.651 132.713L116.228 127.008L116.979 125.505ZM115.271 121.62L112.107 127.954L129.563 136.673L132.727 130.339L115.271 121.62ZM110.135 134.48L113.753 136.314C115.491 135.519 118.174 134.069 120.127 132.523L117.357 130.281C115.329 131.924 112.367 133.557 110.135 134.48ZM146.831 132.126C146.359 132.964 145.608 134.091 145.018 134.896L147.219 136.291C147.852 135.668 148.774 134.734 149.665 133.703L146.831 132.126ZM143.882 138.567L145.642 139.447L145.342 140.048L143.581 139.169L143.882 138.567ZM145.158 136.012L146.918 136.892L146.607 137.515L144.847 136.635L145.158 136.012ZM143.804 132.761L140.158 140.061L146.792 143.375L150.438 136.075L143.804 132.761ZM139.461 141.564L138.27 143.947L145.141 147.379L146.331 144.996L139.461 141.564ZM139.773 145.664L138.239 147.607L142.34 149.655L143.423 147.487L139.773 145.664ZM142.221 146.886L142.06 147.208C140.612 149.785 139.947 150.687 139.593 150.859C139.357 150.955 139.207 150.934 138.992 150.827C138.777 150.719 138.455 150.558 138.036 150.269C138.058 151.031 137.812 152.061 137.512 152.77C138.22 153.124 138.896 153.435 139.315 153.563C139.852 153.724 140.324 153.745 140.903 153.498C141.655 153.176 142.556 151.909 144.25 149C144.422 148.71 144.733 148.141 144.733 148.141L142.221 146.886ZM139.837 144.032C138.421 146.544 137.048 148.648 134.322 149.004C134.666 149.712 134.935 150.946 134.935 151.697C138.52 151.235 140.483 148.593 142.349 145.287L139.837 144.032ZM153.003 135.183C151.03 138.382 148.841 141.26 146.427 142.548C146.567 143.396 146.557 145.135 146.46 145.865C149.787 144.307 152.759 140.721 155.344 136.835L153.003 135.183ZM151.749 139.573L149.604 141.935L154.649 144.456L156.022 141.708L151.749 139.573ZM150.58 141.967L148.594 141.324C146.439 147.25 144.885 153.1 146.078 157.317C146.872 156.802 148.321 156.211 149.19 156.028C147.783 152.401 148.844 147.055 150.58 141.967ZM152.888 141.054C149.509 146.959 145.829 151.586 141.053 152.178C141.472 153.004 141.891 154.367 142.02 155.183C146.904 154.215 151.088 149.115 154.509 143.179L152.888 141.054ZM141.918 141.37C141.854 142.196 141.747 143.323 141.587 143.967L144.442 144.696C144.56 144.03 144.635 142.968 144.613 142.152L141.918 141.37ZM137.581 138.827C137.228 140.556 136.585 142.702 136.091 143.958L138.238 144.333C138.699 143.142 139.246 140.973 139.556 139.277L137.581 138.827ZM133.365 143.831C132.754 145.43 131.885 147.491 131.177 148.801L133.442 149.476C134.107 148.145 134.933 146.116 135.501 144.495L133.365 143.831ZM131.25 142.318C130.242 144.122 129.051 146.022 127.892 147.053C128.397 147.493 129.288 148.34 129.653 148.845C130.78 147.717 132.142 145.742 133.268 143.756L131.25 142.318ZM134.017 136.725C134.232 136.296 136.045 136.209 136.045 136.209L136.067 136.166C138.02 134.942 140.455 132.966 142.269 131.001L140.379 128.93C138.802 131.013 136.581 132.989 135.948 133.451C135.293 133.956 134.767 134.203 134.349 134.128C134.295 134.879 134.124 136.188 134.017 136.725ZM134.017 136.725C134.554 136.725 135.348 136.907 138.365 138.119C138.676 137.55 139.319 136.584 139.823 135.95L136.442 134.502L134.95 134.696L134.017 136.725ZM131.658 141.878C131.872 141.449 133.686 141.362 133.686 141.362L133.718 141.298C136.691 139.966 140.125 137.764 142.818 135.434L141.293 133.062C138.75 135.629 135.252 137.959 134.254 138.453C133.256 139.001 132.58 139.334 132 139.205C131.968 139.967 131.765 141.341 131.658 141.878ZM131.658 141.878C132.28 141.867 133.203 142.06 137.454 143.486C137.733 142.927 138.334 141.94 138.795 141.285L134.083 139.548L132.559 139.752L131.658 141.878ZM135.652 144.517C135.405 145.601 135.041 146.975 134.687 147.844L136.866 148.208C137.145 147.328 137.498 145.976 137.691 144.892L135.652 144.517ZM161.26 143.358L160.381 145.119L175.582 152.712L177.663 148.547L160.873 140.16L159.993 141.921L173.97 148.902L173.649 149.547L161.26 143.358ZM160.38 142.919C159.533 144.239 158.438 145.785 157.569 146.827L160.275 148.178C161.101 147.169 162.184 145.644 163.107 144.281L160.38 142.919ZM159.544 145.613L158.128 147.105L173.844 154.956L174.723 153.195L159.544 145.613ZM173.693 152.681L173.543 152.981C172.91 154.141 172.588 154.624 172.363 154.753C172.159 154.839 172.03 154.774 171.858 154.688C171.611 154.592 171.279 154.399 170.86 154.109C170.871 154.732 170.71 155.644 170.474 156.17C171.333 156.653 172.128 157.05 172.6 157.232C173.094 157.425 173.716 157.521 174.253 157.306C174.864 157.049 175.401 156.297 176.216 154.88C176.355 154.601 176.613 154.139 176.613 154.139L173.693 152.681ZM165.982 141.693L163.634 146.395C162.604 148.456 161.091 149.444 155.391 147.268C155.606 148.072 155.746 149.618 155.671 150.412C162.541 152.825 164.827 151.042 166.414 147.864L168.795 143.098L165.982 141.693ZM170.684 144.042L166.287 152.845L169.229 154.314L173.626 145.511L170.684 144.042ZM159.386 154.092L167.803 158.296L167.502 158.898L159.086 154.693L159.386 154.092ZM158.292 156.282L166.709 160.486L166.398 161.109L157.981 156.905L158.292 156.282ZM160.48 151.902L168.896 156.106L168.596 156.708L160.18 152.503L160.48 151.902ZM158.3 148.694L154.107 157.089L168.728 164.392L172.921 155.997L158.3 148.694ZM162.319 162.238C164.177 164.158 166.024 166.422 167.033 167.838L170.189 167.107C168.975 165.616 166.817 163.277 164.906 161.356L162.319 162.238ZM157.799 158.29C156.018 158.312 153.173 157.669 150.704 156.865C151.112 157.713 151.639 159.344 151.843 160.224C154.333 160.77 157.629 161.155 159.958 160.95L157.799 158.29Z" fill="white"/>
</svg>
