<svg width="147" height="42" viewBox="0 0 147 42" fill="none" xmlns="http://www.w3.org/2000/svg">
<path d="M4.88476 31.1365L5.1399 32.5049L13.5235 30.942L13.2683 29.5736L4.88476 31.1365ZM2.64327 34.5654L2.90428 35.9652L16.9188 33.3526L16.6578 31.9527L2.64327 34.5654ZM6.94316 34.7566C7.32255 37.6643 7.14715 39.0804 3.49829 40.4605C3.83713 40.7066 4.33887 41.2153 4.51642 41.5565C8.58623 39.9026 8.92532 37.9677 8.45315 34.4751L6.94316 34.7566ZM10.8962 33.8732L11.6646 37.9942C11.9373 39.4569 12.4156 39.8398 14.0357 39.5378C14.366 39.4762 15.9232 39.1859 16.2692 39.1214C17.6219 38.8692 17.9066 38.2139 17.6661 35.9639C17.2366 35.93 16.5635 35.8114 16.2049 35.6341C16.4675 37.3917 16.423 37.6767 15.8725 37.7793C15.5107 37.8468 14.2524 38.0814 13.9693 38.1342C13.3558 38.2485 13.2468 38.1875 13.1588 37.7156L12.3905 33.5946L10.8962 33.8732ZM1.91008 28.7126L2.59633 32.3932L4.09058 32.1146L3.67121 29.8654L13.9108 27.9565L14.3302 30.2057L15.8716 29.9184L15.1854 26.2378L1.91008 28.7126ZM6.94095 26.2774C7.46908 26.9276 8.05986 27.8266 8.3286 28.3949L9.84204 27.6083C9.53892 27.03 8.92255 26.1684 8.36882 25.5555L6.94095 26.2774ZM23.7787 24.2289L24.597 28.6173L26.0755 28.3417L25.2573 23.9533L23.7787 24.2289ZM18.1533 24.6103L18.3792 25.8214L30.2546 23.6076L30.0288 22.3965L18.1533 24.6103ZM29.6513 22.4668L29.6894 22.6713C29.603 23.5175 29.3631 24.5876 29.1344 25.2812L30.4857 25.3711C30.7843 24.6156 31.0666 23.4237 31.2652 22.3938L30.1271 22.313L29.8872 22.4229L29.6513 22.4668ZM24.9016 25.7122L25.0952 26.7504L29.405 25.9469L29.2114 24.9088L24.9016 25.7122ZM21.5815 26.673L20.6708 27.2008C22.2677 29.3933 24.2944 29.4386 27.6447 28.8141L32.3162 27.9432C32.3028 27.5225 32.4087 26.868 32.5702 26.5124C31.5881 26.7443 28.1749 27.3806 27.4199 27.5214C24.6673 28.0345 22.7988 28.1387 21.5815 26.673ZM21.793 32.3463L30.0192 30.8128L30.2656 32.134L22.0393 33.6675L21.793 32.3463ZM20.1849 31.4905L20.8506 35.061L31.971 32.9879L31.3053 29.4174L20.1849 31.4905ZM24.8377 29.6466L26.0753 36.2842L27.5381 36.0115L26.3005 29.3739L24.8377 29.6466ZM19.8079 36.8016L20.1633 38.1838C23.2129 37.5177 27.802 36.4668 32.0894 35.456L31.9411 34.3118C27.4003 35.2722 22.6362 36.258 19.8079 36.8016ZM29.0409 34.1201C30.4605 34.7506 32.321 35.7383 33.3514 36.3763L34.1349 35.2537C33.132 34.6757 31.2645 33.7381 29.8478 33.1233L29.0409 34.1201ZM20.63 25.7599C20.3981 27.6586 19.4381 29.3186 18.0708 30.4524C18.3683 30.7387 18.8551 31.4292 19.0454 31.7518C20.6618 30.2949 21.75 28.1878 22.0758 25.8322L20.63 25.7599ZM41.4468 29.252L42.7208 29.0145L42.0034 23.1588L41.6792 21.0709L39.5557 21.4667L40.0058 23.5312L41.4468 29.252ZM42.8395 33.1427C43.4844 33.0225 43.9155 32.4538 43.7835 31.746C43.6486 31.0225 43.0386 30.6317 42.3937 30.7519C41.7331 30.8751 41.305 31.4594 41.4399 32.183C41.5718 32.8908 42.1631 33.2688 42.8395 33.1427ZM53.0142 19.6251L51.6562 20.2851C54.7228 25.9959 58.9103 29.512 65.497 30.0093C65.641 29.5593 65.9769 28.8294 66.2485 28.4532C59.9516 28.1135 55.6863 24.7909 53.0142 19.6251ZM50.2549 18.9676L50.5306 20.4462L61.4937 18.4024L61.2181 16.9239L50.2549 18.9676ZM60.7934 17.003L60.852 17.3176C60.5668 24.2554 56.8108 28.5525 51.4888 31.1722C51.8749 31.4095 52.4787 32.0293 52.6907 32.3804C58.0876 29.5514 62.0288 24.7641 62.4239 17.106L61.3135 16.8247L61.0765 16.9502L60.7934 17.003ZM65.8269 16.7645L66.0938 18.1958L79.7781 15.6448L79.5112 14.2135L65.8269 16.7645ZM71.246 14.4034C71.7152 14.9995 72.2814 15.8542 72.5472 16.4069L74.154 15.6842C73.8597 15.1531 73.3022 14.3456 72.8045 13.7711L71.246 14.4034ZM70.5151 23.7517L71.0693 26.7244C71.3509 28.2344 71.952 28.5781 73.9811 28.1998C74.4058 28.1206 76.9224 27.6515 77.3471 27.5723C78.9986 27.2644 79.3737 26.6574 79.1724 24.5303C78.7302 24.5151 78.0442 24.4151 77.667 24.225C77.8787 25.7968 77.7811 26.0591 76.9789 26.2087C76.3812 26.3201 74.2892 26.7101 73.8488 26.7922C72.8579 26.9769 72.686 26.9276 72.595 26.44L72.0408 23.4673L70.5151 23.7517ZM72.5579 22.3129C73.5372 23.0255 74.7568 24.0677 75.3095 24.7621L76.4713 23.748C75.8685 23.0466 74.632 22.089 73.643 21.4108L72.5579 22.3129ZM78.2417 22.5066C79.2255 23.5927 80.2825 25.072 80.7248 26.0475L82.0634 25.1957C81.5838 24.1947 80.4883 22.7713 79.4819 21.7383L78.2417 22.5066ZM68.5449 24.1841C68.4159 25.4125 68.0723 26.9739 67.5719 28.0438L69.0792 28.4463C69.5236 27.3381 69.7867 25.6941 69.9472 24.4597L68.5449 24.1841ZM67.8477 16.7784L68.4049 19.7669C68.7158 21.4342 69.542 21.8498 71.6497 21.4569C72.2474 21.3455 76.447 20.5625 77.3121 20.4013C78.3502 20.2077 79.5427 19.9692 79.9626 19.777C79.8351 19.4427 79.6608 18.8567 79.5373 18.4565C78.973 18.6594 77.7362 18.9225 76.9341 19.072C76.0375 19.2392 72.1053 19.9722 71.2873 20.1247C70.3279 20.3036 70.0637 20.1087 69.9522 19.511L69.3892 16.491L67.8477 16.7784ZM90.0265 16.6639L90.2904 18.0795L95.5282 17.103L95.2642 15.6874L90.0265 16.6639ZM89.4602 16.7694L90.6216 22.9981C90.9412 24.7125 91.5581 25.0533 93.3198 24.7248C93.6973 24.6545 95.7892 24.2645 96.1825 24.1912C97.8497 23.8804 98.1395 23.0777 97.863 20.46C97.4207 20.4448 96.7447 20.3104 96.3674 20.1203C96.666 22.2456 96.6135 22.6623 95.8271 22.8089C95.3395 22.8998 93.5936 23.2253 93.2161 23.2956C92.3981 23.4481 92.2331 23.3487 92.1129 22.7038L90.9545 16.4909L89.4602 16.7694ZM88.3626 11.6682L88.6265 13.0838L93.7857 12.122L94.8942 18.0676L96.3885 17.789L95.016 10.4278L88.3626 11.6682ZM82.8367 16.6859L83.0478 17.8184L87.9081 16.9123L87.697 15.7798L82.8367 16.6859ZM82.9543 18.9751L83.1684 20.1233L88.6106 19.1088L88.3965 17.9605L82.9543 18.9751ZM81.6437 14.5646L81.8665 15.76L88.284 14.5636L88.0611 13.3682L81.6437 14.5646ZM84.287 20.9727L84.5128 22.1838L87.4384 21.6384L87.8666 23.9348L84.941 24.4802L85.1668 25.6914L89.4136 24.8997L88.5338 20.181L84.287 20.9727ZM83.5635 21.1076L84.5694 26.5026L85.8749 26.2592L84.869 20.8642L83.5635 21.1076ZM83.0633 12.3143C83.678 12.8182 84.3554 13.5708 84.6783 14.0802L85.7791 13.1752C85.4405 12.6687 84.7591 11.9819 84.1158 11.4996L83.0633 12.3143ZM103.965 7.88071C104.02 8.44002 104.028 9.26859 103.992 9.86122L105.151 9.79166C105.249 9.26888 105.334 8.50429 105.417 7.72398L103.965 7.88071ZM104.317 12.3885L106.456 11.9897L106.655 13.0593L104.516 13.4581L104.317 12.3885ZM103.936 10.3438L106.075 9.94497L106.271 10.9988L104.132 11.3976L103.936 10.3438ZM102.56 9.50983L103.533 14.7318L108.079 13.8844L107.105 8.66241L102.56 9.50983ZM103.598 16.0381L103.818 17.2178L108.898 16.2707L108.678 15.091L103.598 16.0381ZM105.507 17.8958L105.473 19.0251L108.367 18.4855L108.165 17.4002L105.507 17.8958ZM107.583 17.5087L107.615 17.6817C107.891 19.8601 107.902 20.7044 107.754 20.9597C107.665 21.0904 107.56 21.1424 107.387 21.1746C107.214 21.2069 106.85 21.2586 106.385 21.2964C106.616 21.5788 106.812 22.0144 106.892 22.3575C107.414 22.2764 107.914 22.1669 108.179 22.1013C108.516 21.9896 108.734 21.8512 108.923 21.5556C109.183 21.1165 109.162 20.1277 108.885 17.7705C108.868 17.5946 108.825 17.2771 108.825 17.2771L107.583 17.5087ZM104.964 16.646C105.307 19.0072 105.375 20.7686 103.974 22.0714C104.295 22.2231 104.736 22.5803 104.93 22.837C106.595 21.2898 106.61 19.1874 106.207 16.4143L104.964 16.646ZM108.325 7.08421C108.545 9.66349 108.522 12.158 107.793 13.9215C108.097 14.1577 108.592 14.7165 108.771 14.9761C109.673 12.9199 109.799 10.0157 109.618 7.03838L108.325 7.08421ZM109.103 10.2105L108.975 11.6179L112.655 10.9317L112.406 9.59477L109.103 10.2105ZM109.362 11.5131L108.445 11.8306C109.715 15.9393 111.316 19.5471 113.657 21.1939C113.797 20.8098 114.159 20.2214 114.414 19.9297C112.176 18.573 110.544 15.2315 109.362 11.5131ZM110.825 10.2801C111.329 14.906 111.045 18.8815 108.911 21.0533C109.288 21.2434 109.795 21.6047 110.055 21.8654C112.157 19.5205 112.47 15.263 111.988 10.5841L110.825 10.2801ZM105.073 14.7865C105.381 15.2173 105.772 15.8281 105.955 16.2008L107.171 15.6487C106.972 15.2789 106.59 14.7154 106.235 14.2933L105.073 14.7865ZM101.551 14.9224C102.102 15.9589 102.689 17.3631 102.961 18.2076L103.883 17.7427C103.633 16.9267 102.989 15.5657 102.422 14.5321L101.551 14.9224ZM101.263 19.1426C101.635 20.2614 102.052 21.7136 102.234 22.6888L103.255 22.3193C103.055 21.3313 102.625 19.8978 102.24 18.7976L101.263 19.1426ZM99.774 19.2737C99.8875 20.6685 99.9617 22.2009 99.7591 23.2966C100.07 23.3038 100.637 23.3771 100.912 23.456C101.054 22.3878 101.041 20.7464 100.91 19.2572L99.774 19.2737ZM98.7107 15.1426C98.6638 14.8909 99.3583 14.3383 99.3583 14.3383L99.3524 14.3068C99.9299 12.8646 100.446 10.8316 100.705 8.99288L99.4406 8.75666C99.3484 10.5316 98.8451 12.546 98.6627 13.052C98.502 13.5865 98.3276 13.9608 98.1034 14.0677C98.2879 14.3588 98.5852 14.9056 98.7107 15.1426ZM98.7107 15.1426C98.936 14.9541 99.3588 14.7776 101.504 14.1498C101.451 13.8667 101.405 13.3546 101.419 12.9939L99.0288 13.6185L98.4887 14.1261L98.7107 15.1426ZM99.4895 18.7082C99.4426 18.4566 100.14 17.9197 100.14 17.9197L100.134 17.8882C101.156 16.0376 102.042 13.5449 102.613 11.1926L101.382 10.7873C100.984 13.1075 100.031 15.6776 99.715 16.3388C99.4018 17.0157 99.1792 17.4803 98.8635 17.6205C99.0637 17.9087 99.3639 18.4712 99.4895 18.7082ZM99.4895 18.7082C99.759 18.4952 100.239 18.2756 103.145 17.278C103.08 17.0136 103.014 16.4887 102.997 16.1338L99.7859 17.1556L99.233 17.6819L99.4895 18.7082ZM102.582 18.6201C102.98 19.3596 103.444 20.3636 103.664 21.0223L104.584 20.5417C104.351 19.9016 103.858 18.9192 103.447 18.1983L102.582 18.6201ZM123.014 10.0098L124.718 19.1483L126.212 18.8697L124.508 9.7312L123.014 10.0098ZM119.018 12.9355L119.27 14.2882L129.447 12.3911L129.195 11.0384L119.018 12.9355ZM120.503 6.92979L125.819 5.93869L126.294 8.48678L120.978 9.47788L120.503 6.92979ZM118.841 5.87246L119.808 11.063L128.035 9.52944L127.067 4.3389L118.841 5.87246ZM116.906 5.53332C116.459 8.02541 115.409 10.5975 114.156 12.3447C114.487 12.6409 115.046 13.3668 115.252 13.6865C116.654 11.6023 117.814 8.57035 118.372 5.7157L116.906 5.53332ZM116.019 10.028L117.945 20.362L119.377 20.0951L117.189 8.36133L117.17 8.34853L116.019 10.028ZM121.53 14.5343C121.158 15.8569 120.479 17.3668 119.784 18.4404C120.165 18.5646 120.792 18.871 121.101 19.0413C121.768 17.9078 122.503 16.1757 122.943 14.694L121.53 14.5343ZM126.111 14.315C127.242 15.2273 128.596 16.5536 129.262 17.4222L130.32 16.4601C129.625 15.6131 128.273 14.3841 127.114 13.4934L126.111 14.315ZM131.975 5.26298L132.148 6.19099L143.159 4.13842L142.669 1.51168L130.558 3.76951L130.731 4.69752L141.489 2.69187L141.633 3.46258L131.975 5.26298ZM131.535 5.34508C131.605 6.2435 131.628 7.32959 131.596 8.11684L132.917 7.87053C132.94 7.11767 132.903 6.05024 132.841 5.10171L131.535 5.34508ZM132.049 7.05581L131.942 8.05233L143.55 5.88833L143.374 4.94459L132.049 7.05581ZM142.918 5.02963L142.947 5.18692C143.037 6.01655 143.036 6.35859 142.949 6.50494C142.872 6.61691 142.781 6.65023 142.623 6.67956C142.45 6.71181 142.07 6.76646 141.608 6.82003C141.797 7.04531 141.98 7.418 142.046 7.68246C142.633 7.60543 143.2 7.49987 143.48 7.43136C143.807 7.35405 144.073 7.2069 144.255 6.96137C144.441 6.64999 144.444 6.1448 144.369 5.21493C144.339 5.05764 144.302 4.77159 144.302 4.77159L142.918 5.02963ZM134.167 2.26653L134.725 5.25503C135.021 6.84365 134.702 8.18887 130.723 9.63053C131.024 9.851 131.457 10.3399 131.645 10.6468C136.104 8.98546 136.485 7.18918 136.083 5.03431L135.52 2.01436L134.167 2.26653ZM137.659 1.61557L138.823 7.85996L140.239 7.59606L139.075 1.35167L137.659 1.61557ZM134.614 11.2976L142.038 9.91357L142.194 10.7472L134.77 12.1312L134.614 11.2976ZM134.928 12.9806L142.352 11.5966L142.511 12.4459L135.086 13.8299L134.928 12.9806ZM134.303 9.63032L141.727 8.2463L141.88 9.0642L134.456 10.4482L134.303 9.63032ZM132.689 9.00354L133.807 14.9963L144.188 13.061L143.07 7.06825L132.689 9.00354ZM140.317 14.3848C142.181 14.6069 144.087 14.9676 145.238 15.2902L146.169 14.1727C144.911 13.8864 142.866 13.5677 141.008 13.3771L140.317 14.3848ZM136.416 14.4122C135.407 15.2024 133.614 16.0576 132.018 16.6643C132.395 16.8544 133.017 17.3081 133.306 17.5473C134.818 16.8422 136.699 15.759 137.851 14.7793L136.416 14.4122Z" fill="black"/>
</svg>
