<svg width="169" height="46" viewBox="0 0 169 46" fill="none" xmlns="http://www.w3.org/2000/svg">
<path d="M10.8574 2.07736C9.93296 4.2567 8.62234 6.3213 7.19687 7.5384C7.50609 7.81855 8.02181 8.40995 8.23101 8.70545C9.73075 7.33873 11.208 5.05914 12.2675 2.65941L10.8574 2.07736ZM9.34307 8.84696C8.62028 10.6063 7.59516 12.3301 6.44939 13.3354C6.77977 13.5867 7.34321 14.0888 7.58665 14.374C8.74091 13.2241 9.91916 11.3641 10.7428 9.39477L9.34307 8.84696ZM10.4271 4.97428L9.63788 6.26774L17.0187 7.53013L17.2559 6.14226L10.4271 4.97428ZM12.5011 5.94583L10.9023 15.2982C10.8673 15.5032 10.7776 15.5528 10.5884 15.5204C10.3676 15.4827 9.68675 15.3824 8.98245 15.2295C9.13314 15.6773 9.24071 16.3775 9.24677 16.8168C10.2403 16.9867 10.9739 17.0635 11.4875 16.9079C12.0353 16.7418 12.25 16.3403 12.3821 15.5675L13.9835 6.19939L12.5011 5.94583ZM14.2412 10.0094C14.7809 11.7898 15.1447 14.1246 15.1202 15.5975L16.6232 15.3514C16.6189 13.8573 16.2443 11.5856 15.6573 9.79705L14.2412 10.0094ZM16.8301 6.06943L16.7951 6.27446C16.4856 7.32532 16.0645 8.64928 15.7666 9.44241L17.0036 9.89747C17.3623 9.03357 17.8861 7.67849 18.3014 6.4834L17.2956 6.10034L17.0352 6.1045L16.8301 6.06943ZM7.5928 1.519C6.34216 3.70748 4.52646 5.78308 2.75902 7.00662C2.96782 7.39945 3.24037 8.27391 3.3203 8.66093C5.34398 7.1728 7.4375 4.70644 8.92093 2.20066L7.5928 1.519ZM5.29857 5.4444L3.52729 15.8061L4.94668 16.0489L6.9579 4.28353L6.94483 4.26506L5.29857 5.4444ZM19.4577 10.5445L19.2312 11.8692L33.1885 14.2564L33.415 12.9317L19.4577 10.5445ZM26.0062 14.5863L25.7852 15.8796L31.6835 16.8884L31.9046 15.5952L26.0062 14.5863ZM25.7028 12.2781L24.6918 18.1923L26.2058 18.4513L27.2168 12.5371L25.7028 12.2781ZM22.4615 14.3372L21.1586 14.5526C21.8676 18.0015 23.8992 19.0307 27.5739 19.6592L31.974 20.4118C32.1283 19.9837 32.4781 19.3618 32.7555 19.0683C31.7881 18.9353 28.6024 18.3904 27.8769 18.2664C24.9304 17.7462 22.9557 16.9539 22.4615 14.3372ZM21.7264 12.7505C20.952 14.9068 19.6618 16.4717 17.8437 17.2321C18.1372 17.5095 18.6263 18.1613 18.8013 18.4672C20.7491 17.518 22.2216 15.7408 23.1738 13.2091L21.7264 12.7505ZM22.9956 7.98427L30.7865 9.31679L30.6032 10.3892L22.8123 9.05671L22.9956 7.98427ZM23.3515 5.90247L31.1424 7.23499L30.9617 8.29166L23.1709 6.95914L23.3515 5.90247ZM22.1051 4.55302L21.1911 9.89946L31.9312 11.7364L32.8451 6.38995L22.1051 4.55302ZM36.6727 7.54782L36.4112 9.07763L50.0689 11.4136L50.3304 9.88378L36.6727 7.54782ZM43.5148 13.7663C45.1073 15.3698 47.1337 17.6642 48.0116 19.0805L49.4543 18.1423C48.4976 16.7125 46.3919 14.5019 44.8147 12.9985L43.5148 13.7663ZM43.8173 9.33792C41.9203 11.984 38.5296 14.5369 34.84 15.6102C35.0961 16.0112 35.4668 16.6914 35.636 17.1261C39.5553 15.8486 42.9963 13.1907 45.3577 10.202L43.8173 9.33792ZM41.9994 12.5657L40.3683 22.1072L41.9927 22.3851L43.8988 11.2348L41.9994 12.5657ZM51.6305 16.0472L51.404 17.372L65.3613 19.7592L65.5878 18.4344L51.6305 16.0472ZM58.179 20.089L57.958 21.3823L63.8563 22.3911L64.0774 21.0979L58.179 20.089ZM57.8756 17.7808L56.8646 23.6951L58.3787 23.954L59.3897 18.0398L57.8756 17.7808ZM54.6343 19.8399L53.3314 20.0553C54.0404 23.5042 56.072 24.5334 59.7467 25.1619L64.1468 25.9145C64.3011 25.4864 64.6509 24.8645 64.9283 24.571C63.9609 24.438 60.7752 23.8932 60.0497 23.7691C57.1032 23.2489 55.1285 22.4566 54.6343 19.8399ZM53.8992 18.2532C53.1248 20.4095 51.8346 21.9744 50.0165 22.7348C50.31 23.0122 50.7991 23.664 50.9741 23.9699C52.9219 23.0207 54.3944 21.2435 55.3466 18.7118L53.8992 18.2532ZM55.1684 13.487L62.9593 14.8195L62.776 15.8919L54.9851 14.5594L55.1684 13.487ZM55.5243 11.4052L63.3152 12.7377L63.1346 13.7944L55.3437 12.4619L55.5243 11.4052ZM54.2779 10.0557L53.3639 15.4022L64.104 17.2391L65.0179 11.8927L54.2779 10.0557ZM71.9841 16.7202L71.8115 17.7295L82.0942 19.4883L82.2668 18.4789L71.9841 16.7202ZM74.1653 19.7229L79.0859 20.5645L78.9025 21.6369L73.982 20.7953L74.1653 19.7229ZM72.9915 18.6131L72.5036 21.4677L80.1367 22.7733L80.6247 19.9187L72.9915 18.6131ZM79.3244 15.0863L80.6491 15.3129L80.4334 16.5746L79.1087 16.348L79.3244 15.0863ZM76.8641 14.6655L78.1731 14.8894L77.9574 16.1511L76.6484 15.9272L76.8641 14.6655ZM74.4511 14.2528L75.7128 14.4686L75.4971 15.7303L74.2354 15.5145L74.4511 14.2528ZM73.3693 13.175L72.857 16.1715L81.5784 17.6632L82.0906 14.6666L73.3693 13.175ZM80.2741 22.6344C79.6754 23.0028 78.6579 23.543 77.9623 23.8136L78.6561 24.5978C79.3647 24.3456 80.3265 23.942 81.1017 23.4902L80.2741 22.6344ZM76.0891 21.383C74.8445 22.1116 72.5879 22.6833 70.888 22.8471C71.0869 23.1084 71.3506 23.5593 71.4783 23.8571C73.2101 23.6014 75.5568 22.8827 76.9414 21.9995L76.0891 21.383ZM72.8531 25.9751C73.1747 25.8029 73.6775 25.7103 76.8938 25.2216C76.8739 24.9585 76.8786 24.4561 76.9167 24.1379L73.5165 24.5628L72.9364 24.9181L72.8531 25.9751ZM76.0714 23.1006C77.261 24.2131 78.8432 25.7823 79.6285 26.6957L80.6938 26.0663C79.8743 25.1632 78.2497 23.6517 77.0836 22.5919L76.0714 23.1006ZM72.8531 25.9751C72.9205 25.5809 74.3526 25.2739 74.3526 25.2739L74.7759 22.7978L73.5773 22.5928L73.3104 24.1542C73.2134 24.722 72.8629 24.873 72.5971 24.9087C72.7328 25.1592 72.8385 25.6805 72.8531 25.9751ZM69.0445 12.6463C69.5721 13.5481 70.2192 14.7951 70.4845 15.5222L71.8021 14.936C71.5026 14.2192 70.8551 13.0696 70.2933 12.1781L69.0445 12.6463ZM68.0276 15.5565L67.82 16.7709L70.9111 17.2996L71.1187 16.0852L68.0276 15.5565ZM69.7217 23.1183L68.6553 23.3742C69.3609 26.368 71.3199 27.1576 75.0418 27.7942C76.8397 28.1017 78.8796 28.4181 80.4571 28.5905C80.606 28.194 80.9112 27.5482 81.1832 27.2863C79.453 27.1527 76.9793 26.8107 75.276 26.5194C72.2191 25.9803 70.2778 25.3724 69.7217 23.1183ZM69.9639 19.8971L69.9235 20.1336C69.102 22.85 67.7476 24.6961 66.0633 25.5281C66.3279 25.7844 66.7305 26.3727 66.887 26.6916C68.6902 25.7339 70.2193 23.6255 71.2509 20.3445L70.6474 19.9815L70.4055 19.9726L69.9639 19.8971ZM67.4529 20.9123C67.6007 20.8077 68.0427 20.7859 68.4369 20.8533L70.4714 21.2013L70.6736 20.0185L68.3079 19.6138L67.639 19.8241L67.4529 20.9123ZM67.4529 20.9123C67.5122 20.5653 68.6421 20.2229 68.6421 20.2229C69.6005 19.3642 71.2023 17.4955 72.0349 16.5179L71.1507 15.9933L70.7267 16.0993L70.7213 16.1309C70.1157 16.9201 68.4743 18.8307 67.9703 19.2152C67.6825 19.4744 67.4113 19.5416 67.1612 19.58C67.2574 19.8724 67.428 20.5834 67.4529 20.9123ZM91.7357 17.3065L91.5039 18.6628L96.9606 19.5961L97.1925 18.2398L91.7357 17.3065ZM88.5745 22.8854L88.3426 24.2417L95.8496 25.5257L96.0815 24.1693L88.5745 22.8854ZM96.609 18.14L96.5766 18.3292C96.001 20.7468 95.6604 21.6949 95.3464 21.9172C95.1672 22.0164 95.0068 22.0052 94.7544 21.962C94.439 21.9081 93.7005 21.7655 92.9542 21.573C93.1261 21.9919 93.1998 22.6051 93.1613 23.0206C93.9917 23.1951 94.7645 23.3273 95.1957 23.3685C95.7085 23.4076 96.0586 23.3538 96.4306 23.0766C96.9346 22.692 97.331 21.6073 97.9601 18.9717C98.0083 18.7851 98.0914 18.3935 98.0914 18.3935L96.609 18.14ZM91.6787 15.8358C90.8996 18.4945 89.6917 20.528 87.8146 21.538C88.1396 21.8208 88.7184 22.423 88.9303 22.7027C90.8609 21.4746 92.2458 19.2604 93.1761 16.2867L91.6787 15.8358ZM95.5768 24.083L95.539 24.3038C93.8455 27.3742 90.2893 28.6165 86.4253 28.6211C86.6525 29.0009 86.8786 29.6726 86.9531 30.0912C91.173 29.9039 94.9612 28.539 97.0603 24.7101L96.1553 24.117L95.8764 24.1343L95.5768 24.083ZM90.701 24.499L89.2953 24.7455C90.3322 27.796 92.6343 30.1863 95.8953 31.6206C96.1861 31.2483 96.7171 30.7061 97.1022 30.4473C93.922 29.2054 91.5637 27.0489 90.701 24.499ZM85.2758 15.9743C86.207 16.6043 87.3366 17.5929 87.8361 18.279L88.9111 17.2129C88.3931 16.54 87.2212 15.6091 86.2819 15.0264L85.2758 15.9743ZM83.662 20.0973C84.6117 20.7142 85.7651 21.6582 86.2858 22.3154L87.3319 21.2282C86.777 20.5814 85.5866 19.6635 84.642 19.1124L83.662 20.0973ZM82.8183 28.1665L83.9286 29.3628C85.0652 28.0314 86.4007 26.2957 87.4724 24.7746L86.5171 23.621C85.3266 25.2679 83.8302 27.0897 82.8183 28.1665ZM100.784 18.5943L100.528 20.0926L114.627 22.5041L114.883 21.0058L100.784 18.5943ZM106.498 20.8703L104.414 33.0614L106.007 33.3339L108.091 21.1427L106.498 20.8703ZM106.703 24.801C108.397 26.0971 110.572 27.995 111.569 29.1882L112.889 28.018C111.811 26.8271 109.574 25 107.912 23.8066L106.703 24.801ZM127.58 22.8853C128.224 23.6771 128.961 24.7772 129.248 25.4754L130.536 24.868C130.203 24.1616 129.442 23.1062 128.779 22.3274L127.58 22.8853ZM116.435 23.6087L116.222 24.8546L130.463 27.2904L130.676 26.0444L116.435 23.6087ZM117.53 21.4748L117.331 22.6418L124.191 23.8152L124.391 22.6481L117.53 21.4748ZM116.497 25.8106L116.311 26.8988L123.755 28.172L123.941 27.0838L116.497 25.8106ZM115.171 32.239L114.979 33.3588L122.66 34.6724L122.851 33.5527L115.171 32.239ZM120.461 20.7586L119.684 25.3007L121.104 25.5435L121.88 21.0013L120.461 20.7586ZM117.207 30.2012L121.812 30.9889L121.68 31.7616L117.075 30.974L117.207 30.2012ZM117.466 28.6872L122.071 29.4748L121.942 30.2318L117.337 29.4442L117.466 28.6872ZM116.515 27.6967L115.852 31.5764L122.665 32.7417L123.328 28.862L116.515 27.6967ZM119.239 28.6658L118.708 31.7727L118.613 31.7565L117.988 35.4154L119.312 35.642L119.938 31.9831L119.828 31.9642L120.359 28.8573L119.239 28.6658ZM119.681 25.4138L119.164 28.4419L120.52 28.6738L121.038 25.6458L119.681 25.4138ZM125.41 21.6213C124.123 29.3389 123.826 36.3977 127.011 36.9426C128.273 37.1584 128.883 36.5323 129.552 33.952C129.195 33.7611 128.747 33.3436 128.485 32.9742C128.067 34.8506 127.78 35.5806 127.386 35.5132C125.635 35.2138 125.569 29.0504 126.908 21.8776L125.41 21.6213ZM128.391 27.7314C126.723 31.0334 124.219 33.6243 121.176 34.8082C121.487 35.1699 121.848 35.7185 122.007 36.119C125.24 34.6755 127.821 31.9192 129.643 28.3838L128.391 27.7314ZM133.414 36.9014C134.455 37.0794 135.474 36.7181 136.379 36.1748L136.442 36.1856L136.417 37.1877L137.915 37.4439L138.805 32.2394C139.201 29.9211 138.442 28.379 136.281 28.0095C134.893 27.7721 133.563 28.1453 132.586 28.5462L133.051 29.9081C133.857 29.5591 134.798 29.2816 135.712 29.438C136.974 29.6538 137.186 30.5991 137.029 31.6111C133.366 31.3904 131.624 32.0827 131.306 33.9437C131.045 35.4735 131.931 36.6478 133.414 36.9014ZM134.23 35.5475C133.457 35.4154 132.933 34.9686 133.078 34.1169C133.245 33.1391 134.208 32.6382 136.829 32.7782L136.468 34.8915C135.645 35.4325 134.987 35.677 134.23 35.5475ZM140.187 41.4524L142.016 41.7653L142.496 38.958L142.684 37.4805C143.302 38.2354 144.031 38.7173 144.804 38.8494C146.759 39.1839 148.835 37.7697 149.342 34.8047C149.8 32.1236 148.854 30.1599 146.662 29.7849C145.684 29.6177 144.662 29.9948 143.794 30.5119L143.747 30.5038L143.754 29.5148L142.271 29.2612L140.187 41.4524ZM144.715 37.2761C144.179 37.1843 143.552 36.866 142.974 36.1665L143.699 31.924C144.543 31.3542 145.251 31.102 145.914 31.2153C147.365 31.4635 147.773 32.6858 147.463 34.4994C147.115 36.5339 145.961 37.4891 144.715 37.2761ZM150.436 43.2054L152.266 43.5183L152.746 40.711L152.933 39.2335C153.551 39.9884 154.28 40.4703 155.053 40.6024C157.009 40.9369 159.085 39.5227 159.591 36.5577C160.05 33.8766 159.103 31.9129 156.911 31.5379C155.933 31.3707 154.911 31.7478 154.043 32.2649L153.996 32.2568L154.003 31.2678L152.52 31.0142L150.436 43.2054ZM154.965 39.0291C154.429 38.9373 153.801 38.619 153.223 37.9195L153.948 33.677C154.792 33.1072 155.501 32.855 156.163 32.9683C157.614 33.2165 158.022 34.4388 157.712 36.2524C157.364 38.2869 156.211 39.2421 154.965 39.0291ZM162.968 37.9305L164.576 38.2057C164.713 35.7941 167.666 35.4226 168.056 33.1358C168.375 31.2748 167.291 30.0181 165.446 29.7025C164.121 29.4759 162.956 29.9261 162.033 30.6771L162.896 31.7987C163.535 31.2911 164.243 31.0389 164.985 31.1657C165.978 31.3356 166.42 32.0767 166.269 32.9599C165.977 34.6632 163.045 35.2005 162.968 37.9305ZM163.135 41.9848C163.813 42.1008 164.441 41.6563 164.568 40.915C164.697 40.158 164.25 39.5458 163.572 39.4298C162.878 39.3111 162.268 39.7426 162.139 40.4996C162.012 41.2409 162.441 41.8661 163.135 41.9848Z" fill="black"/>
</svg>
