<svg width="117" height="49" viewBox="0 0 117 49" fill="none" xmlns="http://www.w3.org/2000/svg">
<path d="M5.34307 14.394C6.39719 14.4569 7.37097 13.9861 8.21054 13.3469L8.27443 13.3508L8.35907 14.3496L9.87637 14.4401L10.191 9.1695C10.3311 6.82168 9.40781 5.3721 7.2197 5.24151C5.8142 5.15763 4.53315 5.67423 3.60537 6.17985L4.21684 7.48259C4.98013 7.0473 5.88431 6.66849 6.81066 6.72378C8.08839 6.80003 8.40235 7.71636 8.35731 8.7395C4.69196 8.92146 3.03665 9.8004 2.92417 11.685C2.8317 13.2343 3.84174 14.3044 5.34307 14.394ZM6.00574 12.9589C5.22314 12.9122 4.65316 12.5255 4.70464 11.6631C4.76374 10.6728 5.66529 10.0695 8.28677 9.9214L8.15903 12.0616C7.40027 12.6895 6.77238 13.0047 6.00574 12.9589ZM12.5737 18.1755L14.4264 18.286L14.5961 15.4431L14.6209 13.9539C15.3175 14.6366 16.0951 15.0357 16.8777 15.0824C18.8581 15.2006 20.7668 13.5674 20.9461 10.5647C21.1081 7.84956 19.9522 6.00141 17.7321 5.86891C16.7419 5.80981 15.7671 6.29661 14.9614 6.90569L14.9135 6.90283L14.8119 5.91903L13.3106 5.82943L12.5737 18.1755ZM16.6178 13.5281C16.0748 13.4957 15.4164 13.2481 14.7649 12.6161L15.0213 8.31976C15.7979 7.66086 16.4747 7.3326 17.1455 7.37263C18.6149 7.46033 19.1541 8.63053 19.0445 10.4673C18.9215 12.5276 17.8796 13.6034 16.6178 13.5281ZM22.9534 18.7949L24.8061 18.9055L24.9758 16.0626L25.0005 14.5734C25.6971 15.2561 26.4747 15.6551 27.2573 15.7018C29.2378 15.82 31.1465 14.1869 31.3257 11.1842C31.4878 8.46903 30.3318 6.62088 28.1118 6.48839C27.1215 6.42929 26.1468 6.91608 25.3411 7.52516L25.2932 7.5223L25.1916 6.5385L23.6903 6.4489L22.9534 18.7949ZM26.9975 14.1476C26.4544 14.1152 25.796 13.8675 25.1445 13.2356L25.4009 8.93924C26.1776 8.28034 26.8543 7.95207 27.5251 7.99211C28.9945 8.0798 29.5338 9.25001 29.4241 11.0867C29.3012 13.1471 28.2592 14.2229 26.9975 14.1476ZM40.7965 3.3986L40.7203 4.67633L47.1089 5.05761L47.1852 3.77988L40.7965 3.3986ZM42.8752 4.01954C42.583 6.23006 41.6967 7.65178 39.9053 8.39438C40.2133 8.6051 40.7766 9.10355 41.0019 9.35742C42.8376 8.4091 43.8951 6.80525 44.2919 4.18424L42.8752 4.01954ZM46.4025 3.73318L46.3902 3.94081C46.1399 6.52248 45.9549 7.47315 45.7151 7.73132C45.5957 7.85242 45.435 7.85886 45.2274 7.84647C44.9878 7.83217 44.4288 7.79881 43.8097 7.69775C43.9964 8.06152 44.1077 8.61313 44.0999 9.01337C44.8176 9.07224 45.4884 9.11227 45.8737 9.10321C46.2918 9.08008 46.6019 8.98639 46.8915 8.69913C47.2846 8.28982 47.512 7.16537 47.7907 4.37702C47.8171 4.20228 47.84 3.81897 47.84 3.81897L46.4025 3.73318ZM33.9869 4.16227L33.9088 5.47194L40.1696 5.8456L40.2478 4.53593L33.9869 4.16227ZM33.4516 7.22381L33.3715 8.56543L40.2872 8.97817L40.3673 7.63655L33.4516 7.22381ZM36.9229 10.829L36.8448 12.1387L39.9113 12.3217L39.9895 11.012L36.9229 10.829ZM36.5533 2.52025L36.2206 8.09433L37.6102 8.17726L37.9428 2.60318L36.5533 2.52025ZM36.4535 8.22043L36.0245 15.4076L37.3821 15.4887L37.8111 8.30145L36.4535 8.22043ZM34.9456 11.4644L33.8226 11.75C34.641 16.0303 36.5719 16.979 40.8842 17.2364L47.0812 17.6063C47.2037 17.1648 47.5012 16.4773 47.7608 16.1562C46.5601 16.1326 41.9283 15.8562 40.955 15.782C37.3614 15.5676 35.5919 14.8689 34.9456 11.4644ZM33.9343 9.60881C33.7525 12.3869 33.4572 14.9178 32.4834 16.4625C32.8102 16.6263 33.4122 17.0149 33.6563 17.2218C34.6734 15.4873 35.0412 12.8165 35.2712 9.76874L33.9343 9.60881ZM42.2548 10.9228L45.529 11.1183L45.3784 13.6418L42.1042 13.4464L42.2548 10.9228ZM40.9077 9.59223L40.6093 14.5913L46.8223 14.9621L47.1207 9.96302L40.9077 9.59223ZM56.7564 4.81594L56.6744 6.1895L62.9193 6.5622L63.0013 5.18865L56.7564 4.81594ZM55.7351 10.381L55.6493 11.8184L64.1781 12.3274L64.2639 10.89L55.7351 10.381ZM59.3987 8.88458L58.9145 16.9981C58.9011 17.2217 58.8165 17.2968 58.5609 17.2816C58.3054 17.2663 57.395 17.212 56.5175 17.1436C56.7013 17.5553 56.9037 18.1925 56.9588 18.6125C58.2205 18.6878 59.037 18.7045 59.6253 18.5152C60.2137 18.3259 60.4301 17.9221 60.4787 17.1075L60.9639 8.978L59.3987 8.88458ZM62.4263 5.15433L62.4073 5.47376C61.8004 6.51145 60.5391 8.03902 59.3987 8.88458C59.6419 9.10746 60.0502 9.51652 60.2257 9.79947C61.6602 8.85927 63.1649 7.28211 64.1761 5.91592L63.1827 5.1033L62.8256 5.17816L62.4263 5.15433ZM49.6566 12.0538C51.3877 13.6638 53.6717 15.9479 54.7077 17.3882L55.7723 16.2015C54.7025 14.7913 52.3498 12.5832 50.6299 11.054L49.6566 12.0538ZM49.6566 12.0538L51.0034 12.583C51.7824 10.2733 52.7421 6.54786 53.2219 3.61123L51.7413 3.44272C51.35 6.24038 50.426 9.90384 49.6566 12.0538ZM54.2263 5.85104L54.129 7.48014C53.9632 10.2592 53.3949 14.4087 49.0021 17.1118C49.3232 17.3714 49.8047 17.897 50.0092 18.2298C54.7067 15.2564 55.3646 10.6794 55.5495 7.58095L55.6477 5.93588L54.2263 5.85104ZM49.5802 6.88809L49.6372 8.35009C51.4647 8.34695 53.9817 8.33689 56.387 8.32015L56.484 6.96352C53.9519 6.95666 51.3409 6.92906 49.5802 6.88809ZM68.7191 5.52989L68.6333 6.96734L78.7274 7.56977L78.8132 6.13232L68.7191 5.52989ZM68.498 9.2353L68.4131 10.6568L78.5072 11.2592L78.592 9.83773L68.498 9.2353ZM68.2072 13.0327L68.1224 14.4542L78.3282 15.0633L78.4131 13.6418L68.2072 13.0327ZM67.8567 5.47842L67.5125 11.2442C67.3781 13.4962 67.0487 16.3296 65.1746 18.1892C65.4986 18.4009 66.075 18.9482 66.2974 19.25C68.3567 17.2411 68.8492 13.8244 68.9969 11.3488L69.342 5.56707L67.8567 5.47842ZM78.2542 6.09896L77.5488 17.9179C77.5316 18.2054 77.4141 18.2946 77.1097 18.2924C76.8062 18.2743 75.7351 18.2264 74.6999 18.1166C74.8837 18.5282 75.0841 19.1974 75.1242 19.6005C76.6086 19.7051 77.5528 19.7294 78.1581 19.5251C78.7633 19.3208 78.9967 18.9019 79.0501 18.0075L79.7555 6.18856L78.2542 6.09896ZM72.7905 6.33388L72.0145 19.3347L73.5478 19.4262L74.3237 6.42538L72.7905 6.33388ZM83.8674 7.92461L83.7883 9.25026L87.286 9.45901L86.8142 17.3649L83.3164 17.1562L83.2363 18.4978L88.1076 18.7885L88.7387 8.21534L83.8674 7.92461ZM82.973 7.87123L82.2685 19.6742L83.658 19.7572L84.3625 7.95416L82.973 7.87123ZM83.5273 12.2801L83.4482 13.6057L87.7126 13.8602L87.7917 12.5346L83.5273 12.2801ZM85.5081 5.4099C85.3458 6.24972 85.0018 7.44735 84.6986 8.23068L85.8953 8.59061C86.2586 7.87498 86.7246 6.7808 87.122 5.76267L85.5081 5.4099ZM90.9476 8.26703L90.8646 9.65656L95.6721 9.94347L95.755 8.55395L90.9476 8.26703ZM95.2279 8.52249L95.2098 8.82595C94.6083 15.6823 94.2076 18.3672 93.6472 18.8947C93.4581 19.1079 93.2636 19.1443 92.9442 19.1253C92.5609 19.1024 91.6035 19.0292 90.5701 18.8874C90.8178 19.3029 90.9713 19.9532 90.9775 20.3863C91.886 20.4726 92.8424 20.5618 93.4212 20.5322C94.0329 20.4885 94.4417 20.3527 94.8565 19.8485C95.5599 19.073 95.9172 16.5779 96.5746 9.32414C96.602 9.13343 96.6334 8.60637 96.6334 8.60637L95.2279 8.52249ZM91.3068 5.73994C90.666 7.88157 89.657 10.0173 88.488 11.342C88.8279 11.5546 89.4251 12.023 89.6823 12.2788C90.8589 10.8263 91.9912 8.50563 92.7401 6.16209L91.3068 5.73994ZM90.1452 12.5789C90.9062 13.7944 91.8499 15.4375 92.255 16.4394L93.5954 15.734C93.1405 14.7612 92.1469 13.1472 91.3672 11.9786L90.1452 12.5789ZM104.903 16.1364L106.197 16.2137L106.915 10.358L107.105 8.2536L104.949 8.12492L104.887 10.237L104.903 16.1364ZM105.315 20.2483C105.97 20.2874 106.526 19.8397 106.569 19.1209C106.612 18.3863 106.115 17.8597 105.46 17.8206C104.789 17.7806 104.233 18.2442 104.189 18.9789C104.146 19.6976 104.628 20.2073 105.315 20.2483ZM5.58895 36.592L11.3866 36.9381L11.318 38.088L5.52031 37.742L5.58895 36.592ZM5.71669 34.4519L11.5144 34.7979L11.4467 35.9318L5.649 35.5858L5.71669 34.4519ZM4.29329 33.3251L3.97299 38.6915L12.8212 39.2196L13.1415 33.8531L4.29329 33.3251ZM1.92513 28.4233L1.84696 29.7329L16.0776 30.5822L16.1558 29.2726L1.92513 28.4233ZM8.33328 26.8663L7.91098 33.9417L9.41231 34.0313L9.83461 26.9559L8.33328 26.8663ZM7.49135 29.1562C6.17265 30.8406 3.67778 32.3587 1.33211 32.988C1.63343 33.3106 2.03225 33.8793 2.23393 34.26C4.67089 33.4438 7.2082 31.7519 8.73953 29.7275L7.49135 29.1562ZM1.47214 39.504L1.39207 40.8456L15.2235 41.671L15.3035 40.3294L1.47214 39.504ZM9.06612 30.1638C11.0182 31.5626 13.557 33.6054 14.7473 34.8786L15.8033 33.8357C14.5172 32.5568 11.9408 30.6078 10.0318 29.2918L9.06612 30.1638ZM26.5605 33.532L26.0067 42.8115L27.524 42.902L28.0778 33.6226L26.5605 33.532ZM21.9767 35.4062L21.8947 36.7798L32.2283 37.3965L32.3103 36.023L21.9767 35.4062ZM24.8677 29.9368L30.2661 30.259L30.1117 32.8463L24.7133 32.5242L24.8677 29.9368ZM23.5103 28.5094L23.1958 33.78L31.5489 34.2785L31.8635 29.0079L23.5103 28.5094ZM21.7146 27.713C20.6791 30.0234 19.0386 32.2656 17.4007 33.6585C17.6513 34.0261 18.0179 34.8654 18.1407 35.2254C20.0043 33.5414 21.8622 30.8794 23.0934 28.2441L21.7146 27.713ZM19.768 31.8604L19.1417 42.3537L20.5952 42.4404L21.3063 30.5256L21.2913 30.5087L19.768 31.8604ZM24.0278 37.5643C23.3475 38.7579 22.3241 40.0592 21.3904 40.9331C21.7303 41.1458 22.2645 41.5944 22.5227 41.8342C23.4443 40.8954 24.5758 39.3922 25.3606 38.0606L24.0278 37.5643ZM28.5265 38.4579C29.4031 39.6162 30.3967 41.2302 30.8336 42.234L32.0923 41.5558C31.6224 40.5661 30.6071 39.0469 29.6977 37.9027L28.5265 38.4579ZM40.5726 34.0156L39.9987 43.6305L41.5639 43.7239L42.1378 34.1091L40.5726 34.0156ZM37.1974 36.5871L45.3908 37.0761L45.3222 38.2261L37.1288 37.7371L37.1974 36.5871ZM37.3328 34.3192L45.5262 34.8082L45.4575 35.9581L37.2641 35.4691L37.3328 34.3192ZM35.9179 33.0486L35.5729 38.8303L46.8009 39.5004L47.146 33.7187L35.9179 33.0486ZM33.9447 39.791L33.8656 41.1167L48.0963 41.966L48.1754 40.6404L33.9447 39.791ZM36.9558 30.1613L39.671 30.3234L39.5957 31.5851L36.8805 31.4231L36.9558 30.1613ZM35.6714 29.123L35.4826 32.2853L40.9609 32.6123L41.1496 29.4499L35.6714 29.123ZM43.584 30.5569L46.3311 30.7209L46.2558 31.9826L43.5087 31.8187L43.584 30.5569ZM42.2836 29.5176L42.0949 32.68L47.621 33.0098L47.8098 29.8474L42.2836 29.5176ZM50.0643 35.8484L50.3975 37.2467L63.2026 34.0519L62.8984 32.7034L50.0643 35.8484ZM57.7315 29.8465L57.0566 41.1544L58.5739 41.2449L59.2488 29.937L57.7315 29.8465ZM53.2435 30.6525L52.6067 41.3216C52.4723 43.5736 53.2215 44.1793 55.7929 44.3327C56.3999 44.369 60.5205 44.6149 61.1594 44.653C63.603 44.7989 64.1976 43.9688 64.6414 41.3666C64.2318 41.246 63.6242 40.9533 63.2712 40.6918C62.915 42.8985 62.6309 43.3624 61.1615 43.2747C60.2671 43.2213 56.6096 43.003 55.859 42.9582C54.2778 42.8639 54.0196 42.624 54.0901 41.4421L54.7288 30.7412L53.2435 30.6525ZM62.5018 32.9041C62.3214 35.1213 62.0003 38.0834 61.6428 39.7771L62.8685 40.1869C63.3314 38.3392 63.7145 35.4128 63.9437 33.1825L64.0219 32.9468L62.9099 32.5117L62.3261 32.8936L62.5018 32.9041ZM73.8149 31.8803L73.7329 33.2538L79.9778 33.6265L80.0598 32.253L73.8149 31.8803ZM72.7935 37.4453L72.7077 38.8828L81.2365 39.3918L81.3223 37.9543L72.7935 37.4453ZM76.4572 35.9489L75.9729 44.0625C75.9595 44.2861 75.8749 44.3612 75.6194 44.3459C75.3638 44.3307 74.4535 44.2763 73.576 44.2079C73.7598 44.6196 73.9622 45.2568 74.0172 45.6768C75.279 45.7521 76.0954 45.7688 76.6838 45.5795C77.2721 45.3902 77.4885 44.9864 77.5372 44.1719L78.0224 36.0423L76.4572 35.9489ZM79.4848 32.2187L79.4657 32.5381C78.8588 33.5758 77.5976 35.1034 76.4572 35.9489C76.7003 36.1718 77.1087 36.5809 77.2841 36.8638C78.7187 35.9236 80.2233 34.3464 81.2345 32.9803L80.2412 32.1676L79.8841 32.2425L79.4848 32.2187ZM66.715 39.1182C68.4462 40.7282 70.7302 43.0123 71.7662 44.4526L72.8308 43.2659C71.7609 41.8556 69.4083 39.6476 67.6883 38.1184L66.715 39.1182ZM66.715 39.1182L68.0619 39.6473C68.8409 37.3376 69.8006 33.6122 70.2804 30.6756L68.7998 30.5071C68.4084 33.3047 67.4845 36.9682 66.715 39.1182ZM71.2847 32.9154L71.1875 34.5445C71.0216 37.3235 70.4534 41.4731 66.0605 44.1761C66.3816 44.4357 66.8632 44.9614 67.0677 45.2941C71.7652 42.3207 72.4231 37.7438 72.608 34.6453L72.7062 33.0002L71.2847 32.9154ZM66.6387 33.9524L66.6957 35.4144C68.5231 35.4113 71.0402 35.4012 73.4454 35.3845L73.5424 34.0279C71.0103 34.021 68.3994 33.9934 66.6387 33.9524ZM83.4312 34.041L83.3435 35.5104L97.3985 36.3492L97.4862 34.8798L83.4312 34.041ZM88.3181 38.0994L88.2304 39.5688L94.5072 39.9434L94.5949 38.474L88.3181 38.0994ZM94.1956 38.4501L94.1804 38.7057C93.6779 42.8271 93.2358 44.5959 92.714 45.0135C92.4968 45.1609 92.2873 45.1804 91.9359 45.1594C91.4887 45.1327 90.3716 45.0501 89.2434 44.8865C89.507 45.303 89.6925 45.9552 89.6977 46.4043C90.764 46.5321 91.8182 46.595 92.412 46.5823C93.0856 46.5744 93.5405 46.4734 93.9834 46.035C94.6773 45.4192 95.1025 43.6654 95.672 39.2275C95.7163 39.0218 95.7609 38.5436 95.7609 38.5436L94.1956 38.4501ZM87.6253 35.205C87.2294 38.8839 86.8021 43.0899 82.4569 44.9944C82.8381 45.3217 83.2858 45.8774 83.4855 46.29C88.1363 44.0992 88.8299 39.4603 89.3023 35.305L87.6253 35.205ZM89.4441 32.1238C89.7977 32.9143 90.2308 33.982 90.4003 34.6333L91.9727 34.0699C91.7712 33.4168 91.3502 32.4139 90.9469 31.6525L89.4441 32.1238ZM104.158 33.4668L104.078 34.8084L113.933 35.3966L114.013 34.055L104.158 33.4668ZM104.766 42.6233L103.413 42.9914C105.09 45.7842 108.322 47.2273 112.707 47.8737C112.924 47.4699 113.345 46.8539 113.701 46.5226C109.419 46.0266 106.158 44.8061 104.766 42.6233ZM105.531 39.7358L111.696 40.1037L111.609 41.5571L105.444 41.1892L105.531 39.7358ZM105.681 37.2282L111.846 37.5962L111.761 39.0176L105.596 38.6497L105.681 37.2282ZM104.343 36.0104L103.971 42.2393L113.011 42.7788L113.383 36.5499L104.343 36.0104ZM108.303 34.1149L107.918 40.5674C107.771 43.027 107.277 45.4018 102.391 46.1521C102.693 46.4746 103.089 47.0913 103.243 47.4532C108.215 46.3393 109.226 43.6268 109.402 40.672L109.788 34.2036L108.303 34.1149ZM102.849 32.5713C101.943 34.8733 100.493 37.143 99.0126 38.5773C99.2622 38.9609 99.6458 39.7852 99.7676 40.1611C101.489 38.4367 103.142 35.7303 104.245 33.0873L102.849 32.5713ZM101.078 36.7291L100.452 47.2225L101.89 47.3083L102.601 35.3935L102.586 35.3765L101.078 36.7291Z" fill="black"/>
</svg>
