<svg width="664" height="317" viewBox="0 0 664 317" fill="none" xmlns="http://www.w3.org/2000/svg">
<path d="M277.435 33.2646V37.2564H278.886V40.7643H277.435V43.7883C277.798 43.6673 278.16 43.5464 278.644 43.5464C278.644 44.877 278.644 46.0866 278.644 47.1752C278.523 47.1752 278.281 47.1752 278.04 47.2962C277.677 47.4171 277.556 47.4171 277.435 47.5381V52.1346C277.435 54.191 276.588 55.2796 274.895 55.4006C274.532 55.4006 274.169 55.4006 273.685 55.5216C273.201 55.5216 272.717 55.5216 272.475 55.6425C272.354 54.9168 272.233 53.9491 272.112 52.6185C272.233 53.4652 272.233 53.2233 271.991 52.1346C272.233 52.2556 272.596 52.2556 273.08 52.2556C273.685 52.2556 274.048 51.8927 274.048 51.1669V48.3848C273.806 48.3848 273.564 48.5058 273.322 48.6268C272.838 48.7477 272.475 48.7477 272.233 48.8687L271.991 44.8769C272.596 44.8769 273.322 44.756 274.169 44.635V41.0062H272.475V37.4983H274.169V33.5066H277.435V33.2646ZM278.644 47.6591H284.813V46.9333H288.2V47.6591H294.49V50.5621H290.499C291.466 51.2879 292.918 52.0137 294.853 52.6185C294.49 52.9814 294.127 53.5862 293.765 54.4329C293.523 54.9168 293.281 55.1587 293.16 55.4006C290.861 54.3119 289.289 53.2233 288.321 52.0137V55.6425H284.934V52.0137C283.604 53.3443 281.789 54.4329 279.612 55.5216C279.491 55.4006 279.37 55.2796 279.249 55.0377C278.644 53.9491 278.16 53.2233 277.798 52.8604C280.096 52.1346 281.668 51.4089 282.757 50.5621H278.644V47.6591ZM279.007 40.6433H286.023V46.6914H279.007V40.6433ZM280.217 40.0385V33.9904H292.676V40.0385H280.217ZM283.362 44.2721V43.0625H281.789V44.2721H283.362ZM283.846 37.4983H289.047V36.5306H283.846V37.4983ZM286.87 40.6433H294.006V46.6914H286.87V40.6433ZM291.224 44.2721V43.0625H289.652V44.2721H291.224Z" fill="#433D3F"/>
<path d="M302.353 55.5214H298.724V45.3607C298.603 45.4816 298.482 45.7235 298.361 45.9655C297.756 46.9332 297.151 47.6589 296.788 48.1428C296.547 46.9332 296.305 45.3607 295.821 43.4253C297.756 40.4012 299.087 37.0143 300.175 33.1436L303.925 34.1112C303.562 35.4418 303.078 36.8934 302.474 38.3449V42.2157C304.167 39.6755 305.619 36.6514 306.465 33.1436L310.336 33.7484C310.215 34.2322 309.973 34.837 309.731 35.5628C309.61 35.9257 309.489 36.1676 309.489 36.2886H318.924V39.9174H311.909V42.3366H317.594V45.8445H311.909V48.1428H318.32V51.6507H311.909V55.5214H308.159V40.0384H307.917C306.949 41.9737 305.982 43.7882 304.772 45.3607C304.288 44.8768 303.683 44.151 302.837 43.0624C302.595 42.8205 302.474 42.5785 302.353 42.4576V55.5214Z" fill="#433D3F"/>
<path d="M320.013 37.6193H322.19C322.432 36.2887 322.553 34.8371 322.795 33.2646L326.424 33.5066C326.303 33.8695 326.303 34.3533 326.182 34.9581C325.94 36.0468 325.819 36.8935 325.819 37.4983H330.537V40.6433C330.295 44.3931 329.569 47.2962 328.48 49.4735L330.537 51.1669L328.239 54.07L326.424 52.3766C325.215 53.5862 323.763 54.6748 322.432 55.8844C321.707 55.0377 320.981 54.191 320.013 53.1023C321.707 52.0137 323.037 50.925 324.005 49.9573C323.763 49.5944 323.521 49.3525 323.158 49.1106C323.037 49.3525 322.916 49.4735 322.916 49.5944L320.013 48.1429C320.739 45.7237 321.223 43.3045 321.707 41.0062H320.255V37.6193H320.013ZM324.973 41.1271C324.61 42.8206 324.368 44.3931 323.884 45.9656C324.489 46.4495 325.094 46.9333 325.698 47.4171C326.303 45.9656 326.787 43.7883 326.908 41.2481H324.973V41.1271ZM342.512 34.1114V37.7402L338.883 42.2158V43.0625H342.875V46.6914H338.883V52.0137C339.004 54.3119 337.794 55.4006 335.254 55.5216C334.77 55.5216 334.166 55.5216 333.319 55.6425C332.593 55.6425 332.109 55.6425 331.746 55.6425C331.625 54.6748 331.384 53.4652 331.021 52.0137C331.867 52.1346 332.593 52.1346 333.44 52.1346C334.529 52.2556 335.012 51.7718 334.891 50.6831V46.6914H330.658V43.0625H335.133V41.2481L337.915 37.7402H331.505V34.1114H342.512Z" fill="#433D3F"/>
<path d="M363.559 51.167C363.438 53.9492 361.987 55.2797 359.083 55.1588C358.116 55.2797 356.543 55.2797 354.366 55.2797C354.124 54.1911 353.882 52.9815 353.519 51.6509C354.124 51.6509 354.85 51.6509 355.817 51.7718C356.543 51.7718 357.027 51.7718 357.269 51.7718C358.842 51.8928 359.688 51.167 359.688 49.4736C359.809 49.1107 359.809 48.5059 359.809 47.6592C359.93 46.9334 359.93 46.3286 359.93 45.8447H353.277C352.914 49.7155 350.858 52.9815 347.108 55.7636C346.866 55.5217 346.503 55.1588 346.02 54.6749C345.173 53.7072 344.447 53.1024 344.084 52.7395C347.713 50.3203 349.527 47.1753 349.527 43.0626C349.648 42.6997 349.648 42.0949 349.648 41.2482C349.769 40.4015 349.769 39.7967 349.769 39.4338H344.689V35.8049H353.277V32.9019H357.753V35.8049H366.341V39.4338H353.64L353.519 42.0949H363.922C363.922 46.0867 363.801 48.9897 363.559 51.167Z" fill="#433D3F"/>
<path d="M371.422 33.2646L375.051 34.2323C374.688 35.6839 374.204 37.1354 373.599 38.7079V53.2233C374.93 53.1023 376.018 52.8604 376.865 52.6185C376.744 52.4975 376.502 52.2556 376.26 52.0137C375.776 51.5298 375.293 51.2879 375.051 50.925L376.018 50.0783H375.413V38.345H381.099V37.2564H375.292V34.2323H390.776V37.2564H384.486V38.345H390.171V50.3202H387.026V49.1106H384.244C384.002 50.4412 383.639 51.4089 383.155 52.1346C384.727 52.3766 387.389 52.4975 391.138 52.4975C390.534 53.4652 390.05 54.5539 389.687 55.6425C385.211 55.4006 382.066 54.9168 380.494 54.191C379.284 54.7958 377.591 55.4006 375.655 56.1264C375.413 55.6425 375.051 55.0377 374.446 54.191C374.204 53.7071 373.962 53.4652 373.841 53.2233V55.7635H370.454V45.7237C369.849 46.6914 369.365 47.5381 368.761 48.3848C368.761 48.1429 368.761 47.901 368.64 47.4171C368.519 45.7237 368.398 44.2721 368.156 43.1835C369.607 40.0385 370.696 36.7725 371.422 33.2646ZM379.647 50.925C380.252 50.3202 380.615 49.7154 380.736 48.9896H378.558V50.0783H377.954C378.558 50.4412 379.163 50.6831 379.647 50.925ZM378.558 41.1271V42.3368H380.978V41.1271H378.558ZM380.978 46.2075C380.978 46.0866 380.978 45.8446 380.978 45.6027C381.099 45.2398 381.099 44.9979 381.099 44.8769H378.679V46.2075H380.978ZM384.486 44.8769C384.486 45.1189 384.486 45.3608 384.365 45.6027C384.365 45.8446 384.365 46.0866 384.365 46.2075H386.905V44.8769H384.486ZM384.486 41.1271V42.3368H386.905V41.1271H384.486Z" fill="#433D3F"/>
<path d="M226.752 55.8839C226.268 55.8839 225.784 55.6419 225.421 55.1581L198.326 5.44292C197.963 4.71716 198.205 3.87043 198.931 3.50754C199.656 3.14466 200.503 3.38658 200.866 4.11235L227.961 53.8275C228.324 54.5533 228.082 55.4 227.357 55.7629C227.236 55.8839 226.994 55.8839 226.752 55.8839Z" fill="#433D3F"/>
<path d="M436.136 55.8839C435.894 55.8839 435.652 55.8839 435.41 55.7629C434.685 55.4 434.443 54.5533 434.806 53.8275L461.901 4.11235C462.264 3.38658 463.111 3.14466 463.836 3.50754C464.562 3.87043 464.804 4.71716 464.441 5.44292L437.346 55.1581C437.104 55.6419 436.62 55.8839 436.136 55.8839Z" fill="#433D3F"/>
<path d="M260.621 18.5074H269.209V16.3301H262.798V12.8222H269.209V11.1287H265.218V9.3143C264.129 9.91911 262.919 10.6449 261.71 11.2497C261.589 11.0078 261.468 10.7658 261.226 10.282C260.5 9.19334 260.016 8.34661 259.653 7.86276C263.645 6.29026 266.427 4.71776 267.879 3.26622H263.524V0.242188H272.596C275.015 3.50815 278.402 5.92738 282.878 7.49988C282.152 8.58853 281.426 9.79814 280.822 11.1287C279.491 10.403 278.402 9.67718 277.435 8.95141V11.1287H273.322V12.9431H279.854V16.451H273.322V18.6283H281.91V21.7733H260.621V18.5074ZM271.87 3.99199C270.782 5.20161 269.451 6.41122 267.758 7.62084H275.499C274.411 6.77411 273.201 5.56449 271.87 3.99199Z" fill="#433D3F"/>
<path d="M305.498 0.725769L306.586 3.99173C303.925 4.35461 301.748 4.59654 300.054 4.7175V7.62057H306.586V11.0075H304.772V22.1359H301.385V11.1285H299.933C299.933 14.0315 299.812 16.2088 299.45 17.7813C299.208 19.2329 298.603 20.9263 297.635 22.7408C296.667 22.015 295.579 21.4102 294.49 20.6844C294.974 19.9586 295.216 19.1119 295.579 18.3861L293.643 19.9586C293.401 19.7167 293.039 19.3538 292.555 18.749C292.192 18.2652 291.95 18.0233 291.829 17.7813V22.3779H288.321V17.5394C287.716 18.749 286.628 19.9586 285.055 21.4102C284.571 20.5635 283.966 19.7167 283.241 18.749C284.571 17.7813 285.902 16.4508 286.991 14.7573H284.208V11.8542H288.2V10.6446H283.725V7.62057H286.144C286.023 7.37865 285.781 7.13673 285.539 6.65288C285.176 6.29 284.934 6.04807 284.813 5.80615L286.386 5.08038H284.208V2.05635H288.079V0H291.466V2.05635H295.458V5.08038H293.16L295.095 5.68519L293.764 7.62057H295.942V10.6446H291.95V11.8542H295.821V14.7573H291.95V16.2088L293.281 15.1202C293.643 15.3621 294.127 15.846 294.853 16.5717C295.458 17.1765 295.821 17.5394 295.942 17.6604C296.426 16.3298 296.546 13.9106 296.546 10.5236V1.69346C300.054 1.45154 302.957 1.20961 305.498 0.725769ZM289.773 6.8948L288.321 7.49961H290.377L291.829 4.95942H288.2L289.773 6.8948Z" fill="#433D3F"/>
<path d="M311.183 19.9588L308.401 19.233C308.643 18.9911 309.006 18.6282 309.369 18.1444C309.731 17.7815 309.973 17.5395 310.094 17.2976H308.159V14.9994H312.03L312.514 14.3945H309.006V9.91897H313.239V9.07224H309.006V6.53205H308.038V4.11282H309.006V1.57263H313.239V0.242055H316.384V1.69359H320.618V4.23378H321.586V6.65301C322.432 4.71763 323.037 2.66128 323.4 0.121094L326.787 0.60494C326.424 1.93552 326.182 3.14513 325.698 4.23378H330.9V7.37878H330.053C329.69 11.2495 328.964 14.2736 327.755 16.4509C328.722 17.5395 329.811 18.5072 331.021 19.354C330.779 19.7169 330.537 20.3217 330.053 21.0474C329.69 21.7732 329.448 22.257 329.327 22.499C327.876 21.4103 326.666 20.4426 325.698 19.354C324.61 20.4426 323.4 21.5313 321.828 22.7409L320.497 20.9265L319.65 22.378C319.529 22.378 319.529 22.378 319.408 22.257C317.715 21.5313 316.505 21.0474 315.78 20.8055C313.965 21.7732 311.667 22.378 308.885 22.8619C308.764 22.6199 308.643 22.378 308.522 22.0151C308.28 21.2894 308.038 20.8055 307.917 20.4426C309.61 20.3217 311.183 20.0797 312.514 19.7169C312.272 19.7169 312.03 19.5959 311.667 19.4749L311.183 19.9588ZM311.667 11.6124V12.4592H313.118V11.6124H311.667ZM311.788 3.62898V4.47571H313.239V3.62898H311.788ZM311.788 6.29013V7.13686H313.239V6.29013H311.788ZM313.602 17.4186L313.239 17.7815C313.481 17.9024 313.844 17.9024 314.328 18.0234C314.812 18.2653 315.175 18.3863 315.417 18.3863C315.779 18.0234 316.142 17.7815 316.505 17.2976H313.602V17.4186ZM321.707 17.4186H319.892C319.408 18.1444 318.804 18.8701 318.32 19.354L320.013 19.9588C321.465 18.8701 322.795 17.6605 323.642 16.5719C322.916 15.1203 322.432 13.4269 322.069 11.6124C321.949 11.7334 321.949 11.9753 321.828 12.2172C321.586 12.4592 321.465 12.7011 321.465 12.822C321.102 11.8544 320.739 10.8867 320.497 10.0399V14.5155H315.9C315.779 14.6365 315.779 14.6365 315.659 14.7574C315.538 14.9994 315.417 15.1203 315.417 15.1203H321.828V17.4186H321.707ZM317.715 3.62898H316.263V4.47571H317.715V3.62898ZM316.263 6.29013V7.13686H317.715V6.29013H316.263ZM320.497 9.91897C320.497 9.79801 320.497 9.67705 320.376 9.55609C320.255 9.31417 320.255 9.1932 320.134 9.1932H316.142V9.91897H320.497ZM317.836 11.6124H316.384V12.4592H317.836V11.6124ZM320.497 8.5884C320.618 8.34647 320.739 8.10455 320.86 7.74167C321.102 7.25782 321.344 6.77397 321.465 6.53205H320.497V8.5884ZM324.489 7.37878C324.731 9.67705 325.094 11.6124 325.698 13.1849C326.303 11.8544 326.666 9.91897 326.787 7.37878H324.489Z" fill="#433D3F"/>
<path d="M338.157 22.7409H334.408V12.5801C334.166 13.064 333.803 13.6688 333.198 14.3945C332.956 14.6365 332.835 14.8784 332.714 14.9994C332.472 13.1849 332.23 11.4915 331.867 9.91897C333.561 7.13686 335.012 3.8709 336.101 0.121094L339.851 1.20975C339.367 2.66128 338.883 4.23378 338.157 5.68532V22.7409ZM349.528 8.10455L353.52 9.1932C352.431 12.3382 351.342 15.4832 350.375 18.6282H354.85V22.0151H339.004V18.6282H346.504C347.713 14.5155 348.802 11.0076 349.528 8.10455ZM344.689 0.242055H348.802V3.8709H354.487V7.49974H339.246V3.8709H344.689V0.242055ZM343.601 8.10455C343.722 8.5884 343.964 9.31417 344.206 10.2819C344.81 11.7334 345.415 13.9107 346.141 16.8138L342.391 17.9024C341.665 14.7574 340.819 11.8544 339.972 9.1932L343.601 8.10455Z" fill="#433D3F"/>
<path d="M360.172 22.4988C359.93 21.0472 359.809 20.0796 359.688 19.5957C359.326 20.6844 358.842 21.894 358.358 22.9826C357.511 22.0149 356.664 21.0472 355.818 20.2005C356.422 19.1119 356.785 18.0232 356.906 16.6926C357.148 15.604 357.148 13.4267 357.148 10.1607V0.84668H365.132V19.5957C365.011 21.1682 364.406 22.0149 362.954 22.3778C362.108 22.3778 361.14 22.4988 360.172 22.4988ZM361.14 19.3538C361.745 19.4747 362.108 18.9909 362.108 18.2651V15.9669H360.172C360.051 17.2974 359.93 18.3861 359.688 19.3538C359.93 19.3538 360.414 19.3538 361.14 19.3538ZM362.108 3.99168H360.414V6.89475H362.108V3.99168ZM360.414 11.0074C360.414 11.6123 360.414 12.338 360.414 12.9428H362.108V9.91879H360.414V11.0074ZM369.486 22.4988H366.22V1.0886H377.954C377.954 1.57245 377.954 2.29822 377.833 3.26591C377.833 4.11264 377.833 4.83841 377.833 5.20129C377.712 7.25764 376.744 8.34629 374.688 8.34629C373.478 8.34629 372.268 8.34629 371.059 8.34629C370.938 7.49956 370.817 6.65283 370.454 5.56418C371.301 5.56418 372.026 5.56418 372.873 5.56418C373.962 5.68514 374.446 5.20129 374.325 4.2336H369.486V9.19302H378.075V12.5799C377.349 14.8782 376.623 16.5717 375.776 17.7813C376.381 18.2651 377.47 18.9909 379.042 19.7167C378.437 20.5634 377.833 21.5311 377.349 22.6197C375.655 21.6521 374.446 20.8053 373.599 20.0796C372.752 20.9263 371.664 21.6521 370.333 22.4988C370.091 22.0149 369.849 21.5311 369.486 21.0472V22.4988ZM371.543 12.2171H369.486V13.5476L371.543 12.2171ZM371.301 17.7813C370.696 16.8136 370.091 15.8459 369.486 14.6363V19.1119C370.212 18.749 370.817 18.2651 371.301 17.7813ZM371.785 12.2171C372.389 13.4267 372.873 14.3944 373.478 15.3621C374.083 14.3944 374.446 13.4267 374.809 12.2171H371.785Z" fill="#433D3F"/>
<path d="M380.615 6.29013L382.671 4.23378C383.276 4.71763 384.002 5.32244 384.849 5.80628L386.3 4.11282H380.615V1.08879H390.05V4.11282L386.784 8.22551H389.929V9.07224C391.018 8.70936 392.106 8.46744 392.953 8.22551C392.711 7.98359 392.469 7.74167 392.106 7.13686C392.348 7.49974 392.348 7.37878 391.865 6.89494C391.623 7.25782 391.381 7.62071 391.018 7.86263L389.324 5.08051C390.534 3.8709 391.744 2.17744 392.953 0.121094L396.703 0.242055C396.461 0.846863 396.219 1.33071 395.856 1.69359H402.509V4.83859H401.299C400.574 5.92724 399.727 7.0159 398.638 7.98359C399.727 8.34647 401.179 8.70936 402.751 8.95128C402.388 9.91897 402.025 11.0076 401.541 12.0963C398.88 11.4915 396.824 10.8867 395.614 10.1609C394.889 10.5238 394.042 10.8867 393.316 11.2495H396.461L396.34 12.822H401.904L401.541 18.7492C401.662 20.8055 400.574 21.8942 398.396 22.0151C397.792 22.1361 396.582 22.1361 394.768 22.1361C394.647 21.0474 394.405 20.2007 394.163 19.354C393.316 20.3217 391.865 21.4103 390.05 22.499C389.929 22.378 389.808 22.1361 389.566 21.8942C388.72 20.9265 388.115 20.2007 387.631 19.7169C389.929 18.7492 391.502 17.4186 392.106 15.967H389.929V12.822H392.711C392.711 12.3382 392.711 11.8544 392.711 11.3705C391.985 11.7334 391.139 11.9753 390.413 12.0963L389.808 10.2819V10.6447L389.566 14.9994L387.631 14.8784L387.873 10.8867H387.147V19.112C387.147 20.9265 386.179 21.8942 384.365 22.1361C384.123 22.1361 383.881 22.1361 383.276 22.1361C382.429 22.257 381.704 22.257 381.341 22.257C381.22 22.0151 381.22 21.5313 381.099 20.9265C380.857 20.0797 380.736 19.4749 380.736 19.112C381.462 19.112 382.188 19.112 382.671 19.112C383.518 19.233 383.881 18.7492 383.76 17.9024V14.5155C382.913 16.3299 381.946 17.7815 380.857 19.233C380.736 18.9911 380.736 18.6282 380.615 18.1444C380.373 16.6928 380.131 15.6042 380.01 14.9994C380.978 14.0317 381.946 12.822 382.671 11.3705H380.252V8.22551H383.034C382.55 7.86263 381.946 7.25782 381.099 6.65301C380.978 6.53205 380.736 6.41109 380.615 6.29013ZM394.405 4.95955C394.889 5.56436 395.493 6.16917 396.098 6.65301C396.703 6.16917 397.187 5.56436 397.55 4.95955H394.405ZM398.396 16.209H396.098C395.856 17.2976 395.372 18.2653 394.768 19.112C395.614 19.112 396.461 19.112 397.187 19.112C398.034 19.233 398.396 18.8701 398.275 18.1444L398.396 16.209Z" fill="#433D3F"/>
<path d="M405.558 314.051H257.38C237.059 314.051 220.729 297.6 220.729 277.399C220.729 257.078 237.18 240.748 257.38 240.748H405.558C425.88 240.748 442.209 257.199 442.209 277.399C442.33 297.6 425.88 314.051 405.558 314.051Z" stroke="#F55848" stroke-width="3.9344" stroke-miterlimit="10"/>
<path d="M262.703 266.876H266.211V270.263H273.468V281.633H270.202V280.424H266.332V286.593H262.824V280.424H259.074V281.633H255.566V270.263H262.824V266.876H262.703ZM258.953 273.408V277.279H262.703V273.408H258.953ZM270.202 273.408H266.332V277.279H270.202V273.408Z" fill="#F55848"/>
<path d="M275.767 278.73H295.362V280.424H293.548V281.028H295.362V282.964H293.548V284.173C293.548 285.746 292.822 286.472 291.25 286.472C290.524 286.472 289.435 286.593 288.226 286.593C288.226 286.472 288.226 286.351 288.105 286.109C287.984 285.625 287.863 285.262 287.863 285.02L287.379 285.504C286.411 284.778 285.685 284.294 285.202 284.053L286.29 283.085H285.081V281.149H290.403V280.424H275.767V278.73ZM277.581 274.497H292.096L292.217 273.892H275.767V272.198H295.362L294.758 275.585L292.338 275.343V276.069H286.895V276.674H293.669V278.125H276.613V276.674H283.629V276.069H277.46V274.497H277.581ZM277.097 270.142H283.75V269.537H276.129V267.844H283.75V266.876H287.016V267.844H294.999V269.537H287.016V270.142H293.911V271.593H277.097V270.142ZM276.613 281.149H284.597V286.23H281.694V285.504H279.395V286.23H276.613V281.149ZM279.395 282.843V283.811H281.694V282.843H279.395ZM289.798 284.294C290.282 284.294 290.524 284.173 290.403 283.69V282.964H287.621C288.226 283.327 288.709 283.569 289.072 283.811L288.589 284.173C288.951 284.294 289.435 284.294 289.798 284.294Z" fill="#F55848"/>
<path d="M310.483 258.651H306.37V255.264H310.483V258.651ZM310.483 273.408H306.37V260.465H310.483V273.408Z" fill="#F55848"/>
<path d="M313.023 270.384H321.248V267.36H314.474V264.215H321.248V261.433H317.256C317.014 262.038 316.53 262.763 315.926 263.852C315.926 263.731 315.926 263.852 315.805 264.094C315.321 263.852 314.353 263.247 312.66 262.4C314.111 260.223 315.2 257.804 315.805 255.143L319.313 255.748C319.071 256.594 318.829 257.32 318.587 258.167H321.248V254.417H324.756V258.167H331.288V261.312H324.756V264.094H330.441V267.239H324.756V270.263H332.014V273.287H312.902V270.384H313.023Z" fill="#F55848"/>
<path d="M335.28 259.739C336.489 260.707 337.699 261.675 338.667 262.643L336.247 265.062C335.159 263.852 334.191 262.884 333.102 261.917L335.28 259.739ZM335.642 254.538C336.973 255.506 338.183 256.473 339.15 257.441L336.852 259.86C335.763 258.772 334.675 257.683 333.465 256.715L335.642 254.538ZM335.642 265.667L338.787 266.755C338.667 267.239 338.546 267.965 338.183 268.932C337.578 271.11 337.094 272.803 336.731 274.013L333.586 273.045C334.433 270.747 335.038 268.328 335.642 265.667ZM339.271 255.506C344.11 255.385 348.343 255.264 351.972 254.901L352.335 257.562C350.642 257.683 349.069 257.804 347.497 257.925V259.86H352.94V262.763H347.497V264.82H352.214V273.892H348.948V272.803H342.779V273.892H339.513V264.82H344.231V262.763H338.908V259.86H344.231V258.046C343.747 258.046 343.021 258.167 341.932 258.167C340.965 258.167 340.239 258.288 339.755 258.288C339.755 258.167 339.755 258.046 339.755 257.925C339.634 257.199 339.513 256.473 339.271 255.506ZM342.779 267.481V270.142H348.948V267.481H342.779Z" fill="#F55848"/>
<path d="M365.883 292.036V293.003H355.843C355.964 294.697 357.053 295.665 359.109 295.907C360.682 295.907 361.528 295.423 361.891 294.334L366.125 294.818C365.036 297.358 362.738 298.568 359.109 298.568C354.392 298.447 351.972 296.269 351.73 292.036C351.972 287.439 354.271 285.141 358.625 285.02C363.464 285.02 365.883 287.439 365.883 292.036ZM355.722 290.463H362.012C361.891 288.77 360.803 287.802 358.867 287.681C356.932 287.802 355.843 288.77 355.722 290.463Z" fill="#F55848"/>
<path d="M385.963 286.23C386.567 287.923 387.051 289.738 387.535 291.431L384.753 292.278C384.753 291.915 384.511 291.31 384.39 290.463C384.148 289.496 383.906 288.77 383.785 288.286C382.697 290.1 381.608 291.794 380.398 293.245V294.334C380.398 295.181 380.64 295.544 381.245 295.544H381.85C382.455 295.544 382.818 295.302 382.818 294.697C382.939 293.971 383.06 293.124 383.181 292.157C383.422 292.278 383.906 292.399 384.632 292.641C385.237 292.883 385.721 293.124 386.084 293.245C386.084 293.366 385.963 293.608 385.963 293.85C385.721 295.06 385.6 295.786 385.358 296.269C384.995 297.721 383.906 298.326 382.334 298.326H380.277C378.584 298.326 377.737 297.6 377.374 296.269C376.528 296.874 375.681 297.6 374.713 298.447C374.592 298.326 374.471 298.084 374.229 297.842C373.625 297.116 373.141 296.511 372.778 296.269C374.592 294.939 376.044 293.729 377.253 292.52V286.472C377.132 287.56 376.77 289.012 376.407 291.068C376.286 291.552 376.165 291.915 376.165 292.278L374.229 291.673L373.504 293.124C373.141 292.762 372.778 292.399 372.294 292.036V298.81H369.391V293.245C369.391 293.366 369.27 293.487 369.149 293.729C368.907 294.334 368.544 294.939 367.939 295.665C367.576 294.455 367.335 293.366 366.972 292.278C367.939 290.947 368.665 289.496 369.27 287.923H367.214V284.899H369.391V282.964C369.149 282.964 368.786 282.964 368.423 283.085C368.06 283.085 367.818 283.085 367.576 283.085C367.456 281.996 367.335 281.028 367.214 280.182C369.391 280.061 371.689 279.94 373.987 279.698L374.592 282.601C373.866 282.601 373.141 282.601 372.415 282.722V284.899H374.35V287.923H372.415V288.77C372.657 288.891 372.899 289.012 373.262 289.254C373.746 289.496 373.987 289.617 374.108 289.738C374.471 288.165 374.713 286.593 374.955 285.02L377.132 285.504V283.568H379.915C379.794 283.448 379.673 283.327 379.431 283.206C378.826 282.722 378.1 281.996 377.011 281.27L378.947 279.214C379.552 279.577 380.277 280.182 381.245 280.907C381.971 281.512 382.455 281.875 382.939 282.117L380.882 284.415C380.64 284.294 380.398 284.052 380.156 283.81V288.77C381.003 287.318 381.729 285.867 382.334 284.536C382.576 284.052 382.939 283.327 383.301 282.238C383.543 281.633 383.785 281.149 383.906 280.786L386.567 281.875C385.963 283.448 385.358 284.657 384.874 285.625C384.874 285.746 384.753 285.988 384.511 286.23C384.39 286.351 384.269 286.472 384.269 286.593L385.963 286.23Z" fill="#F55848"/>
<path d="M389.591 285.383H396.365V284.778H388.503V282.843H396.365V282.238H389.712V280.423H396.365V279.214H399.873V280.303H406.768V282.722H408.219V284.657H406.768V286.955H399.873V287.56H406.768V289.012H399.873V289.496H408.219V291.431H388.624V289.496H396.365V289.012H389.47V287.56H396.365V286.955H389.591V285.383ZM390.196 298.931V291.915H406.405V298.931H403.26V298.326H393.462V298.931H390.196ZM393.462 293.85V294.455H403.26V293.85H393.462ZM393.462 296.028V296.632H403.26V296.028H393.462ZM403.744 282.117H399.873V282.722H403.744V282.117ZM399.873 285.383H403.744V284.778H399.873V285.383Z" fill="#F55848"/>
<path d="M373.382 259.618L335.884 296.995" stroke="#433D3F" stroke-width="3.0899" stroke-miterlimit="10" stroke-linecap="round" stroke-linejoin="round"/>
<path d="M9.24194 139.711H119.317" stroke="#433D3F" stroke-width="18" stroke-miterlimit="10" stroke-linecap="round" stroke-linejoin="round"/>
<path d="M197.579 100.882V117.333" stroke="#433D3F" stroke-width="18" stroke-miterlimit="10" stroke-linecap="round" stroke-linejoin="round"/>
<path d="M64.2793 100.882V139.71" stroke="#433D3F" stroke-width="18" stroke-miterlimit="10" stroke-linecap="round" stroke-linejoin="round"/>
<path d="M598.566 100.882V209.021" stroke="#433D3F" stroke-width="18" stroke-miterlimit="10" stroke-linecap="round" stroke-linejoin="round"/>
<path d="M434.18 100.882V209.021" stroke="#433D3F" stroke-width="18" stroke-miterlimit="10" stroke-linecap="round" stroke-linejoin="round"/>
<path d="M142.784 142.976V124.59H252.375V142.976" stroke="#433D3F" stroke-width="18" stroke-miterlimit="10" stroke-linecap="round" stroke-linejoin="round"/>
<path d="M543.771 124.59H653.362" stroke="#433D3F" stroke-width="18" stroke-miterlimit="10" stroke-linecap="round" stroke-linejoin="round"/>
<path d="M168.548 146.969H226.61" stroke="#433D3F" stroke-width="18" stroke-miterlimit="10" stroke-linecap="round" stroke-linejoin="round"/>
<path d="M410.955 124.59H456.558" stroke="#433D3F" stroke-width="18" stroke-miterlimit="10" stroke-linecap="round" stroke-linejoin="round"/>
<path d="M410.955 151.444H456.558" stroke="#433D3F" stroke-width="18" stroke-miterlimit="10" stroke-linecap="round" stroke-linejoin="round"/>
<path d="M434.18 178.297H456.558" stroke="#433D3F" stroke-width="18" stroke-miterlimit="10" stroke-linecap="round" stroke-linejoin="round"/>
<path d="M519.941 117.067H479.056V154.202H519.941V117.067Z" stroke="#433D3F" stroke-width="18" stroke-miterlimit="10" stroke-linecap="round" stroke-linejoin="round"/>
<path d="M479.056 154.082V178.032H519.941" stroke="#433D3F" stroke-width="18" stroke-miterlimit="10" stroke-linecap="round" stroke-linejoin="round"/>
<path d="M410.955 171.645V209.022H519.941" stroke="#433D3F" stroke-width="18" stroke-miterlimit="10" stroke-linecap="round" stroke-linejoin="round"/>
<path d="M549.456 150.839L564.939 135.356L580.543 150.839" stroke="#433D3F" stroke-width="18" stroke-miterlimit="10" stroke-linecap="round" stroke-linejoin="round"/>
<path d="M616.832 150.839L632.315 135.356L647.798 150.839" stroke="#433D3F" stroke-width="18" stroke-miterlimit="10" stroke-linecap="round" stroke-linejoin="round"/>
<path d="M542.562 207.328L598.567 151.444L654.451 207.328" stroke="#433D3F" stroke-width="18" stroke-miterlimit="10" stroke-linecap="round" stroke-linejoin="round"/>
<path d="M9 209.022L64.2794 146.969L119.317 210.474" stroke="#433D3F" stroke-width="18" stroke-miterlimit="10" stroke-linecap="round" stroke-linejoin="round"/>
<path d="M142.784 185.555L179.193 149.146" stroke="#433D3F" stroke-width="18" stroke-miterlimit="10" stroke-linecap="round" stroke-linejoin="round"/>
<path d="M151.614 210.473L196.128 165.959" stroke="#433D3F" stroke-width="18" stroke-miterlimit="10" stroke-linecap="round" stroke-linejoin="round"/>
<path d="M185.362 210.473L213.062 182.894" stroke="#433D3F" stroke-width="18" stroke-miterlimit="10" stroke-linecap="round" stroke-linejoin="round"/>
<path d="M252.375 163.782L231.932 184.103L252.375 204.425" stroke="#433D3F" stroke-width="18" stroke-miterlimit="10" stroke-linecap="round" stroke-linejoin="round"/>
<path d="M176.532 146.969L222.86 193.297V210.474" stroke="#433D3F" stroke-width="18" stroke-miterlimit="10" stroke-linecap="round" stroke-linejoin="round"/>
<path d="M354.587 202.127H332.209C305.598 202.127 284.066 181.079 284.066 155.073C284.066 129.066 305.598 108.019 332.209 108.019C358.821 108.019 380.352 129.066 380.352 155.073H284.066" stroke="#F55848" stroke-width="18" stroke-miterlimit="10" stroke-linecap="round" stroke-linejoin="round"/>
</svg>
